<?xml version="1.0" standalone="no"?>
<!DOCTYPE svg PUBLIC "-//W3C//DTD SVG 1.1//EN" "http://www.w3.org/Graphics/SVG/1.1/DTD/svg11.dtd" >
<svg>
<metadata>
Created by FontForge 20090622 at Mon Feb  1 22:46:52 2016
 By deploy user
Copyright &#194;&#169; 2011 ParaType Inc., ParaType Ltd. All rights reserved.
</metadata>
<defs>
<font id="PragmaticaSlab-Medium" horiz-adv-x="600" >
  <font-face 
    font-family="Pragmatica Slabserif"
    font-weight="500"
    font-stretch="normal"
    units-per-em="1000"
    panose-1="2 6 6 3 2 2 6 2 4 4"
    ascent="800"
    descent="-200"
    x-height="508"
    cap-height="700"
    bbox="-588 -282 1296 920"
    underline-thickness="50"
    underline-position="-50"
    unicode-range="U+0020-U+FB02"
  />
<missing-glyph horiz-adv-x="500" 
d="M58 8h384v496h-384v-496zM50 0v512h400v-512h-400z" />
    <glyph glyph-name="afii10017.var.accented" unicode="&#x410;`" horiz-adv-x="726" 
d="M207 599v101h225l224 -594h70v-106h-269v96h65l-21 61h-274l-21 -61h57v-96h-263v106h80l187 493h-60zM363 574l-106 -314h210zM375 900h136l-118 -140h-96z" />
    <glyph glyph-name="afii10022.var.accented" unicode="&#x415;`" horiz-adv-x="690" 
d="M55 594v106h594v-225h-106v119h-291v-182h245v-106h-245v-200h302v136h106v-242h-605v106h69v488h-69zM355 900h136l-118 -140h-96z" />
    <glyph glyph-name="afii10026.var.accented" unicode="&#x418;`" horiz-adv-x="834" 
d="M55 594v106h264v-106h-67v-406l333 512h194v-106h-69v-488h69v-106h-264v106h67v406l-333 -512h-194v106h69v488h-69zM444 900h136l-118 -140h-96z" />
    <glyph glyph-name="afii10032.var.accented" unicode="&#x41e;`" horiz-adv-x="776" 
d="M45 350q0 74 16.5 134.5t40.5 98t59.5 65.5t65.5 41.5t67 21t55.5 9t38.5 1.5t38.5 -1.5t55.5 -9t67 -21t65.5 -41.5t59.5 -65.5t40.5 -98t16.5 -134.5t-16.5 -134.5t-40.5 -98t-59.5 -65.5t-65.5 -41.5t-67 -21t-55.5 -9t-38.5 -1.5t-38.5 1.5t-55.5 9t-67 21
t-65.5 41.5t-59.5 65.5t-40.5 98t-16.5 134.5zM182 350q0 -46 8.5 -88t29.5 -84t64 -67.5t104 -25.5t104 25.5t64 67.5t29.5 84t8.5 88t-8.5 88t-29.5 84t-64 67.5t-104 25.5t-104 -25.5t-64 -67.5t-29.5 -84t-8.5 -88zM385 900h136l-118 -140h-96z" />
    <glyph glyph-name="afii10037.var.accented" unicode="&#x423;`" horiz-adv-x="658" 
d="M5 594v106h266v-106h-54l135 -272l100 272h-65v106h266v-106h-69l-257 -594h-176v106h104l28 78l-218 410h-60zM339 900h136l-118 -140h-96z" />
    <glyph glyph-name="afii10045.var.accented" unicode="&#x42b;`" horiz-adv-x="1024" 
d="M703 594v106h266v-106h-69v-488h69v-106h-253v106h56v488h-69zM55 594v106h266v-106h-69v-164h161q259 0 259 -213q0 -36 -13 -71.5t-41.5 -69.5t-83 -55t-126.5 -21h-353v106h69v488h-69zM252 324v-218h137q151 0 151 111q0 107 -148 107h-140zM520 900h136l-118 -140
h-96z" />
    <glyph glyph-name="afii10047.var.accented" unicode="&#x42d;`" horiz-adv-x="748" 
d="M65 700h106v-59q80 80 209 80q76 0 134 -21t93.5 -56t57.5 -86t30 -103.5t8 -116.5q0 -175 -95 -267t-256 -92q-66 0 -119.5 17.5t-86.5 44t-56 62.5t-32.5 69t-12.5 67h127q4 -63 52 -108.5t134 -45.5q56 0 97.5 21.5t63.5 56.5t33 70.5t13 72.5h-306v106h306
q-2 37 -12 70t-30.5 64.5t-60 50t-92.5 18.5q-80 0 -133.5 -39.5t-65.5 -100.5h-106v225zM391 900h136l-118 -140h-96z" />
    <glyph glyph-name="afii10048.var.accented" unicode="&#x42e;`" horiz-adv-x="1079" 
d="M55 594v106h266v-106h-69v-174h104q4 40 15 78.5t36 80t61 72t94 50.5t131 20q20 0 38.5 -1.5t55 -9t66.5 -21t65.5 -41.5t59.5 -65.5t40 -98t16 -134.5t-16 -134.5t-40 -98t-59.5 -65.5t-65.5 -41.5t-66.5 -21t-55 -9t-38.5 -1.5q-76 0 -136 21.5t-96 54.5t-60.5 79
t-34.5 89.5t-13 90.5h-101v-208h69v-106h-266v106h69v488h-69zM693 85q50 0 87.5 17.5t59 44t35 64t18 70.5t4.5 69t-4.5 69t-18 70.5t-35 64t-59 44t-87.5 17.5t-87.5 -17.5t-59 -44t-35 -64t-18 -70.5t-4.5 -69t4.5 -69t18 -70.5t35 -64t59 -44t87.5 -17.5zM551 900h136
l-118 -140h-96z" />
    <glyph glyph-name="afii10049.var.accented" unicode="&#x42f;`" horiz-adv-x="755" 
d="M434 0v106h69v155h-121l-169 -261h-170v106h84l122 169q-22 3 -42.5 8.5t-48 20.5t-47.5 36t-34 57t-14 82q0 57 21.5 99t51.5 65t72.5 36.5t75.5 17t69 3.5h347v-106h-69v-488h69v-106h-266zM503 594h-155q-153 0 -153 -114q0 -35 16.5 -59.5t44 -35t51.5 -14.5t50 -4
h146v227zM407 900h136l-118 -140h-96z" />
    <glyph glyph-name="afii10023.var.accented" unicode="&#x401;`" horiz-adv-x="690" 
d="M55 594v106h594v-225h-106v119h-291v-182h245v-106h-245v-200h302v136h106v-242h-605v106h69v488h-69zM120 772v88h128v-88h-128zM478 772v88h128v-88h-128zM349 900h136l-118 -140h-96z" />
    <glyph glyph-name="afii10065.var.accented" unicode="&#x430;`" horiz-adv-x="585" 
d="M393 0v63q-59 -75 -169 -75q-50 0 -87 11.5t-55.5 27.5t-29 38.5t-13 37.5t-2.5 32q0 37 14.5 65.5t36 43.5t37.5 22.5t29 10.5q17 5 36 8t43 6l39 5l49 7l28 4t17 6.5t12.5 16t2.5 28.5q0 88 -99 88q-62 0 -91 -27.5t-27 -67.5h-114q-2 76 56 126.5t176 50.5
q58 0 101 -13.5t65 -32t34.5 -45.5t15.5 -46.5t3 -42.5v-266h64v-82h-172zM381 226v18q-18 -13 -86 -21q-32 -4 -46.5 -6.5t-35 -8.5t-29.5 -14t-16 -22t-7 -33q0 -31 19.5 -50t59.5 -19q26 0 48 6t44.5 22t35.5 48.5t13 79.5zM284 700h130l-110 -132h-90z" />
    <glyph glyph-name="afii10070.var.accented" unicode="&#x435;`" horiz-adv-x="594" 
d="M429 147h114q-6 -29 -18.5 -54.5t-38 -53t-73.5 -43.5t-112 -16q-24 0 -47.5 2.5t-64.5 17.5t-70.5 40.5t-52.5 79t-23 125.5q0 133 65.5 208t193.5 75q237 0 248 -276q0 -6 0.5 -15t0.5 -14h-380q0 -27 7 -53t22 -51.5t44 -41t67 -15.5q43 0 77.5 22.5t40.5 62.5z
M171 305h253q0 21 -4.5 42t-16.5 45t-37.5 39t-62.5 15q-65 0 -99.5 -43t-32.5 -98zM293 700h130l-110 -132h-90z" />
    <glyph glyph-name="afii10074.var.accented" unicode="&#x438;`" horiz-adv-x="676" 
d="M40 82h64v344h-64v82h248v-82h-64v-284l216 366h196v-82h-64v-344h64v-82h-248v82h64v284l-216 -366h-196v82zM347 700h130l-110 -132h-90z" />
    <glyph glyph-name="afii10080.var.accented" unicode="&#x43e;`" horiz-adv-x="610" 
d="M43 254q0 33 6 66t24 72t46 68t76 48.5t110 19.5t110 -19.5t76 -48.5t46 -68t24 -72t6 -66t-6 -66t-24 -72t-46 -68t-76 -48.5t-110 -19.5t-110 19.5t-76 48.5t-46 67.5t-24 72t-6 66.5zM171 254q0 -61 14 -102.5t37.5 -59.5t42.5 -24t40 -6t40 6t42.5 24t37.5 59.5
t14 102.5t-14 102.5t-37.5 59.5t-42.5 24t-40 6t-40 -6t-42.5 -24t-37.5 -59.5t-14 -102.5zM301 700h130l-110 -132h-90z" />
    <glyph glyph-name="afii10085.var.accented" unicode="&#x443;`" horiz-adv-x="567" 
d="M-5 426v82h243v-82h-52l118 -296l94 296h-52v82h226v-82h-61l-216 -611h-171v82h92l35 94l-201 435h-55zM315 700h130l-110 -132h-90z" />
    <glyph glyph-name="afii10093.var.accented" unicode="&#x44b;`" horiz-adv-x="838" 
d="M550 426v82h248v-82h-64v-344h60v-82h-180v426h-64zM40 426v82h248v-82h-64v-114h109q31 0 54 -1.5t56 -10.5t53.5 -24t36 -45.5t15.5 -72.5q0 -38 -14.5 -67.5t-36.5 -46t-51 -27t-53 -14t-47 -3.5h-306v82h64v344h-64zM224 230v-148h108q37 0 64.5 19.5t27.5 56.5
q0 72 -92 72h-108zM414 700h130l-110 -132h-90z" />
    <glyph glyph-name="afii10095.var.accented" unicode="&#x44d;`" horiz-adv-x="588" 
d="M220 220v82h197q-2 59 -40 101.5t-103 42.5q-53 0 -92 -31.5t-48 -75.5h-87v169h82v-46q62 66 172 66q26 0 50.5 -3t62.5 -19t64.5 -43.5t46.5 -81.5t20 -128q0 -15 -1 -29t-6.5 -43.5t-15 -53.5t-29.5 -52.5t-47.5 -48t-71 -33t-97.5 -13.5q-117 0 -175 57t-65 135h114
q2 -46 35 -78t89 -32q49 0 82.5 28t45.5 61.5t14 68.5h-197zM290 700h130l-110 -132h-90z" />
    <glyph glyph-name="afii10096.var.accented" unicode="&#x44e;`" horiz-adv-x="863" 
d="M40 426v82h244v-79h-60v-120h84q6 92 73.5 155.5t179.5 63.5q62 0 109.5 -19.5t75 -48.5t45 -68t23.5 -72t6 -66t-6 -66t-23.5 -72t-45 -68t-75 -48.5t-109.5 -19.5q-85 0 -144.5 38t-84.5 91.5t-27 117.5h-81v-148h60v-79h-244v82h64v344h-64zM430 254
q0 -61 13.5 -102.5t36.5 -59.5t41.5 -24t39.5 -6t39.5 6t41.5 24t36.5 59.5t13.5 102.5t-13.5 102.5t-36.5 59.5t-41.5 24t-39.5 6t-39.5 -6t-41.5 -24t-36.5 -59.5t-13.5 -102.5zM442 700h130l-110 -132h-90z" />
    <glyph glyph-name="afii10097.var.accented" unicode="&#x44f;`" horiz-adv-x="609" 
d="M321 0v82h64v107h-78l-133 -189h-138v82h67l85 110q-19 2 -39.5 9.5t-45 23t-40 46t-15.5 70.5q0 46 17.5 79.5t40 50t53.5 25.5t47.5 10.5t33.5 1.5h329v-82h-64v-344h64v-82h-248zM385 426h-96q-117 0 -117 -80q0 -75 117 -75h96v155zM314 700h130l-110 -132h-90z" />
    <glyph glyph-name="afii10071.var.accented" unicode="&#x451;`" horiz-adv-x="594" 
d="M429 147h114q-6 -29 -18.5 -54.5t-38 -53t-73.5 -43.5t-112 -16q-24 0 -47.5 2.5t-64.5 17.5t-70.5 40.5t-52.5 79t-23 125.5q0 133 65.5 208t193.5 75q237 0 248 -276q0 -6 0.5 -15t0.5 -14h-380q0 -27 7 -53t22 -51.5t44 -41t67 -15.5q43 0 77.5 22.5t40.5 62.5z
M171 305h253q0 21 -4.5 42t-16.5 45t-37.5 39t-62.5 15q-65 0 -99.5 -43t-32.5 -98zM74 584v106h111v-106h-111zM419 584v106h111v-106h-111zM273 700h130l-110 -132h-90z" />
    <glyph glyph-name="fi" unicode="fi" horiz-adv-x="596" 
d="M326 0v82h40v344h-112v-344h40v-82h-230v82h70v344h-94v82h94v64q0 41 12 69t33 41t42.5 18t48.5 5q35 0 68 -5v-82q-2 0 -13.5 1t-16.5 1q-54 0 -54 -64v-48h232v-426h70v-82h-230zM366 594v106h120v-106h-120z" />
    <glyph glyph-name="fl" unicode="fl" horiz-adv-x="596" 
d="M64 0v82h70v344h-94v82h94v64q0 41 12 69t33 41t42.5 18t48.5 5q35 0 68 -5h148v-618h70v-82h-230v82h40v344h-112v-344h40v-82h-230zM366 618h-28q-2 0 -13.5 1t-16.5 1q-54 0 -54 -64v-48h112v110z" />
    <glyph glyph-name=".notdef" horiz-adv-x="500" 
d="M58 8h384v496h-384v-496zM50 0v512h400v-512h-400z" />
    <glyph glyph-name=".null" horiz-adv-x="0" 
 />
    <glyph glyph-name="nonmarkingreturn" horiz-adv-x="333" 
 />
    <glyph glyph-name="space" unicode=" " horiz-adv-x="233" 
 />
    <glyph glyph-name="exclam" unicode="!" horiz-adv-x="344" 
d="M106 700h132v-241l-34 -240h-64l-34 240v241zM106 0v135h132v-135h-132z" />
    <glyph glyph-name="quotedbl" unicode="&#x22;" horiz-adv-x="500" 
d="M220 700l-51 -192h-68l-51 192h170zM450 700l-51 -192h-68l-51 192h170z" />
    <glyph glyph-name="numbersign" unicode="#" 
d="M558 170h-140l-25 -160h-78l25 160h-134l-25 -160h-78l25 160h-142l15 86h140l29 187h-142l15 86h140l26 165h78l-26 -165h134l26 165h78l-26 -165h142l-15 -86h-140l-29 -187h142zM248 443l-29 -187h134l29 187h-134z" />
    <glyph glyph-name="dollar" unicode="$" 
d="M32 205h110q2 -55 30 -93q32 -42 88 -46v250q-42 10 -67 17.5t-56 23t-47.5 35t-28.5 51.5t-12 74q0 100 74 158q57 42 137 44v58h82v-58q67 0 115 -49v30h101v-185h-107q4 45 -33 84q-28 28 -76 34v-217q100 -16 153 -54q41 -29 57 -66.5t16 -92.5q0 -113 -73 -171
q-59 -47 -153 -52v-73h-82v73q-83 0 -127 55v-35h-101v205zM342 300v-234q47 0 72.5 36.5t25.5 85.5q0 40 -25 70.5t-73 41.5zM260 432v201q-83 -13 -83 -106q0 -47 27 -69.5t56 -25.5z" />
    <glyph glyph-name="percent" unicode="%" horiz-adv-x="950" 
d="M54 513q0 89 45 144.5t125 55.5t125 -55.5t45 -144.5t-45 -144.5t-125 -55.5t-125 55.5t-45 144.5zM134 513q0 -134 90 -134t90 134t-90 134t-90 -134zM556 192q0 89 45 144.5t125 55.5t125 -55.5t45 -144.5t-45 -144.5t-125 -55.5t-125 55.5t-45 144.5zM636 192
q0 -134 90 -134t90 134t-90 134t-90 -134zM225 0l428 700h72l-428 -700h-72z" />
    <glyph glyph-name="ampersand" unicode="&#x26;" horiz-adv-x="720" 
d="M457 394h223v-92h-63q-19 -89 -62 -156l33 -40h87v-106h-137l-55 67q-82 -88 -218 -88q-107 0 -165 62.5t-58 149.5q0 150 166 226q-29 30 -45.5 68.5t-16.5 72.5q0 70 49 116.5t128 46.5q46 0 80.5 -16t51.5 -41.5t25 -50.5t8 -50q0 -106 -126 -174l125 -159
q16 24 26 72h-56v92zM422 143l-153 198q-99 -41 -99 -146q0 -53 31.5 -87.5t84.5 -34.5q79 0 136 70zM305 459q77 35 77 100q0 80 -60 80q-28 0 -49 -19t-21 -55q0 -46 53 -106z" />
    <glyph glyph-name="quotesingle" unicode="'" horiz-adv-x="270" 
d="M220 700l-51 -192h-68l-51 192h170z" />
    <glyph glyph-name="parenleft" unicode="(" horiz-adv-x="394" 
d="M218 700h92q-122 -236 -122 -442q0 -99 33 -218.5t89 -223.5h-92q-80 136 -114 236t-34 206t34 206t114 236z" />
    <glyph glyph-name="parenright" unicode=")" horiz-adv-x="394" 
d="M176 -184h-92q122 236 122 442q0 99 -33 217t-89 225h92q80 -136 114 -236t34 -206t-34 -206t-114 -236z" />
    <glyph glyph-name="asterisk" unicode="*" horiz-adv-x="468" 
d="M234 515l-75 -101l-51 37l73 102l-115 38l19 58l117 -38v124h64v-124l117 38l19 -58l-115 -38l73 -102l-51 -37z" />
    <glyph glyph-name="plus" unicode="+" 
d="M50 398h207v207h86v-207h207v-86h-207v-207h-86v207h-207v86z" />
    <glyph glyph-name="comma" unicode="," horiz-adv-x="344" 
d="M106 135h132v-139q0 -78 -38.5 -113.5t-93.5 -40.5v69q30 2 48.5 23.5t18.5 54.5v11h-67v135z" />
    <glyph glyph-name="hyphen" unicode="-" horiz-adv-x="420" 
d="M70 216v106h280v-106h-280z" />
    <glyph glyph-name="period" unicode="." horiz-adv-x="344" 
d="M106 0v135h132v-135h-132z" />
    <glyph glyph-name="slash" unicode="/" horiz-adv-x="440" 
d="M0 -185l358 885h82l-358 -885h-82z" />
    <glyph glyph-name="zero" unicode="0" 
d="M300 -21q-63 0 -110.5 25.5t-74.5 63t-43.5 90t-21.5 97.5t-5 95t5 95t21.5 97.5t43.5 90t74.5 63t110.5 25.5t110.5 -25.5t74.5 -63t43.5 -90t21.5 -97.5t5 -95t-5 -95t-21.5 -97.5t-43.5 -90t-74.5 -63t-110.5 -25.5zM300 85q16 0 29 3t32 18t32 41.5t22.5 78.5
t9.5 124t-9.5 124t-22.5 78.5t-32 41.5t-32 18t-29 3t-29 -3t-32 -18t-32 -41.5t-22.5 -78.5t-9.5 -124t9.5 -124t22.5 -78.5t32 -41.5t32 -18t29 -3z" />
    <glyph glyph-name="one" unicode="1" 
d="M135 594v106h247v-594h119v-106h-366v106h119v488h-119z" />
    <glyph glyph-name="two" unicode="2" 
d="M567 0h-528q-1 37 6 69.5t15.5 56t29 49t32.5 39t42.5 35.5t41.5 29l47 29q14 9 21 13q36 22 56 35.5t44.5 36.5t35.5 50t11 60q0 15 -3.5 30.5t-15 36t-39 33.5t-68.5 13q-133 0 -133 -131v-17h-123v18q0 48 13 86.5t32 62.5t46.5 41.5t50.5 26t50.5 13.5t40.5 5.5
t26 0.5q113 0 183 -55t70 -164q0 -35 -6.5 -64.5t-23 -55t-30 -42.5t-42.5 -38t-44.5 -31t-50.5 -31l-15 -9q-86 -53 -114 -75.5t-40 -49.5h276v118h106v-224z" />
    <glyph glyph-name="three" unicode="3" 
d="M36 226h123q0 -17 1 -26q2 -22 9 -41t21 -38.5t39.5 -31t59.5 -11.5q24 0 43 5q28 7 47 23t27 36t11 35t3 29q0 105 -122 105h-51v106h27q18 0 31 1t33.5 6.5t34 15t23.5 30t10 48.5q0 39 -22.5 68t-81.5 29q-64 0 -91.5 -33.5t-28.5 -102.5h-123q-1 43 8.5 81.5t34 76.5
t75.5 61t123 23q122 0 179 -54t57 -141q0 -57 -32.5 -99t-87.5 -53v-2q57 -7 95.5 -51.5t38.5 -125.5q0 -102 -69.5 -159t-188.5 -57q-68 0 -118.5 19.5t-76 46t-40.5 64.5t-18 63t-3 54z" />
    <glyph glyph-name="four" unicode="4" 
d="M352 158h-329v101l330 441h127v-441h97v-101h-97v-57h69v-101h-266v101h69v57zM152 259h200v278z" />
    <glyph glyph-name="five" unicode="5" 
d="M542 700v-181h-102v75h-226l-23 -162q52 52 154 52q103 0 165 -65t62 -184q0 -69 -24 -120t-55.5 -76t-75 -40t-69 -17.5t-50.5 -2.5q-216 0 -242 210h123q4 -45 35.5 -78t91.5 -33q24 0 45.5 6.5t43.5 22t34.5 48t12.5 79.5q0 39 -11 68t-25.5 43t-35 22t-33 9.5
t-26.5 1.5q-85 0 -118 -58h-121l48 380h422z" />
    <glyph glyph-name="six" unicode="6" 
d="M555 541h-123q-17 74 -111 74q-144 0 -153 -203h2q46 63 158 63q108 0 170 -63t62 -179q0 -119 -69.5 -186.5t-189.5 -67.5q-57 0 -101 15t-71 42.5t-45.5 59t-27 72t-11.5 73t-3 70.5q0 103 18 180t45 120t66.5 69t74 33.5t75.5 7.5q106 0 164.5 -52t69.5 -128zM172 227
q0 -26 5.5 -48.5t18.5 -45t40 -35.5t65 -13q65 0 97 39.5t32 102.5t-32 102.5t-97 39.5q-72 0 -100.5 -42.5t-28.5 -99.5z" />
    <glyph glyph-name="seven" unicode="7" 
d="M117 106h68q28 112 60 189q72 172 199 299h-300v-99h-104v205h530v-88q-125 -129 -196 -299q-44 -102 -62 -207h76v-106h-271v106z" />
    <glyph glyph-name="eight" unicode="8" 
d="M169 375q-93 41 -93 154q0 36 9.5 66.5t32.5 60.5t69.5 47.5t112.5 17.5t112.5 -17.5t69.5 -47.5t32.5 -60.5t9.5 -66.5q0 -113 -93 -154q44 -13 79 -55.5t35 -123.5q0 -54 -17 -94.5t-42.5 -63t-60.5 -36.5t-64.5 -18.5t-60.5 -4.5t-60.5 4.5t-64.5 18.5t-60.5 36.5
t-42.5 63t-17 94.5q0 81 35 123.5t79 55.5zM300 424q56 0 80 29.5t24 67.5q0 13 -3.5 26.5t-13 30t-32 27t-55.5 10.5t-55.5 -10.5t-32 -27t-13 -30t-3.5 -26.5q0 -38 24 -67.5t80 -29.5zM300 85q58 0 86.5 34.5t28.5 82.5q0 45 -26.5 80.5t-88.5 35.5t-88.5 -35.5
t-26.5 -80.5q0 -48 28.5 -82.5t86.5 -34.5z" />
    <glyph glyph-name="nine" unicode="9" 
d="M45 159h123q17 -74 111 -74q144 0 153 203h-2q-46 -63 -158 -63q-108 0 -170 63t-62 179q0 119 69.5 186.5t189.5 67.5q57 0 101 -15t71 -42.5t45.5 -59t27 -72t11.5 -73t3 -70.5q0 -104 -18 -180.5t-44.5 -119.5t-65.5 -69t-74 -33.5t-77 -7.5q-106 0 -164.5 52
t-69.5 128zM428 473q0 57 -28.5 99.5t-100.5 42.5q-65 0 -97 -39.5t-32 -102.5t32 -102.5t97 -39.5q38 0 65 13t40 35.5t18.5 45t5.5 48.5z" />
    <glyph glyph-name="colon" unicode=":" horiz-adv-x="344" 
d="M106 373v135h132v-135h-132zM106 0v135h132v-135h-132z" />
    <glyph glyph-name="semicolon" unicode=";" horiz-adv-x="344" 
d="M106 373v135h132v-135h-132zM106 135h132v-139q0 -78 -38.5 -113.5t-93.5 -40.5v69q30 2 48.5 23.5t18.5 54.5v11h-67v135z" />
    <glyph glyph-name="less" unicode="&#x3c;" 
d="M122 342l433 -237l-40 -72l-494 278v62l494 278l40 -72z" />
    <glyph glyph-name="equal" unicode="=" 
d="M50 488h500v-86h-500v86zM50 288h500v-86h-500v86z" />
    <glyph glyph-name="greater" unicode="&#x3e;" 
d="M478 342l-433 237l40 72l494 -278v-62l-494 -278l-40 72z" />
    <glyph glyph-name="question" unicode="?" horiz-adv-x="576" 
d="M215 0v135h132v-135h-132zM176 484h-123q-1 39 8 76.5t33 75.5t75 61.5t123 23.5q119 0 175 -57t56 -139q0 -56 -24.5 -91t-70.5 -71q-59 -45 -77 -68t-18 -62v-18h-100q0 55 6.5 82t35.5 61q12 14 46 41.5t53 54.5t19 63q0 43 -25 70.5t-78 27.5q-52 0 -84.5 -30
t-29.5 -101z" />
    <glyph glyph-name="at" unicode="@" horiz-adv-x="860" 
d="M581 94l35 -63q-86 -52 -185 -52q-159 0 -265 99.5t-106 272.5q0 165 105 267.5t266 102.5q92 0 164 -28.5t116 -78t66.5 -111.5t22.5 -132q0 -95 -52 -159.5t-134 -64.5q-76 0 -97 43q-31 -49 -107 -49q-72 0 -122.5 49t-50.5 148q0 84 42.5 140.5t123.5 56.5
q65 0 98 -42h2v28h100v-237q0 -55 28 -55q32 0 60.5 34t28.5 108q0 41 -9.5 79.5t-31.5 75t-54.5 64.5t-82.5 44.5t-111 16.5q-129 0 -210 -85.5t-81 -214.5q0 -132 81 -217t210 -85q85 0 150 45zM491 337q0 116 -70 116q-41 0 -60 -33.5t-19 -82.5q0 -114 78 -114
q71 0 71 114z" />
    <glyph glyph-name="A" unicode="A" horiz-adv-x="726" 
d="M207 599v101h225l224 -594h70v-106h-269v96h65l-21 61h-274l-21 -61h57v-96h-263v106h80l187 493h-60zM363 574l-106 -314h210z" />
    <glyph glyph-name="B" unicode="B" horiz-adv-x="736" 
d="M55 594v106h394q64 0 109 -16.5t67.5 -44t32 -56t9.5 -60.5q0 -58 -32.5 -99.5t-83.5 -50.5v-2q25 -4 47.5 -14.5t46 -29.5t37.5 -53t14 -78q0 -196 -261 -196h-380v106h69v488h-69zM252 310v-204h175q65 0 101 22.5t36 81.5q0 33 -12.5 54.5t-35.5 30.5t-42 12t-44 3
h-178zM252 594v-178h169q114 0 114 83q0 95 -117 95h-166z" />
    <glyph glyph-name="C" unicode="C" horiz-adv-x="733" 
d="M569 700h106v-225h-106q-7 55 -51 97.5t-133 42.5q-56 0 -97 -21.5t-63.5 -60.5t-32.5 -85.5t-10 -104.5q0 -121 59.5 -189.5t156.5 -68.5q81 0 123.5 45.5t46.5 108.5h127q-4 -36 -13 -68.5t-30.5 -69t-53.5 -62.5t-85 -43t-121 -17q-19 0 -37 1t-55 8.5t-67.5 20
t-67 39.5t-61.5 63.5t-42 95t-17 131.5q0 104 26.5 180.5t74 119.5t104.5 63t126 20q126 0 193 -80v59z" />
    <glyph glyph-name="D" unicode="D" horiz-adv-x="785" 
d="M55 594v106h343q82 0 145.5 -23t100 -57.5t59.5 -83t30.5 -92.5t7.5 -92q0 -89 -26 -156t-64 -103t-91 -58.5t-96 -28.5t-91 -6h-318v106h69v488h-69zM252 594v-488h115q26 0 49 2.5t60.5 16.5t63 38t45 72.5t19.5 114.5q0 60 -15.5 106t-38.5 71.5t-54 41t-56.5 20.5
t-52.5 5h-135z" />
    <glyph glyph-name="E" unicode="E" horiz-adv-x="690" 
d="M55 594v106h594v-225h-106v119h-291v-182h245v-106h-245v-200h302v136h106v-242h-605v106h69v488h-69z" />
    <glyph glyph-name="F" unicode="F" horiz-adv-x="640" 
d="M55 594v106h565v-225h-106v119h-262v-192h224v-106h-224v-190h69v-106h-266v106h69v488h-69z" />
    <glyph glyph-name="G" unicode="G" horiz-adv-x="793" 
d="M412 269v106h365v-106h-79v-269h-92v95h-2q-60 -116 -220 -116q-65 0 -122.5 18.5t-107.5 58.5t-79.5 113t-29.5 172q0 94 23 165t57 111t81.5 64.5t87.5 32t84 7.5q61 0 111.5 -23t81.5 -61v63h106v-225h-106q-8 52 -52 96t-130 44q-51 0 -89.5 -18.5t-60.5 -46
t-35.5 -65.5t-17.5 -71.5t-4 -70.5q0 -74 21.5 -127.5t56 -80t69 -38.5t69.5 -12q27 0 55 7.5t58.5 25.5t50.5 57t21 94h-171z" />
    <glyph glyph-name="H" unicode="H" horiz-adv-x="819" 
d="M498 0v106h69v208h-315v-208h69v-106h-266v106h69v488h-69v106h266v-106h-69v-174h315v174h-69v106h266v-106h-69v-488h69v-106h-266z" />
    <glyph glyph-name="I" unicode="I" horiz-adv-x="376" 
d="M55 594v106h266v-106h-69v-488h69v-106h-266v106h69v488h-69z" />
    <glyph glyph-name="J" unicode="J" horiz-adv-x="580" 
d="M271 594v106h274v-106h-69v-346q0 -43 -3 -74t-16 -70.5t-36 -64.5t-67 -42.5t-105 -17.5q-67 0 -114 20t-71 54.5t-34 71t-10 79.5v39h128v-29q0 -129 102 -129q48 0 73 27.5t25 119.5v362h-77z" />
    <glyph glyph-name="K" unicode="K" horiz-adv-x="684" 
d="M272 348l186 246h-51v106h262v-106h-68l-192 -237l210 -251h60v-106h-269v106h55zM252 594v-488h69v-106h-266v106h69v488h-69v106h266v-106h-69z" />
    <glyph glyph-name="L" unicode="L" horiz-adv-x="616" 
d="M55 594v106h266v-106h-69v-488h238v158h106v-264h-541v106h69v488h-69z" />
    <glyph glyph-name="M" unicode="M" horiz-adv-x="1040" 
d="M724 0v106h64v421l2 27h-2l-220 -554h-96l-220 554h-2l2 -27v-421h64v-106h-261v106h69v488h-69v106h262l205 -531l205 531h258v-106h-69v-488h69v-106h-261z" />
    <glyph glyph-name="N" unicode="N" horiz-adv-x="848" 
d="M527 594v106h266v-106h-69v-594h-136l-336 497v-391h69v-106h-266v106h69v488h-69v106h205l336 -497v391h-69z" />
    <glyph glyph-name="O" unicode="O" horiz-adv-x="776" 
d="M45 350q0 74 16.5 134.5t40.5 98t59.5 65.5t65.5 41.5t67 21t55.5 9t38.5 1.5t38.5 -1.5t55.5 -9t67 -21t65.5 -41.5t59.5 -65.5t40.5 -98t16.5 -134.5t-16.5 -134.5t-40.5 -98t-59.5 -65.5t-65.5 -41.5t-67 -21t-55.5 -9t-38.5 -1.5t-38.5 1.5t-55.5 9t-67 21
t-65.5 41.5t-59.5 65.5t-40.5 98t-16.5 134.5zM182 350q0 -46 8.5 -88t29.5 -84t64 -67.5t104 -25.5t104 25.5t64 67.5t29.5 84t8.5 88t-8.5 88t-29.5 84t-64 67.5t-104 25.5t-104 -25.5t-64 -67.5t-29.5 -84t-8.5 -88z" />
    <glyph glyph-name="P" unicode="P" horiz-adv-x="702" 
d="M55 594v106h341q38 0 72 -4.5t73.5 -18.5t67.5 -37t47 -64t19 -95q0 -97 -69.5 -160t-210.5 -63h-143v-152h69v-106h-266v106h69v488h-69zM252 594v-230h142q25 0 48.5 5t47.5 16.5t38.5 35.5t14.5 58q0 37 -15.5 61.5t-41 35t-47 14.5t-44.5 4h-143z" />
    <glyph glyph-name="Q" unicode="Q" horiz-adv-x="776" 
d="M630 70l72 -92l-69 -62l-80 101q-57 -38 -165 -38q-20 0 -39 1.5t-55.5 9t-66.5 21t-65.5 41.5t-59.5 66t-40.5 98t-16.5 134t16.5 134.5t40.5 98t59.5 65.5t65.5 41.5t67 21t55.5 9t38.5 1.5q19 0 37 -1.5t54.5 -9t67.5 -21t66.5 -41.5t60 -65.5t41 -98t16.5 -134.5
q0 -189 -101 -280zM479 264l72 -92q43 66 43 178q0 46 -8.5 88t-29.5 84t-64 67.5t-104 25.5t-104 -25.5t-64 -67.5t-29.5 -84t-8.5 -88t8.5 -87.5t29.5 -84t64 -68t104 -25.5t94 24l-77 97z" />
    <glyph glyph-name="R" unicode="R" horiz-adv-x="760" 
d="M540 0l-141 278h-147v-172h69v-106h-266v106h69v488h-69v106h373q30 0 60.5 -4t68.5 -17t66 -34t47.5 -58.5t19.5 -87.5q0 -71 -35.5 -127.5t-120.5 -78.5l92 -187h84v-106h-170zM252 594v-210h157q60 0 104.5 24t44.5 81q0 32 -15 54.5t-39.5 32.5t-46 14t-45.5 4h-160z
" />
    <glyph glyph-name="S" unicode="S" horiz-adv-x="684" 
d="M501 700h106v-195h-106q-5 33 -23.5 57t-44 34.5t-46 14.5t-38.5 4q-135 0 -135 -91q0 -26 12.5 -44t38 -29t47.5 -16.5t58 -11.5q69 -12 112 -25t82 -37t57 -63t18 -95q0 -224 -279 -224q-60 0 -113.5 20t-81.5 52v-51h-106v229h106q1 -23 10.5 -45.5t29.5 -46t58.5 -38
t90.5 -14.5q148 0 148 105q0 30 -12.5 51t-35.5 32t-38.5 16t-39.5 9q-53 9 -82 17q-49 10 -84 23t-67.5 35.5t-49 59.5t-16.5 88q0 46 14.5 82t40 56.5t51.5 34t59 19t51.5 7t39.5 1.5q49 0 97 -18t71 -45v42z" />
    <glyph glyph-name="T" unicode="T" horiz-adv-x="690" 
d="M212 0v106h69v488h-160v-150h-106v256h660v-256h-106v150h-160v-488h69v-106h-266z" />
    <glyph glyph-name="U" unicode="U" horiz-adv-x="786" 
d="M485 594v106h266v-106h-69v-325q0 -29 -2 -52t-8.5 -54.5t-18.5 -55.5t-33.5 -49t-51.5 -41.5t-74.5 -27t-100.5 -10.5t-100.5 10.5t-74.5 27t-51.5 41.5t-33.5 49t-18.5 55.5t-8.5 54.5t-2 52v325h-69v106h266v-106h-69v-305q0 -107 36.5 -155.5t124.5 -48.5t124.5 48.5
t36.5 155.5v305h-69z" />
    <glyph glyph-name="V" unicode="V" horiz-adv-x="699" 
d="M0 594v106h271v-106h-64l145 -463l147 463h-61v106h261v-106h-70l-207 -594h-148l-208 594h-66z" />
    <glyph glyph-name="W" unicode="W" horiz-adv-x="1019" 
d="M755 594v106h264v-106h-63l-161 -594h-162l-124 549l-124 -549h-162l-161 594h-62v106h268v-106h-63l111 -446l123 552h144l123 -552l110 446h-61z" />
    <glyph glyph-name="X" unicode="X" horiz-adv-x="697" 
d="M32 594v106h272v-106h-53l102 -150l106 150h-47v106h257v-106h-62l-177 -236l196 -252h61v-106h-267v106h43l-120 169l-120 -169h46v-106h-259v106h62l198 252l-177 236h-61z" />
    <glyph glyph-name="Y" unicode="Y" horiz-adv-x="643" 
d="M0 594v106h269v-106h-56l112 -201l111 201h-56v106h263v-106h-65l-192 -315v-173h69v-106h-266v106h69v173l-193 315h-65z" />
    <glyph glyph-name="Z" unicode="Z" horiz-adv-x="635" 
d="M492 246h106v-246h-561v114l378 480h-253v-119h-106v225h520v-98l-378 -496h294v140z" />
    <glyph glyph-name="bracketleft" unicode="[" horiz-adv-x="389" 
d="M106 700h230v-82h-112v-721h112v-82h-230v885z" />
    <glyph glyph-name="backslash" unicode="\" horiz-adv-x="440" 
d="M440 -185h-82l-358 885h82z" />
    <glyph glyph-name="bracketright" unicode="]" horiz-adv-x="389" 
d="M53 700h230v-885h-230v82h112v721h-112v82z" />
    <glyph glyph-name="asciicircum" unicode="^" horiz-adv-x="482" 
d="M177 700h128l127 -218h-96l-95 168l-95 -168h-96z" />
    <glyph glyph-name="underscore" unicode="_" horiz-adv-x="494" 
d="M0 -185v82h494v-82h-494z" />
    <glyph glyph-name="grave" unicode="`" horiz-adv-x="340" 
d="M174 700l70 -132h-90l-110 132h130z" />
    <glyph glyph-name="a" unicode="a" horiz-adv-x="585" 
d="M393 0v63q-59 -75 -169 -75q-50 0 -87 11.5t-55.5 27.5t-29 38.5t-13 37.5t-2.5 32q0 37 14.5 65.5t36 43.5t37.5 22.5t29 10.5q17 5 36 8t43 6l39 5l49 7l28 4t17 6.5t12.5 16t2.5 28.5q0 88 -99 88q-62 0 -91 -27.5t-27 -67.5h-114q-2 76 56 126.5t176 50.5
q58 0 101 -13.5t65 -32t34.5 -45.5t15.5 -46.5t3 -42.5v-266h64v-82h-172zM381 226v18q-18 -13 -86 -21q-32 -4 -46.5 -6.5t-35 -8.5t-29.5 -14t-16 -22t-7 -33q0 -31 19.5 -50t59.5 -19q26 0 48 6t44.5 22t35.5 48.5t13 79.5z" />
    <glyph glyph-name="b" unicode="b" horiz-adv-x="668" 
d="M40 618v82h184v-244q14 25 38.5 41.5t53 22t42.5 7t26 1.5q57 0 101.5 -19t70 -47.5t42 -67t22 -73t5.5 -70.5q0 -71 -21.5 -125t-58 -85t-78 -46t-87.5 -15q-108 0 -164 70h-2v-50h-174v82h64v536h-64zM215 253q0 -88 35 -139.5t100 -51.5q24 0 46 7t46.5 25t39.5 58.5
t15 97.5q0 101 -40.5 148.5t-101.5 47.5q-23 0 -44.5 -7.5t-44.5 -26.5t-37 -60t-14 -99z" />
    <glyph glyph-name="c" unicode="c" horiz-adv-x="578" 
d="M519 339h-84q-4 43 -37.5 75t-91.5 32q-135 0 -135 -193q0 -56 13 -96t34.5 -59.5t43.5 -27.5t46 -8q59 0 86 38.5t30 85.5h114q-3 -25 -10 -50t-24.5 -54t-42.5 -51t-67.5 -36.5t-95.5 -14.5q-126 0 -190.5 74t-64.5 199q0 62 13 110.5t36 77t47.5 47.5t55.5 27t51 10.5
t42 2.5q99 0 149 -61v41h82v-169z" />
    <glyph glyph-name="d" unicode="d" horiz-adv-x="668" 
d="M628 82v-82h-174v50h-2q-55 -70 -164 -70q-47 0 -89 15t-78 46t-57 85t-21 125q0 76 23.5 136.5t79.5 100.5t138 40q12 0 26 -1.5t42.5 -7t53 -22t38.5 -41.5v162h-64v82h184v-618h64zM171 250q0 -60 16 -100.5t41 -58t45.5 -23.5t40.5 -6q64 0 101.5 53t37.5 138
q0 58 -14 99t-37 60t-44.5 26.5t-44.5 7.5q-61 0 -101.5 -47.5t-40.5 -148.5z" />
    <glyph glyph-name="e" unicode="e" horiz-adv-x="594" 
d="M429 147h114q-6 -29 -18.5 -54.5t-38 -53t-73.5 -43.5t-112 -16q-24 0 -47.5 2.5t-64.5 17.5t-70.5 40.5t-52.5 79t-23 125.5q0 133 65.5 208t193.5 75q237 0 248 -276q0 -6 0.5 -15t0.5 -14h-380q0 -27 7 -53t22 -51.5t44 -41t67 -15.5q43 0 77.5 22.5t40.5 62.5z
M171 305h253q0 21 -4.5 42t-16.5 45t-37.5 39t-62.5 15q-65 0 -99.5 -43t-32.5 -98z" />
    <glyph glyph-name="f" unicode="f" horiz-adv-x="364" 
d="M44 0v82h70v344h-74v82h74v64q0 27 5 47t20 41.5t48 33t84 11.5q45 0 83 -5v-82q-22 2 -52 2q-24 0 -39.5 -7t-21 -19.5t-6.5 -19.5t-1 -18v-48h84v-82h-84v-344h70v-82h-260z" />
    <glyph glyph-name="g" unicode="g" horiz-adv-x="672" 
d="M458 508h174v-82h-64v-403q0 -105 -67.5 -160.5t-189.5 -55.5q-201 0 -222 144h110q7 -32 41.5 -46t75.5 -14q44 0 72.5 13t40.5 36t15.5 42t3.5 43v39q-14 -25 -38.5 -41.5t-53 -22t-42.5 -7t-26 -1.5q-82 0 -138 38t-79.5 96t-23.5 131q0 71 21 125t57 85t78 46t89 15
q107 0 164 -70h2v50zM175 256q0 -47 11 -82.5t26.5 -53.5t37 -29.5t37 -14t31.5 -2.5q57 0 98 47.5t41 137.5q0 97 -40 142t-100 45q-67 0 -104.5 -50t-37.5 -140z" />
    <glyph glyph-name="h" unicode="h" horiz-adv-x="670" 
d="M382 0v82h64v220q0 25 -0.5 39.5t-5.5 37t-14.5 35t-28.5 22.5t-46 10q-13 0 -26 -2.5t-32.5 -12t-33.5 -26t-24.5 -48t-10.5 -73.5v-202h64v-82h-248v82h64v536h-64v82h184v-259q25 42 72 64.5t95 22.5q49 0 84.5 -17t52 -38t26 -51.5t11 -46.5t1.5 -35v-258h64v-82
h-248z" />
    <glyph glyph-name="i" unicode="i" horiz-adv-x="328" 
d="M40 426v82h184v-426h64v-82h-248v82h64v344h-64zM104 594v106h120v-106h-120z" />
    <glyph glyph-name="j" unicode="j" horiz-adv-x="278" 
d="M34 426v82h184v-535q0 -79 -28 -120.5t-115 -41.5q-41 0 -68 4v82q50 1 70.5 18.5t20.5 64.5v446h-64zM98 594v106h120v-106h-120z" />
    <glyph glyph-name="k" unicode="k" horiz-adv-x="578" 
d="M40 618v82h184v-618h60v-82h-244v82h64v536h-64zM239 257l146 169h-39v82h214v-82h-49l-151 -158l162 -186h56v-82h-138z" />
    <glyph glyph-name="l" unicode="l" horiz-adv-x="328" 
d="M40 618v82h184v-618h64v-82h-248v82h64v536h-64z" />
    <glyph glyph-name="m" unicode="m" horiz-adv-x="980" 
d="M369 0v82h61v230q0 28 -2.5 48t-11 41.5t-27 33t-47.5 11.5q-46 0 -82 -36t-36 -111v-217h61v-82h-245v82h64v344h-64v82h184v-63q23 40 67.5 61.5t90.5 21.5q56 0 89.5 -21t53.5 -71q57 92 181 92q170 0 170 -209v-237h64v-82h-245v82h61v230q0 28 -2.5 48t-11 41.5
t-27 33t-47.5 11.5q-46 0 -82 -36t-36 -111v-217h61v-82h-242z" />
    <glyph glyph-name="n" unicode="n" horiz-adv-x="670" 
d="M382 0v82h64v220q0 25 -0.5 39.5t-5.5 37t-14.5 35t-28.5 22.5t-46 10q-13 0 -26 -2.5t-32.5 -12t-33.5 -26t-24.5 -48t-10.5 -73.5v-202h64v-82h-248v82h64v344h-64v82h184v-67q25 42 72 64.5t95 22.5q49 0 84.5 -17t52 -38t26 -51.5t11 -46.5t1.5 -35v-258h64v-82h-248
z" />
    <glyph glyph-name="o" unicode="o" horiz-adv-x="610" 
d="M43 254q0 33 6 66t24 72t46 68t76 48.5t110 19.5t110 -19.5t76 -48.5t46 -68t24 -72t6 -66t-6 -66t-24 -72t-46 -68t-76 -48.5t-110 -19.5t-110 19.5t-76 48.5t-46 67.5t-24 72t-6 66.5zM171 254q0 -61 14 -102.5t37.5 -59.5t42.5 -24t40 -6t40 6t42.5 24t37.5 59.5
t14 102.5t-14 102.5t-37.5 59.5t-42.5 24t-40 6t-40 -6t-42.5 -24t-37.5 -59.5t-14 -102.5z" />
    <glyph glyph-name="p" unicode="p" horiz-adv-x="668" 
d="M40 426v82h174v-50h2q56 70 164 70q46 0 87.5 -15t78 -46t58 -85t21.5 -125q0 -36 -5.5 -70.5t-22 -73t-42 -67t-70 -47.5t-101.5 -19q-12 0 -26 1.5t-42.5 7t-53 22t-38.5 41.5v-155h64v-82h-248v82h64v529h-64zM215 253q0 -88 35 -139.5t100 -51.5q24 0 46 7t46.5 25
t39.5 58.5t15 97.5q0 101 -40.5 148.5t-101.5 47.5q-23 0 -44.5 -7.5t-44.5 -26.5t-37 -60t-14 -99z" />
    <glyph glyph-name="q" unicode="q" horiz-adv-x="668" 
d="M628 -103v-82h-248v82h64v155q-14 -25 -38.5 -41.5t-53 -22t-42.5 -7t-26 -1.5q-82 0 -138 40t-79.5 100.5t-23.5 136.5q0 71 21 125t57 85t78 46t89 15q107 0 164 -70h2v50h174v-82h-64v-529h64zM171 250q0 -60 16 -100.5t41 -58t45.5 -23.5t40.5 -6q64 0 101.5 53
t37.5 138q0 58 -14 99t-37 60t-44.5 26.5t-44.5 7.5q-61 0 -101.5 -47.5t-40.5 -148.5z" />
    <glyph glyph-name="r" unicode="r" horiz-adv-x="434" 
d="M40 426v82h184v-93h2q24 57 72.5 80t101.5 23h20v-78q-184 3 -195 -161q-1 -17 -1 -52v-145h64v-82h-248v82h64v344h-64z" />
    <glyph glyph-name="s" unicode="s" horiz-adv-x="550" 
d="M486 365h-86q-9 32 -40 56.5t-72 24.5q-95 0 -95 -63q0 -50 60 -67q17 -5 71 -14l40.5 -8t40.5 -10.5t41 -18t31.5 -26.5t24.5 -39.5t8 -53.5q0 -166 -207 -166q-113 0 -158 54v-34h-87v186h87q0 -54 39 -89t90 -35q50 0 80 16t30 63q0 33 -21 49.5t-73 25.5l-55 9
q-86 16 -126 51.5t-40 104.5q0 71 61 115q47 32 132 32q97 0 138 -52v32h86v-143z" />
    <glyph glyph-name="t" unicode="t" horiz-adv-x="342" 
d="M14 508h82v152h120v-152h106v-82h-106v-287q0 -23 2 -33.5t15.5 -20t41.5 -9.5q27 0 47 6v-82q-45 -12 -98 -12q-44 0 -72.5 11.5t-39 31.5t-13.5 34.5t-3 33.5v327h-82v82z" />
    <glyph glyph-name="u" unicode="u" horiz-adv-x="670" 
d="M630 82v-82h-184v67h-2q-23 -43 -70 -65t-99 -22q-40 0 -71 10.5t-48.5 30t-29 38.5t-16 43.5t-5.5 37.5t-1 28v258h-64v82h184v-302q0 -23 1 -38t6 -37t14.5 -35.5t28.5 -23.5t45 -10q35 0 61 15t38 34t19 46t8 40t1 27v202h-64v82h184v-426h64z" />
    <glyph glyph-name="v" unicode="v" horiz-adv-x="578" 
d="M-5 426v82h250v-82h-54l105 -312l101 312h-56v82h242v-82h-67l-156 -426h-140l-156 426h-69z" />
    <glyph glyph-name="w" unicode="w" horiz-adv-x="840" 
d="M597 426v82h248v-82h-64l-148 -426h-122l-90 371l-91 -371h-122l-149 426h-64v82h248v-82h-61l93 -290l90 372h112l89 -372l93 290h-62z" />
    <glyph glyph-name="x" unicode="x" horiz-adv-x="558" 
d="M322 0v82h37l-77 107l-85 -107h37v-82h-227v82h64l144 183l-131 161h-58v82h230v-82h-40l66 -89l71 89h-38v82h222v-82h-58l-131 -161l144 -183h59v-82h-229z" />
    <glyph glyph-name="y" unicode="y" horiz-adv-x="567" 
d="M-5 426v82h243v-82h-52l118 -296l94 296h-52v82h226v-82h-61l-216 -611h-171v82h92l35 94l-201 435h-55z" />
    <glyph glyph-name="z" unicode="z" horiz-adv-x="509" 
d="M476 0h-443v82l281 344h-181v-87h-82v169h403v-82l-281 -344h221v100h82v-182z" />
    <glyph glyph-name="braceleft" unicode="{" horiz-adv-x="366" 
d="M75 215v84q89 12 89 126q0 18 -2 43.5t-2 63.5q0 52 17.5 88.5t45 52t50 21.5t43.5 6v-66q-41 -19 -41 -83q0 -25 3 -52q4 -25 4 -57q0 -140 -131 -184v-2q130 -44 130 -186q0 -30 -3 -55q-3 -27 -3 -52q0 -64 41 -83v-66q-16 0 -33 2.5t-40 13t-40.5 27.5t-30 49.5
t-12.5 75.5q0 38 2 63.5t2 43.5q0 114 -89 126z" />
    <glyph glyph-name="bar" unicode="|" horiz-adv-x="498" 
d="M208 -224v1053h82v-1053h-82z" />
    <glyph glyph-name="braceright" unicode="}" horiz-adv-x="366" 
d="M291 299v-84q-89 -12 -89 -126q0 -18 2 -43.5t2 -63.5q0 -43 -12.5 -75.5t-30 -49.5t-40.5 -27.5t-40 -13t-33 -2.5v66q41 19 41 83q0 25 -3 52q-4 25 -4 57q0 140 131 184v2q-130 44 -130 186q0 30 3 55q3 27 3 52q0 64 -41 83v66q21 0 43.5 -6t50 -21.5t45 -52
t17.5 -88.5q0 -38 -2 -63.5t-2 -43.5q0 -114 89 -126z" />
    <glyph glyph-name="asciitilde" unicode="~" horiz-adv-x="614" 
d="M96 278l-46 19q49 142 140 142q52 0 90 -23l103 -55q25 -13 50 -13q56 0 85 84l46 -19q-49 -142 -140 -142q-52 0 -90 23l-103 55q-22 13 -52 13t-51 -24t-32 -60z" />
    <glyph glyph-name="Zcaron" horiz-adv-x="635" 
d="M492 246h106v-246h-561v114l378 480h-253v-119h-106v225h520v-98l-378 -496h294v140zM317 806l100 94h120l-134 -140h-172l-134 140h120z" />
    <glyph glyph-name="Zcaron" unicode="&#x17d;" horiz-adv-x="635" 
d="M492 246h106v-246h-561v114l378 480h-253v-119h-106v225h520v-98l-378 -496h294v140zM317 806l100 94h120l-134 -140h-172l-134 140h120z" />
    <glyph glyph-name="zcaron" horiz-adv-x="509" 
d="M476 0h-443v82l281 344h-181v-87h-82v169h403v-82l-281 -344h221v100h82v-182zM252 611l90 89h110l-120 -132h-160l-120 132h110z" />
    <glyph glyph-name="zcaron" unicode="&#x17e;" horiz-adv-x="509" 
d="M476 0h-443v82l281 344h-181v-87h-82v169h403v-82l-281 -344h221v100h82v-182zM252 611l90 89h110l-120 -132h-160l-120 132h110z" />
    <glyph glyph-name="uni00A0" unicode="&#xa0;" horiz-adv-x="233" 
 />
    <glyph glyph-name="exclamdown" unicode="&#xa1;" horiz-adv-x="344" 
d="M238 -192h-132v241l34 240h64l34 -240v-241zM238 508v-135h-132v135h132z" />
    <glyph glyph-name="cent" unicode="&#xa2;" 
d="M531 339h-84q-4 37 -29 66.5t-68 37.5v-378q44 11 63.5 46t22.5 75h114q-3 -30 -14 -59t-32 -61t-61 -54.5t-93 -29.5v-74h-67v73q-113 8 -170.5 80.5t-57.5 191.5q0 69 17 120.5t40.5 79.5t57.5 45.5t59 23t54 6.5v66h67v-71q62 -13 99 -56v41h82v-169zM183 253
q0 -161 100 -186v375q-100 -20 -100 -189z" />
    <glyph glyph-name="sterling" unicode="&#xa3;" 
d="M476 700h96v-226h-122v16q0 68 -35 108.5t-90 40.5q-64 0 -95 -39t-31 -94q0 -13 1.5 -25t7 -26.5l8.5 -22.5t12 -28.5t13 -28.5h130v-82h-98q3 -11 3 -41q0 -70 -67 -129l2 -4q22 11 65 11q29 0 78 -21.5t80 -21.5q47 0 85 53l61 -84q-72 -77 -149 -77q-48 0 -108 27
t-101 27q-57 0 -113 -38l-59 87q46 30 71 63t29 52.5t4 44.5q0 31 -12 51h-109v82h75q-37 53 -37 125q0 97 59.5 159t187.5 62q115 0 158 -74v53z" />
    <glyph glyph-name="currency" unicode="&#xa4;" 
d="M15 327q0 87 50 163l-106 107l72 72l105 -106q74 52 164 52t164 -52l106 106l72 -72l-107 -107q51 -75 51 -163q0 -90 -51 -165l107 -107l-72 -72l-107 107q-75 -51 -163 -51q-91 0 -161 50l-108 -106l-72 72l107 107q-51 75 -51 165zM101 327q0 -82 59 -142t141 -60
q81 0 140 60t59 142t-59 142t-140 60q-82 0 -141 -60t-59 -142z" />
    <glyph glyph-name="yen" unicode="&#xa5;" 
d="M475 222h-110v-39h110v-58h-110v-39h69v-86h-266v86h69v39h-110v58h110v39h-110v58h109l-182 314h-65v106h269v-106h-56l102 -211l101 211h-56v106h263v-106h-65l-182 -314h110v-58z" />
    <glyph glyph-name="brokenbar" unicode="&#xa6;" horiz-adv-x="498" 
d="M208 176h82v-400h-82v400zM290 429h-82v400h82v-400z" />
    <glyph glyph-name="section" unicode="&#xa7;" horiz-adv-x="584" 
d="M80 29h121q-3 -44 14.5 -71.5t56.5 -27.5q27 0 49.5 16t22.5 46q0 9 -2 17t-4 14t-7 13l-8 11t-11.5 9.5t-12 8t-13.5 7.5t-13.5 6.5t-15 7t-14.5 6.5q-87 38 -133 85.5t-46 131.5q0 54 30 97t75 57q-41 41 -41 103q0 67 40 111t129 44q22 0 56 -11.5t48 -36.5v27h96
v-146h-121q2 48 -20 66.5t-50 18.5q-31 0 -44.5 -19t-13.5 -41q0 -20 8 -36t27.5 -29.5t30.5 -19t39 -18.5q5 -2 25 -12t26.5 -13.5l24 -13.5t25 -17l21 -19t19.5 -23.5t13 -27t10 -34t3 -39.5q0 -121 -113 -164q57 -38 57 -111q0 -66 -44 -110t-138 -44q-79 0 -106 49v-34
h-96v166zM252 219l85 -49q55 33 55 87q0 65 -61 95l-87 49q-52 -25 -52 -84q0 -68 60 -98z" />
    <glyph glyph-name="dieresis" unicode="&#xa8;" horiz-adv-x="406" 
d="M50 594v106h116v-106h-116zM240 594v106h116v-106h-116z" />
    <glyph glyph-name="copyright" unicode="&#xa9;" horiz-adv-x="800" 
d="M50 350q0 145 102 247.5t248 102.5q144 0 247 -102.5t103 -247.5t-103 -247.5t-247 -102.5q-146 0 -248 102.5t-102 247.5zM130 350q0 -115 78.5 -197.5t191.5 -82.5q110 0 189.5 82t79.5 198t-79.5 198t-189.5 82q-113 0 -191.5 -82.5t-78.5 -197.5zM473 531h63v-107
h-76q0 22 -16 37.5t-44 15.5q-78 0 -78 -126q0 -117 83 -117q57 0 60 63h80q-5 -50 -37.5 -87.5t-103.5 -37.5q-83 0 -126.5 49t-43.5 130q0 103 47 145.5t113 42.5q54 0 79 -32v24z" />
    <glyph glyph-name="ordfeminine" unicode="&#xaa;" horiz-adv-x="400" 
d="M123 615h-62q0 42 30.5 74t105.5 32q43 0 71.5 -10.5t39 -29.5t13.5 -32t3 -31v-160h31v-54h-87v38q-33 -42 -108 -42q-109 0 -109 90q0 49 31.5 68t103.5 28q4 0 11.5 0.5t12 1t11 1t10.5 1.5t9 2.5t8 3.5t5.5 4.5t4.5 6t2 7.5v8q0 45 -64 45q-39 0 -56.5 -15t-16.5 -37
zM260 533v19q-12 -8 -63 -13q-3 0 -16.5 -2t-19 -3t-16 -4.5t-15.5 -8t-9 -12t-4 -17.5q0 -38 57 -38q8 0 18.5 2t28 8.5t28.5 24.5t11 44zM45 300v54h310v-54h-310z" />
    <glyph glyph-name="guillemotleft" unicode="&#xab;" horiz-adv-x="462" 
d="M116 270l95 -81v-106l-149 132v110l149 132v-106zM292 270l95 -81v-106l-149 132v110l149 132v-106z" />
    <glyph glyph-name="logicalnot" unicode="&#xac;" 
d="M50 405h500v-225h-86v139h-414v86z" />
    <glyph glyph-name="uni00AD" unicode="&#xad;" horiz-adv-x="420" 
d="M70 216v106h280v-106h-280z" />
    <glyph glyph-name="registered" unicode="&#xae;" horiz-adv-x="634" 
d="M50 433q0 110 78.5 188.5t188.5 78.5t188.5 -78.5t78.5 -188.5t-78.5 -188.5t-188.5 -78.5t-188.5 78.5t-78.5 188.5zM363 314l-54 96h-30v-52h21v-44h-107v44h26v161h-26v44h159q31 0 57 -19.5t26 -55.5q0 -23 -16 -43t-45 -28l38 -59h27v-44h-76zM279 519v-67h34
q49 0 49 35q0 32 -54 32h-29zM119 432q0 -84 56.5 -142t140.5 -58q83 0 140.5 58t57.5 142t-57.5 143t-140.5 59t-140 -59t-57 -143z" />
    <glyph glyph-name="overscore" unicode="&#xaf;" horiz-adv-x="430" 
d="M50 602v82h330v-82h-330z" />
    <glyph glyph-name="degree" unicode="&#xb0;" horiz-adv-x="300" 
d="M50 600q0 42 29 71t71 29q41 0 70.5 -29.5t29.5 -70.5q0 -42 -29 -71t-71 -29q-43 0 -71.5 28.5t-28.5 71.5zM104 600q0 -20 13 -33t33 -13t33 13t13 33t-13 33t-33 13t-33 -13t-13 -33z" />
    <glyph glyph-name="plusminus" unicode="&#xb1;" 
d="M50 463h207v187h86v-187h207v-86h-207v-167h-86v167h-207v86zM50 166h500v-86h-500v86z" />
    <glyph glyph-name="twosuperior" unicode="&#xb2;" horiz-adv-x="372" 
d="M204 420l-11 -7l-10.5 -6.5t-9.5 -6l-10 -6.5t-8.5 -6.5t-8.5 -7.5t-7.5 -8t-7.5 -9t-6.5 -9.5t-6.5 -11.5h162v69h62v-131h-307q1 37 10 64t31.5 50t37.5 34t52 34q9 6 14 9q2 1 11 7t11.5 8l10.5 8t11.5 9t10 9.5t9.5 11l7.5 11.5t6.5 13t3.5 14t1.5 16q0 27 -17.5 50
t-59.5 23q-81 0 -81 -80v-12h-70v13q0 56 35.5 98.5t116.5 42.5q73 0 111.5 -38t38.5 -93q0 -18 -3 -33.5t-12.5 -30l-15 -23t-23 -22l-23 -17.5t-29 -19t-27.5 -17z" />
    <glyph glyph-name="threesuperior" unicode="&#xb3;" horiz-adv-x="372" 
d="M34 415h70q0 -31 17.5 -58.5t62.5 -27.5q42 0 61 20t19 52q0 22 -9 37t-24 20t-23.5 6.5t-17.5 1.5h-31v64h27q70 0 70 65q0 29 -20.5 42.5t-50.5 13.5q-32 0 -50 -19t-20 -67h-70q0 63 32.5 105.5t109.5 42.5q59 0 99 -29t40 -87q0 -70 -72 -93v-4q84 -12 84 -103
q0 -66 -44.5 -98t-110.5 -32q-42 0 -73 14.5t-46.5 38.5t-22.5 47.5t-7 47.5z" />
    <glyph glyph-name="acute" unicode="&#xb4;" horiz-adv-x="340" 
d="M166 700h130l-110 -132h-90z" />
    <glyph glyph-name="mu" unicode="&#xb5;" horiz-adv-x="670" 
d="M331 71q39 0 65 19.5t35.5 51.5t12 52t2.5 42v190h-64v82h184v-426h64v-82h-184v67h-2q-38 -87 -122 -87q-71 0 -98 65v-230h-120v611h-64v82h184v-284q0 -153 107 -153z" />
    <glyph glyph-name="mu" unicode="&#x3bc;" horiz-adv-x="670" 
d="M331 71q39 0 65 19.5t35.5 51.5t12 52t2.5 42v190h-64v82h184v-426h64v-82h-184v67h-2q-38 -87 -122 -87q-71 0 -98 65v-230h-120v611h-64v82h184v-284q0 -153 107 -153z" />
    <glyph glyph-name="paragraph" unicode="&#xb6;" horiz-adv-x="561" 
d="M388 -185v803h-107v-803h-82v525q-81 0 -130 50.5t-49 129.5q0 86 48.5 133t130.5 47h352v-82h-81v-803h-82z" />
    <glyph glyph-name="middot" unicode="&#xb7;" horiz-adv-x="250" 
d="M59 200v135h132v-135h-132z" />
    <glyph glyph-name="cedilla" unicode="&#xb8;" horiz-adv-x="320" 
d="M50 -232l19 61q28 -9 58 -9q53 0 53 34q0 28 -52 28h-43l18 60h46q121 0 121 -90q0 -92 -141 -92q-39 0 -79 8z" />
    <glyph glyph-name="onesuperior" unicode="&#xb9;" horiz-adv-x="372" 
d="M85 638v62h157v-358h83v-62h-240v62h83v296h-83z" />
    <glyph glyph-name="ordmasculine" unicode="&#xba;" horiz-adv-x="390" 
d="M45 557q0 26 6 51t20.5 52t46.5 44t77 17t77 -17t46.5 -44t20.5 -52t6 -51t-6 -51t-20.5 -52t-46.5 -44t-77 -17t-77 17t-46.5 44t-20.5 52t-6 51zM113 557q0 -110 82 -110t82 110t-82 110t-82 -110zM45 300v54h300v-54h-300z" />
    <glyph glyph-name="guillemotright" unicode="&#xbb;" horiz-adv-x="462" 
d="M345 270l-94 81v106l149 -132v-110l-149 -132v106zM169 270l-94 81v106l149 -132v-110l-149 -132v106z" />
    <glyph glyph-name="onequarter" unicode="&#xbc;" horiz-adv-x="851" 
d="M599 0v57h58v42h-202v57l202 264h74v-264h60v-57h-60v-42h58v-57h-190zM528 156h129v171zM167 0l428 700h72l-428 -700h-72zM55 638v62h157v-358h83v-62h-240v62h83v296h-83z" />
    <glyph glyph-name="onehalf" unicode="&#xbd;" horiz-adv-x="840" 
d="M167 0l428 700h72l-428 -700h-72zM55 638v62h157v-358h83v-62h-240v62h83v296h-83zM672 140l-11 -7l-10.5 -6.5t-9.5 -6l-10 -6.5t-8.5 -6.5t-8.5 -7.5t-7.5 -8t-7.5 -9t-6.5 -9.5t-6.5 -11.5h162v69h62v-131h-307q1 37 10 64t31.5 50t37.5 34t52 34q9 6 14 9q2 1 11 7
t11.5 8l10.5 8t11.5 9t10 9.5t9.5 11l7.5 11.5t6.5 13t3.5 14t1.5 16q0 27 -17.5 50t-59.5 23q-81 0 -81 -80v-12h-70v13q0 56 35.5 98.5t116.5 42.5q73 0 111.5 -38t38.5 -93q0 -18 -3 -33.5t-12.5 -30l-15 -23t-23 -22l-23 -17.5t-29 -19t-27.5 -17z" />
    <glyph glyph-name="threequarters" unicode="&#xbe;" horiz-adv-x="876" 
d="M624 0v57h58v42h-202v57l202 264h74v-264h60v-57h-60v-42h58v-57h-190zM553 156h129v171zM34 415h70q0 -31 17.5 -58.5t62.5 -27.5q42 0 61 20t19 52q0 22 -9 37t-24 20t-23.5 6.5t-17.5 1.5h-31v64h27q70 0 70 65q0 29 -20.5 42.5t-50.5 13.5q-32 0 -50 -19t-20 -67h-70
q0 63 32.5 105.5t109.5 42.5q59 0 99 -29t40 -87q0 -70 -72 -93v-4q84 -12 84 -103q0 -66 -44.5 -98t-110.5 -32q-42 0 -73 14.5t-46.5 38.5t-22.5 47.5t-7 47.5zM202 0l428 700h72l-428 -700h-72z" />
    <glyph glyph-name="questiondown" unicode="&#xbf;" horiz-adv-x="576" 
d="M360 508v-135h-132v135h132zM399 24h123q1 -39 -8 -76.5t-33 -75.5t-75 -61.5t-123 -23.5q-119 0 -175 57t-56 139q0 56 24.5 91t70.5 71q59 45 77 68t18 62v18h100q0 -55 -6.5 -82t-35.5 -61q-12 -14 -46 -41.5t-53 -54.5t-19 -63q0 -43 25 -70.5t78 -27.5q52 0 84.5 30
t29.5 101z" />
    <glyph glyph-name="Agrave" unicode="&#xc0;" horiz-adv-x="726" 
d="M207 599v101h225l224 -594h70v-106h-269v96h65l-21 61h-274l-21 -61h57v-96h-263v106h80l187 493h-60zM363 574l-106 -314h210zM344 900l78 -140h-96l-118 140h136z" />
    <glyph glyph-name="Aacute" unicode="&#xc1;" horiz-adv-x="726" 
d="M207 599v101h225l224 -594h70v-106h-269v96h65l-21 61h-274l-21 -61h57v-96h-263v106h80l187 493h-60zM363 574l-106 -314h210zM375 900h136l-118 -140h-96z" />
    <glyph glyph-name="Acircumflex" unicode="&#xc2;" horiz-adv-x="726" 
d="M207 599v101h225l224 -594h70v-106h-269v96h65l-21 61h-274l-21 -61h57v-96h-263v106h80l187 493h-60zM363 574l-106 -314h210zM348 854l-100 -94h-120l134 140h172l134 -140h-120z" />
    <glyph glyph-name="Atilde" unicode="&#xc3;" horiz-adv-x="726" 
d="M207 599v101h225l224 -594h70v-106h-269v96h65l-21 61h-274l-21 -61h57v-96h-263v106h80l187 493h-60zM363 574l-106 -314h210zM479 876h80q-25 -116 -129 -116q-34 0 -85 22q-54 22 -77 22q-46 0 -51 -36h-80q7 48 39 82t90 34q38 0 85 -20l22 -9t18.5 -8t16 -5t20.5 -2
q45 0 51 36z" />
    <glyph glyph-name="Adieresis" unicode="&#xc4;" horiz-adv-x="726" 
d="M207 599v101h225l224 -594h70v-106h-269v96h65l-21 61h-274l-21 -61h57v-96h-263v106h80l187 493h-60zM363 574l-106 -314h210zM165 772v96h128v-96h-128zM403 772v96h128v-96h-128z" />
    <glyph glyph-name="Aring" unicode="&#xc5;" horiz-adv-x="726" 
d="M207 599v101h225l224 -594h70v-106h-269v96h65l-21 61h-274l-21 -61h57v-96h-263v106h80l187 493h-60zM363 574l-106 -314h210zM248 820q0 42 29 71t71 29q41 0 70.5 -29.5t29.5 -70.5q0 -42 -29 -71t-71 -29q-43 0 -71.5 28.5t-28.5 71.5zM304 820q0 -18 13 -31t31 -13
t31 13t13 31t-13 31t-31 13t-31 -13t-13 -31z" />
    <glyph glyph-name="AE" unicode="&#xc6;" horiz-adv-x="1088" 
d="M283 594v106h764v-225h-106v119h-291v-182h245v-106h-245v-200h302v136h106v-242h-605v96h69v58h-278l-32 -58h62v-96h-274v106h75l277 488h-69zM522 260v334h-42l-180 -334h222z" />
    <glyph glyph-name="Ccedilla" unicode="&#xc7;" horiz-adv-x="733" 
d="M569 700h106v-225h-106q-7 55 -51 97.5t-133 42.5q-56 0 -97 -21.5t-63.5 -60.5t-32.5 -85.5t-10 -104.5q0 -121 59.5 -189.5t156.5 -68.5q81 0 123.5 45.5t46.5 108.5h127q-4 -36 -13 -68.5t-30.5 -69t-53.5 -62.5t-85 -43t-121 -17q-19 0 -37 1t-55 8.5t-67.5 20
t-67 39.5t-61.5 63.5t-42 95t-17 131.5q0 104 26.5 180.5t74 119.5t104.5 63t126 20q126 0 193 -80v59zM249 -251l21 68q31 -10 64 -10q59 0 59 37q0 31 -54 31h-3h-48l20 67h51q134 0 134 -100q0 -102 -156 -102q-44 0 -88 9z" />
    <glyph glyph-name="Egrave" unicode="&#xc8;" horiz-adv-x="690" 
d="M55 594v106h594v-225h-106v119h-291v-182h245v-106h-245v-200h302v136h106v-242h-605v106h69v488h-69zM361 900l78 -140h-96l-118 140h136z" />
    <glyph glyph-name="Eacute" unicode="&#xc9;" horiz-adv-x="690" 
d="M55 594v106h594v-225h-106v119h-291v-182h245v-106h-245v-200h302v136h106v-242h-605v106h69v488h-69zM355 900h136l-118 -140h-96z" />
    <glyph glyph-name="Ecircumflex" unicode="&#xca;" horiz-adv-x="690" 
d="M55 594v106h594v-225h-106v119h-291v-182h245v-106h-245v-200h302v136h106v-242h-605v106h69v488h-69zM358 854l-100 -94h-120l134 140h172l134 -140h-120z" />
    <glyph glyph-name="Edieresis" unicode="&#xcb;" horiz-adv-x="690" 
d="M55 594v106h594v-225h-106v119h-291v-182h245v-106h-245v-200h302v136h106v-242h-605v106h69v488h-69zM175 772v96h128v-96h-128zM413 772v96h128v-96h-128z" />
    <glyph glyph-name="Igrave" unicode="&#xcc;" horiz-adv-x="376" 
d="M55 594v106h266v-106h-69v-488h69v-106h-266v106h69v488h-69zM171 900l78 -140h-96l-118 140h136z" />
    <glyph glyph-name="Iacute" unicode="&#xcd;" horiz-adv-x="376" 
d="M55 594v106h266v-106h-69v-488h69v-106h-266v106h69v488h-69zM198 900h136l-118 -140h-96z" />
    <glyph glyph-name="Icircumflex" unicode="&#xce;" horiz-adv-x="376" 
d="M55 594v106h266v-106h-69v-488h69v-106h-266v106h69v488h-69zM189 854l-100 -94h-120l134 140h172l134 -140h-120z" />
    <glyph glyph-name="Idieresis" unicode="&#xcf;" horiz-adv-x="376" 
d="M55 594v106h266v-106h-69v-488h69v-106h-266v106h69v488h-69zM6 772v96h128v-96h-128zM244 772v96h128v-96h-128z" />
    <glyph glyph-name="Eth" unicode="&#xd0;" horiz-adv-x="785" 
d="M55 594v106h343q82 0 145.5 -23t100 -57.5t59.5 -83t30.5 -92.5t7.5 -92q0 -89 -26 -156t-64 -103t-91 -58.5t-96 -28.5t-91 -6h-318v106h69v225h-94v82h94v181h-69zM252 594v-181h198v-82h-198v-225h115q26 0 49 2.5t60.5 16.5t63 38t45 72.5t19.5 114.5q0 60 -15.5 106
t-38.5 71.5t-54 41t-56.5 20.5t-52.5 5h-135z" />
    <glyph glyph-name="Ntilde" unicode="&#xd1;" horiz-adv-x="848" 
d="M527 594v106h266v-106h-69v-594h-136l-336 497v-391h69v-106h-266v106h69v488h-69v106h205l336 -497v391h-69zM555 876h80q-25 -116 -129 -116q-34 0 -85 22q-54 22 -77 22q-46 0 -51 -36h-80q7 48 39 82t90 34q38 0 85 -20l22 -9t18.5 -8t16 -5t20.5 -2q45 0 51 36z" />
    <glyph glyph-name="Ograve" unicode="&#xd2;" horiz-adv-x="776" 
d="M45 350q0 74 16.5 134.5t40.5 98t59.5 65.5t65.5 41.5t67 21t55.5 9t38.5 1.5t38.5 -1.5t55.5 -9t67 -21t65.5 -41.5t59.5 -65.5t40.5 -98t16.5 -134.5t-16.5 -134.5t-40.5 -98t-59.5 -65.5t-65.5 -41.5t-67 -21t-55.5 -9t-38.5 -1.5t-38.5 1.5t-55.5 9t-67 21
t-65.5 41.5t-59.5 65.5t-40.5 98t-16.5 134.5zM182 350q0 -46 8.5 -88t29.5 -84t64 -67.5t104 -25.5t104 25.5t64 67.5t29.5 84t8.5 88t-8.5 88t-29.5 84t-64 67.5t-104 25.5t-104 -25.5t-64 -67.5t-29.5 -84t-8.5 -88zM391 900l78 -140h-96l-118 140h136z" />
    <glyph glyph-name="Oacute" unicode="&#xd3;" horiz-adv-x="776" 
d="M45 350q0 74 16.5 134.5t40.5 98t59.5 65.5t65.5 41.5t67 21t55.5 9t38.5 1.5t38.5 -1.5t55.5 -9t67 -21t65.5 -41.5t59.5 -65.5t40.5 -98t16.5 -134.5t-16.5 -134.5t-40.5 -98t-59.5 -65.5t-65.5 -41.5t-67 -21t-55.5 -9t-38.5 -1.5t-38.5 1.5t-55.5 9t-67 21
t-65.5 41.5t-59.5 65.5t-40.5 98t-16.5 134.5zM182 350q0 -46 8.5 -88t29.5 -84t64 -67.5t104 -25.5t104 25.5t64 67.5t29.5 84t8.5 88t-8.5 88t-29.5 84t-64 67.5t-104 25.5t-104 -25.5t-64 -67.5t-29.5 -84t-8.5 -88zM385 900h136l-118 -140h-96z" />
    <glyph glyph-name="Ocircumflex" unicode="&#xd4;" horiz-adv-x="776" 
d="M45 350q0 74 16.5 134.5t40.5 98t59.5 65.5t65.5 41.5t67 21t55.5 9t38.5 1.5t38.5 -1.5t55.5 -9t67 -21t65.5 -41.5t59.5 -65.5t40.5 -98t16.5 -134.5t-16.5 -134.5t-40.5 -98t-59.5 -65.5t-65.5 -41.5t-67 -21t-55.5 -9t-38.5 -1.5t-38.5 1.5t-55.5 9t-67 21
t-65.5 41.5t-59.5 65.5t-40.5 98t-16.5 134.5zM182 350q0 -46 8.5 -88t29.5 -84t64 -67.5t104 -25.5t104 25.5t64 67.5t29.5 84t8.5 88t-8.5 88t-29.5 84t-64 67.5t-104 25.5t-104 -25.5t-64 -67.5t-29.5 -84t-8.5 -88zM388 854l-100 -94h-120l134 140h172l134 -140h-120z
" />
    <glyph glyph-name="Otilde" unicode="&#xd5;" horiz-adv-x="776" 
d="M45 350q0 74 16.5 134.5t40.5 98t59.5 65.5t65.5 41.5t67 21t55.5 9t38.5 1.5t38.5 -1.5t55.5 -9t67 -21t65.5 -41.5t59.5 -65.5t40.5 -98t16.5 -134.5t-16.5 -134.5t-40.5 -98t-59.5 -65.5t-65.5 -41.5t-67 -21t-55.5 -9t-38.5 -1.5t-38.5 1.5t-55.5 9t-67 21
t-65.5 41.5t-59.5 65.5t-40.5 98t-16.5 134.5zM182 350q0 -46 8.5 -88t29.5 -84t64 -67.5t104 -25.5t104 25.5t64 67.5t29.5 84t8.5 88t-8.5 88t-29.5 84t-64 67.5t-104 25.5t-104 -25.5t-64 -67.5t-29.5 -84t-8.5 -88zM519 876h80q-25 -116 -129 -116q-34 0 -85 22
q-54 22 -77 22q-46 0 -51 -36h-80q7 48 39 82t90 34q38 0 85 -20l22 -9t18.5 -8t16 -5t20.5 -2q45 0 51 36z" />
    <glyph glyph-name="Odieresis" unicode="&#xd6;" horiz-adv-x="776" 
d="M45 350q0 74 16.5 134.5t40.5 98t59.5 65.5t65.5 41.5t67 21t55.5 9t38.5 1.5t38.5 -1.5t55.5 -9t67 -21t65.5 -41.5t59.5 -65.5t40.5 -98t16.5 -134.5t-16.5 -134.5t-40.5 -98t-59.5 -65.5t-65.5 -41.5t-67 -21t-55.5 -9t-38.5 -1.5t-38.5 1.5t-55.5 9t-67 21
t-65.5 41.5t-59.5 65.5t-40.5 98t-16.5 134.5zM182 350q0 -46 8.5 -88t29.5 -84t64 -67.5t104 -25.5t104 25.5t64 67.5t29.5 84t8.5 88t-8.5 88t-29.5 84t-64 67.5t-104 25.5t-104 -25.5t-64 -67.5t-29.5 -84t-8.5 -88zM205 772v96h128v-96h-128zM443 772v96h128v-96h-128z
" />
    <glyph glyph-name="multiply" unicode="&#xd7;" 
d="M56 166l183 183l-183 183l61 61l183 -183l183 183l61 -61l-183 -183l183 -183l-61 -61l-183 183l-183 -183z" />
    <glyph glyph-name="Oslash" unicode="&#xd8;" horiz-adv-x="796" 
d="M751 722l-90 -111q80 -95 80 -261q0 -213 -131 -311q-84 -60 -212 -60q-130 0 -206 56l-87 -107l-60 50l90 110q-80 102 -80 262q0 213 131 311q84 60 212 60q140 0 206 -56l87 107zM222 195l306 376q-54 44 -130 44q-61 0 -104 -25.5t-64 -67.5t-29.5 -84t-8.5 -88
q0 -91 30 -155zM574 505l-306 -376q52 -44 130 -44q61 0 104 25.5t64 68t29.5 84t8.5 87.5q0 91 -30 155z" />
    <glyph glyph-name="Ugrave" unicode="&#xd9;" horiz-adv-x="786" 
d="M485 594v106h266v-106h-69v-325q0 -29 -2 -52t-8.5 -54.5t-18.5 -55.5t-33.5 -49t-51.5 -41.5t-74.5 -27t-100.5 -10.5t-100.5 10.5t-74.5 27t-51.5 41.5t-33.5 49t-18.5 55.5t-8.5 54.5t-2 52v325h-69v106h266v-106h-69v-305q0 -107 36.5 -155.5t124.5 -48.5t124.5 48.5
t36.5 155.5v305h-69zM396 900l78 -140h-96l-118 140h136z" />
    <glyph glyph-name="Uacute" unicode="&#xda;" horiz-adv-x="786" 
d="M485 594v106h266v-106h-69v-325q0 -29 -2 -52t-8.5 -54.5t-18.5 -55.5t-33.5 -49t-51.5 -41.5t-74.5 -27t-100.5 -10.5t-100.5 10.5t-74.5 27t-51.5 41.5t-33.5 49t-18.5 55.5t-8.5 54.5t-2 52v325h-69v106h266v-106h-69v-305q0 -107 36.5 -155.5t124.5 -48.5t124.5 48.5
t36.5 155.5v305h-69zM390 900h136l-118 -140h-96z" />
    <glyph glyph-name="Ucircumflex" unicode="&#xdb;" horiz-adv-x="786" 
d="M485 594v106h266v-106h-69v-325q0 -29 -2 -52t-8.5 -54.5t-18.5 -55.5t-33.5 -49t-51.5 -41.5t-74.5 -27t-100.5 -10.5t-100.5 10.5t-74.5 27t-51.5 41.5t-33.5 49t-18.5 55.5t-8.5 54.5t-2 52v325h-69v106h266v-106h-69v-305q0 -107 36.5 -155.5t124.5 -48.5t124.5 48.5
t36.5 155.5v305h-69zM393 854l-100 -94h-120l134 140h172l134 -140h-120z" />
    <glyph glyph-name="Udieresis" unicode="&#xdc;" horiz-adv-x="786" 
d="M485 594v106h266v-106h-69v-325q0 -29 -2 -52t-8.5 -54.5t-18.5 -55.5t-33.5 -49t-51.5 -41.5t-74.5 -27t-100.5 -10.5t-100.5 10.5t-74.5 27t-51.5 41.5t-33.5 49t-18.5 55.5t-8.5 54.5t-2 52v325h-69v106h266v-106h-69v-305q0 -107 36.5 -155.5t124.5 -48.5t124.5 48.5
t36.5 155.5v305h-69zM210 772v96h128v-96h-128zM448 772v96h128v-96h-128z" />
    <glyph glyph-name="Yacute" unicode="&#xdd;" horiz-adv-x="643" 
d="M0 594v106h269v-106h-56l112 -201l111 201h-56v106h263v-106h-65l-192 -315v-173h69v-106h-266v106h69v173l-193 315h-65zM349 900h136l-118 -140h-96z" />
    <glyph glyph-name="Thorn" unicode="&#xde;" horiz-adv-x="692" 
d="M55 604v96h266v-96h-69v-39h134q279 0 279 -209q0 -95 -69 -154t-211 -59h-133v-47h69v-96h-266v96h69v508h-69zM252 469v-230h132q25 0 48.5 5t47.5 16.5t38.5 35.5t14.5 58q0 37 -15.5 61.5t-41 35t-47 14.5t-44.5 4h-133z" />
    <glyph glyph-name="germandbls" unicode="&#xdf;" horiz-adv-x="627" 
d="M104 82v376q0 30 1 50t5.5 50t13.5 50.5t25.5 43t40 36.5t59.5 23t82 9q97 0 150.5 -46t53.5 -136q0 -99 -90 -135v-2q26 -6 48.5 -17t46 -31.5t37.5 -57t14 -85.5q0 -60 -18.5 -104t-51.5 -68t-72.5 -35t-88.5 -11q-33 0 -59 8v82q24 -8 43 -8q64 0 93 41t29 100
q0 36 -11 62t-26.5 39t-38.5 21t-39.5 9.5t-38.5 1.5h-21v82h25q99 0 99 104t-91 104q-26 0 -45 -9t-29.5 -22t-16.5 -34.5t-7.5 -40.5t-1.5 -45v-487h-184v82h64z" />
    <glyph glyph-name="agrave" unicode="&#xe0;" horiz-adv-x="585" 
d="M393 0v63q-59 -75 -169 -75q-50 0 -87 11.5t-55.5 27.5t-29 38.5t-13 37.5t-2.5 32q0 37 14.5 65.5t36 43.5t37.5 22.5t29 10.5q17 5 36 8t43 6l39 5l49 7l28 4t17 6.5t12.5 16t2.5 28.5q0 88 -99 88q-62 0 -91 -27.5t-27 -67.5h-114q-2 76 56 126.5t176 50.5
q58 0 101 -13.5t65 -32t34.5 -45.5t15.5 -46.5t3 -42.5v-266h64v-82h-172zM381 226v18q-18 -13 -86 -21q-32 -4 -46.5 -6.5t-35 -8.5t-29.5 -14t-16 -22t-7 -33q0 -31 19.5 -50t59.5 -19q26 0 48 6t44.5 22t35.5 48.5t13 79.5zM292 700l70 -132h-90l-110 132h130z" />
    <glyph glyph-name="aacute" unicode="&#xe1;" horiz-adv-x="585" 
d="M393 0v63q-59 -75 -169 -75q-50 0 -87 11.5t-55.5 27.5t-29 38.5t-13 37.5t-2.5 32q0 37 14.5 65.5t36 43.5t37.5 22.5t29 10.5q17 5 36 8t43 6l39 5l49 7l28 4t17 6.5t12.5 16t2.5 28.5q0 88 -99 88q-62 0 -91 -27.5t-27 -67.5h-114q-2 76 56 126.5t176 50.5
q58 0 101 -13.5t65 -32t34.5 -45.5t15.5 -46.5t3 -42.5v-266h64v-82h-172zM381 226v18q-18 -13 -86 -21q-32 -4 -46.5 -6.5t-35 -8.5t-29.5 -14t-16 -22t-7 -33q0 -31 19.5 -50t59.5 -19q26 0 48 6t44.5 22t35.5 48.5t13 79.5zM284 700h130l-110 -132h-90z" />
    <glyph glyph-name="acircumflex" unicode="&#xe2;" horiz-adv-x="585" 
d="M393 0v63q-59 -75 -169 -75q-50 0 -87 11.5t-55.5 27.5t-29 38.5t-13 37.5t-2.5 32q0 37 14.5 65.5t36 43.5t37.5 22.5t29 10.5q17 5 36 8t43 6l39 5l49 7l28 4t17 6.5t12.5 16t2.5 28.5q0 88 -99 88q-62 0 -91 -27.5t-27 -67.5h-114q-2 76 56 126.5t176 50.5
q58 0 101 -13.5t65 -32t34.5 -45.5t15.5 -46.5t3 -42.5v-266h64v-82h-172zM381 226v18q-18 -13 -86 -21q-32 -4 -46.5 -6.5t-35 -8.5t-29.5 -14t-16 -22t-7 -33q0 -31 19.5 -50t59.5 -19q26 0 48 6t44.5 22t35.5 48.5t13 79.5zM288 657l-90 -89h-110l120 132h160l120 -132
h-110z" />
    <glyph glyph-name="atilde" unicode="&#xe3;" horiz-adv-x="585" 
d="M393 0v63q-59 -75 -169 -75q-50 0 -87 11.5t-55.5 27.5t-29 38.5t-13 37.5t-2.5 32q0 37 14.5 65.5t36 43.5t37.5 22.5t29 10.5q17 5 36 8t43 6l39 5l49 7l28 4t17 6.5t12.5 16t2.5 28.5q0 88 -99 88q-62 0 -91 -27.5t-27 -67.5h-114q-2 76 56 126.5t176 50.5
q58 0 101 -13.5t65 -32t34.5 -45.5t15.5 -46.5t3 -42.5v-266h64v-82h-172zM381 226v18q-18 -13 -86 -21q-32 -4 -46.5 -6.5t-35 -8.5t-29.5 -14t-16 -22t-7 -33q0 -31 19.5 -50t59.5 -19q26 0 48 6t44.5 22t35.5 48.5t13 79.5zM406 700h74q-8 -47 -41.5 -74.5t-76.5 -27.5
q-33 0 -77 22q-48 22 -69 22q-39 0 -46 -36h-74q6 42 38 72t80 30q35 0 77 -20q7 -3 18.5 -9t17 -8.5t14.5 -4.5t19 -2q39 0 46 36z" />
    <glyph glyph-name="adieresis" unicode="&#xe4;" horiz-adv-x="585" 
d="M393 0v63q-59 -75 -169 -75q-50 0 -87 11.5t-55.5 27.5t-29 38.5t-13 37.5t-2.5 32q0 37 14.5 65.5t36 43.5t37.5 22.5t29 10.5q17 5 36 8t43 6l39 5l49 7l28 4t17 6.5t12.5 16t2.5 28.5q0 88 -99 88q-62 0 -91 -27.5t-27 -67.5h-114q-2 76 56 126.5t176 50.5
q58 0 101 -13.5t65 -32t34.5 -45.5t15.5 -46.5t3 -42.5v-266h64v-82h-172zM381 226v18q-18 -13 -86 -21q-32 -4 -46.5 -6.5t-35 -8.5t-29.5 -14t-16 -22t-7 -33q0 -31 19.5 -50t59.5 -19q26 0 48 6t44.5 22t35.5 48.5t13 79.5zM135 594v106h116v-106h-116zM325 594v106h116
v-106h-116z" />
    <glyph glyph-name="aring" unicode="&#xe5;" horiz-adv-x="585" 
d="M393 0v63q-59 -75 -169 -75q-50 0 -87 11.5t-55.5 27.5t-29 38.5t-13 37.5t-2.5 32q0 37 14.5 65.5t36 43.5t37.5 22.5t29 10.5q17 5 36 8t43 6l39 5l49 7l28 4t17 6.5t12.5 16t2.5 28.5q0 88 -99 88q-62 0 -91 -27.5t-27 -67.5h-114q-2 76 56 126.5t176 50.5
q58 0 101 -13.5t65 -32t34.5 -45.5t15.5 -46.5t3 -42.5v-266h64v-82h-172zM381 226v18q-18 -13 -86 -21q-32 -4 -46.5 -6.5t-35 -8.5t-29.5 -14t-16 -22t-7 -33q0 -31 19.5 -50t59.5 -19q26 0 48 6t44.5 22t35.5 48.5t13 79.5zM194 634q0 38 28 66t66 28t66 -28t28 -66
t-28 -66t-66 -28t-66 28t-28 66zM244 634q0 -18 13 -31t31 -13t31 13t13 31t-13 31t-31 13t-31 -13t-13 -31z" />
    <glyph glyph-name="ae" unicode="&#xe6;" horiz-adv-x="930" 
d="M164 351h-114q-2 74 56.5 125.5t175.5 51.5q137 0 173 -79q57 79 183 79q25 0 49 -3t63 -19t67 -43t49 -82t21 -129v-29h-380q0 -27 7 -53t22 -51.5t44 -41t67 -15.5q43 0 77.5 22.5t40.5 62.5h114q-6 -29 -18.5 -54.5t-38 -53t-73.5 -43.5t-112 -16q-141 0 -198 92
q-51 -92 -215 -92q-187 0 -187 155q0 37 14.5 65.5t36 43.5t37.5 22.5t29 10.5q25 7 167 26l28 4t17 6.5t12.5 16t2.5 28.5q0 88 -99 88q-62 0 -91 -27.5t-27 -67.5zM381 218v26q-18 -13 -86 -21q-32 -4 -47 -6.5t-35.5 -8.5t-29 -14t-15.5 -22t-7 -33q0 -34 19.5 -55.5
t59.5 -21.5q26 0 48 6t44.5 22t35.5 48.5t13 79.5zM507 305h253q0 21 -4.5 42t-16.5 45t-37.5 39t-62.5 15q-65 0 -99.5 -43t-32.5 -98z" />
    <glyph glyph-name="ccedilla" unicode="&#xe7;" horiz-adv-x="578" 
d="M519 339h-84q-4 43 -37.5 75t-91.5 32q-135 0 -135 -193q0 -56 13 -96t34.5 -59.5t43.5 -27.5t46 -8q59 0 86 38.5t30 85.5h114q-3 -25 -10 -50t-24.5 -54t-42.5 -51t-67.5 -36.5t-95.5 -14.5q-126 0 -190.5 74t-64.5 199q0 62 13 110.5t36 77t47.5 47.5t55.5 27t51 10.5
t42 2.5q99 0 149 -61v41h82v-169zM182 -232l19 61q28 -9 58 -9q53 0 53 34q0 28 -52 28h-43l18 60h46q121 0 121 -90q0 -92 -141 -92q-39 0 -79 8z" />
    <glyph glyph-name="egrave" unicode="&#xe8;" horiz-adv-x="594" 
d="M429 147h114q-6 -29 -18.5 -54.5t-38 -53t-73.5 -43.5t-112 -16q-24 0 -47.5 2.5t-64.5 17.5t-70.5 40.5t-52.5 79t-23 125.5q0 133 65.5 208t193.5 75q237 0 248 -276q0 -6 0.5 -15t0.5 -14h-380q0 -27 7 -53t22 -51.5t44 -41t67 -15.5q43 0 77.5 22.5t40.5 62.5z
M171 305h253q0 21 -4.5 42t-16.5 45t-37.5 39t-62.5 15q-65 0 -99.5 -43t-32.5 -98zM301 700l70 -132h-90l-110 132h130z" />
    <glyph glyph-name="eacute" unicode="&#xe9;" horiz-adv-x="594" 
d="M429 147h114q-6 -29 -18.5 -54.5t-38 -53t-73.5 -43.5t-112 -16q-24 0 -47.5 2.5t-64.5 17.5t-70.5 40.5t-52.5 79t-23 125.5q0 133 65.5 208t193.5 75q237 0 248 -276q0 -6 0.5 -15t0.5 -14h-380q0 -27 7 -53t22 -51.5t44 -41t67 -15.5q43 0 77.5 22.5t40.5 62.5z
M171 305h253q0 21 -4.5 42t-16.5 45t-37.5 39t-62.5 15q-65 0 -99.5 -43t-32.5 -98zM293 700h130l-110 -132h-90z" />
    <glyph glyph-name="ecircumflex" unicode="&#xea;" horiz-adv-x="594" 
d="M429 147h114q-6 -29 -18.5 -54.5t-38 -53t-73.5 -43.5t-112 -16q-24 0 -47.5 2.5t-64.5 17.5t-70.5 40.5t-52.5 79t-23 125.5q0 133 65.5 208t193.5 75q237 0 248 -276q0 -6 0.5 -15t0.5 -14h-380q0 -27 7 -53t22 -51.5t44 -41t67 -15.5q43 0 77.5 22.5t40.5 62.5z
M171 305h253q0 21 -4.5 42t-16.5 45t-37.5 39t-62.5 15q-65 0 -99.5 -43t-32.5 -98zM297 657l-90 -89h-110l120 132h160l120 -132h-110z" />
    <glyph glyph-name="edieresis" unicode="&#xeb;" horiz-adv-x="594" 
d="M429 147h114q-6 -29 -18.5 -54.5t-38 -53t-73.5 -43.5t-112 -16q-24 0 -47.5 2.5t-64.5 17.5t-70.5 40.5t-52.5 79t-23 125.5q0 133 65.5 208t193.5 75q237 0 248 -276q0 -6 0.5 -15t0.5 -14h-380q0 -27 7 -53t22 -51.5t44 -41t67 -15.5q43 0 77.5 22.5t40.5 62.5z
M171 305h253q0 21 -4.5 42t-16.5 45t-37.5 39t-62.5 15q-65 0 -99.5 -43t-32.5 -98zM144 594v106h116v-106h-116zM334 594v106h116v-106h-116z" />
    <glyph glyph-name="igrave" unicode="&#xec;" horiz-adv-x="328" 
d="M40 426v82h184v-426h64v-82h-248v82h64v344h-64zM132 700l70 -132h-90l-110 132h130z" />
    <glyph glyph-name="iacute" unicode="&#xed;" horiz-adv-x="328" 
d="M40 426v82h184v-426h64v-82h-248v82h64v344h-64zM155 700h130l-110 -132h-90z" />
    <glyph glyph-name="icircumflex" unicode="&#xee;" horiz-adv-x="328" 
d="M40 426v82h184v-426h64v-82h-248v82h64v344h-64zM141 657l-90 -89h-110l120 132h160l120 -132h-110z" />
    <glyph glyph-name="idieresis" unicode="&#xef;" horiz-adv-x="328" 
d="M40 426v82h184v-426h64v-82h-248v82h64v344h-64zM-6 594v106h116v-106h-116zM184 594v106h116v-106h-116z" />
    <glyph glyph-name="eth" unicode="&#xf0;" horiz-adv-x="625" 
d="M332 594l-14 6l-127 -75l-26 42l94 55q-66 21 -110 28l18 88q87 -6 199 -53l89 53l27 -41l-64 -38q164 -99 164 -326q0 -25 -1.5 -49.5t-8 -61.5t-17.5 -68t-32 -64.5t-48.5 -56.5t-70 -38t-94.5 -15q-63 0 -111.5 18.5t-77 46.5t-47 64.5t-25 69.5t-6.5 65
q0 110 64.5 187t185.5 77q127 0 189 -104h4q-8 47 -43.5 99t-110.5 91zM449 244q0 99 -40 140.5t-99 41.5t-99 -41.5t-40 -140.5t40 -140.5t99 -41.5t99 41.5t40 140.5z" />
    <glyph glyph-name="ntilde" unicode="&#xf1;" horiz-adv-x="670" 
d="M382 0v82h64v220q0 25 -0.5 39.5t-5.5 37t-14.5 35t-28.5 22.5t-46 10q-13 0 -26 -2.5t-32.5 -12t-33.5 -26t-24.5 -48t-10.5 -73.5v-202h64v-82h-248v82h64v344h-64v82h184v-67q25 42 72 64.5t95 22.5q49 0 84.5 -17t52 -38t26 -51.5t11 -46.5t1.5 -35v-258h64v-82h-248
zM453 700h74q-8 -47 -41.5 -74.5t-76.5 -27.5q-33 0 -77 22q-48 22 -69 22q-39 0 -46 -36h-74q6 42 38 72t80 30q35 0 77 -20q7 -3 18.5 -9t17 -8.5t14.5 -4.5t19 -2q39 0 46 36z" />
    <glyph glyph-name="ograve" unicode="&#xf2;" horiz-adv-x="610" 
d="M43 254q0 33 6 66t24 72t46 68t76 48.5t110 19.5t110 -19.5t76 -48.5t46 -68t24 -72t6 -66t-6 -66t-24 -72t-46 -68t-76 -48.5t-110 -19.5t-110 19.5t-76 48.5t-46 67.5t-24 72t-6 66.5zM171 254q0 -61 14 -102.5t37.5 -59.5t42.5 -24t40 -6t40 6t42.5 24t37.5 59.5
t14 102.5t-14 102.5t-37.5 59.5t-42.5 24t-40 6t-40 -6t-42.5 -24t-37.5 -59.5t-14 -102.5zM309 700l70 -132h-90l-110 132h130z" />
    <glyph glyph-name="oacute" unicode="&#xf3;" horiz-adv-x="610" 
d="M43 254q0 33 6 66t24 72t46 68t76 48.5t110 19.5t110 -19.5t76 -48.5t46 -68t24 -72t6 -66t-6 -66t-24 -72t-46 -68t-76 -48.5t-110 -19.5t-110 19.5t-76 48.5t-46 67.5t-24 72t-6 66.5zM171 254q0 -61 14 -102.5t37.5 -59.5t42.5 -24t40 -6t40 6t42.5 24t37.5 59.5
t14 102.5t-14 102.5t-37.5 59.5t-42.5 24t-40 6t-40 -6t-42.5 -24t-37.5 -59.5t-14 -102.5zM301 700h130l-110 -132h-90z" />
    <glyph glyph-name="ocircumflex" unicode="&#xf4;" horiz-adv-x="610" 
d="M43 254q0 33 6 66t24 72t46 68t76 48.5t110 19.5t110 -19.5t76 -48.5t46 -68t24 -72t6 -66t-6 -66t-24 -72t-46 -68t-76 -48.5t-110 -19.5t-110 19.5t-76 48.5t-46 67.5t-24 72t-6 66.5zM171 254q0 -61 14 -102.5t37.5 -59.5t42.5 -24t40 -6t40 6t42.5 24t37.5 59.5
t14 102.5t-14 102.5t-37.5 59.5t-42.5 24t-40 6t-40 -6t-42.5 -24t-37.5 -59.5t-14 -102.5zM305 657l-90 -89h-110l120 132h160l120 -132h-110z" />
    <glyph glyph-name="otilde" unicode="&#xf5;" horiz-adv-x="610" 
d="M43 254q0 33 6 66t24 72t46 68t76 48.5t110 19.5t110 -19.5t76 -48.5t46 -68t24 -72t6 -66t-6 -66t-24 -72t-46 -68t-76 -48.5t-110 -19.5t-110 19.5t-76 48.5t-46 67.5t-24 72t-6 66.5zM171 254q0 -61 14 -102.5t37.5 -59.5t42.5 -24t40 -6t40 6t42.5 24t37.5 59.5
t14 102.5t-14 102.5t-37.5 59.5t-42.5 24t-40 6t-40 -6t-42.5 -24t-37.5 -59.5t-14 -102.5zM423 700h74q-8 -47 -41.5 -74.5t-76.5 -27.5q-33 0 -77 22q-48 22 -69 22q-39 0 -46 -36h-74q6 42 38 72t80 30q35 0 77 -20q7 -3 18.5 -9t17 -8.5t14.5 -4.5t19 -2q39 0 46 36z
" />
    <glyph glyph-name="odieresis" unicode="&#xf6;" horiz-adv-x="610" 
d="M43 254q0 33 6 66t24 72t46 68t76 48.5t110 19.5t110 -19.5t76 -48.5t46 -68t24 -72t6 -66t-6 -66t-24 -72t-46 -68t-76 -48.5t-110 -19.5t-110 19.5t-76 48.5t-46 67.5t-24 72t-6 66.5zM171 254q0 -61 14 -102.5t37.5 -59.5t42.5 -24t40 -6t40 6t42.5 24t37.5 59.5
t14 102.5t-14 102.5t-37.5 59.5t-42.5 24t-40 6t-40 -6t-42.5 -24t-37.5 -59.5t-14 -102.5zM152 594v106h116v-106h-116zM342 594v106h116v-106h-116z" />
    <glyph glyph-name="divide" unicode="&#xf7;" 
d="M230 529q0 29 20.5 49.5t49.5 20.5t49.5 -20.5t20.5 -49.5t-20.5 -49.5t-49.5 -20.5t-49.5 20.5t-20.5 49.5zM230 181q0 29 20.5 49.5t49.5 20.5t49.5 -20.5t20.5 -49.5t-20.5 -49.5t-49.5 -20.5t-49.5 20.5t-20.5 49.5zM50 312v86h500v-86h-500z" />
    <glyph glyph-name="oslash" unicode="&#xf8;" horiz-adv-x="604" 
d="M43 254q0 33 6 66t24 72t46 68t76 48.5t110 19.5q89 0 150 -40l54 65l55 -45l-56 -68q11 -12 22 -31t24 -62.5t13 -92.5q0 -33 -6 -66t-24 -72t-46 -68t-76 -48.5t-110 -19.5q-84 0 -147 38l-52 -63l-57 45l55 66q-61 73 -61 188zM171 254q0 -51 11 -94l209 251
q-37 35 -86 35q-21 0 -40.5 -6.5t-42.5 -24t-37 -59t-14 -102.5zM429 345l-207 -251q33 -32 83 -32q16 0 31 3t34.5 15t34 31.5t24.5 56.5t10 86q0 51 -10 91z" />
    <glyph glyph-name="ugrave" unicode="&#xf9;" horiz-adv-x="670" 
d="M630 82v-82h-184v67h-2q-23 -43 -70 -65t-99 -22q-40 0 -71 10.5t-48.5 30t-29 38.5t-16 43.5t-5.5 37.5t-1 28v258h-64v82h184v-302q0 -23 1 -38t6 -37t14.5 -35.5t28.5 -23.5t45 -10q35 0 61 15t38 34t19 46t8 40t1 27v202h-64v82h184v-426h64zM319 700l70 -132h-90
l-110 132h130z" />
    <glyph glyph-name="uacute" unicode="&#xfa;" horiz-adv-x="670" 
d="M630 82v-82h-184v67h-2q-23 -43 -70 -65t-99 -22q-40 0 -71 10.5t-48.5 30t-29 38.5t-16 43.5t-5.5 37.5t-1 28v258h-64v82h184v-302q0 -23 1 -38t6 -37t14.5 -35.5t28.5 -23.5t45 -10q35 0 61 15t38 34t19 46t8 40t1 27v202h-64v82h184v-426h64zM331 700h130l-110 -132
h-90z" />
    <glyph glyph-name="ucircumflex" unicode="&#xfb;" horiz-adv-x="670" 
d="M630 82v-82h-184v67h-2q-23 -43 -70 -65t-99 -22q-40 0 -71 10.5t-48.5 30t-29 38.5t-16 43.5t-5.5 37.5t-1 28v258h-64v82h184v-302q0 -23 1 -38t6 -37t14.5 -35.5t28.5 -23.5t45 -10q35 0 61 15t38 34t19 46t8 40t1 27v202h-64v82h184v-426h64zM335 657l-90 -89h-110
l120 132h160l120 -132h-110z" />
    <glyph glyph-name="udieresis" unicode="&#xfc;" horiz-adv-x="670" 
d="M630 82v-82h-184v67h-2q-23 -43 -70 -65t-99 -22q-40 0 -71 10.5t-48.5 30t-29 38.5t-16 43.5t-5.5 37.5t-1 28v258h-64v82h184v-302q0 -23 1 -38t6 -37t14.5 -35.5t28.5 -23.5t45 -10q35 0 61 15t38 34t19 46t8 40t1 27v202h-64v82h184v-426h64zM162 594v106h116v-106
h-116zM352 594v106h116v-106h-116z" />
    <glyph glyph-name="yacute" unicode="&#xfd;" horiz-adv-x="567" 
d="M-5 426v82h243v-82h-52l118 -296l94 296h-52v82h226v-82h-61l-216 -611h-171v82h92l35 94l-201 435h-55zM315 700h130l-110 -132h-90z" />
    <glyph glyph-name="thorn" unicode="&#xfe;" horiz-adv-x="668" 
d="M40 618v82h184v-242q53 70 156 70q46 0 88 -15.5t78 -46t57.5 -85t21.5 -124.5q0 -36 -5.5 -70.5t-22 -73t-42 -67t-70 -47.5t-101.5 -19q-12 0 -26 1.5t-42.5 7t-53 22t-38.5 41.5v-154h64v-82h-64v-1h-120v1h-64v82h64v720h-64zM215 253q0 -88 35 -139.5t100 -51.5
q24 0 46 7t46.5 25t39.5 58.5t15 97.5q0 101 -40.5 148.5t-101.5 47.5q-23 0 -44.5 -7.5t-44.5 -26.5t-37 -60t-14 -99z" />
    <glyph glyph-name="ydieresis" unicode="&#xff;" horiz-adv-x="567" 
d="M-5 426v82h243v-82h-52l118 -296l94 296h-52v82h226v-82h-61l-216 -611h-171v82h92l35 94l-201 435h-55zM138 594v106h116v-106h-116zM328 594v106h116v-106h-116z" />
    <glyph glyph-name="Amacron" unicode="&#x100;" horiz-adv-x="726" 
d="M207 599v101h225l224 -594h70v-106h-269v96h65l-21 61h-274l-21 -61h57v-96h-263v106h80l187 493h-60zM363 574l-106 -314h210zM172 760v80h330v-80h-330z" />
    <glyph glyph-name="amacron" unicode="&#x101;" horiz-adv-x="585" 
d="M393 0v63q-59 -75 -169 -75q-50 0 -87 11.5t-55.5 27.5t-29 38.5t-13 37.5t-2.5 32q0 37 14.5 65.5t36 43.5t37.5 22.5t29 10.5q17 5 36 8t43 6l39 5l49 7l28 4t17 6.5t12.5 16t2.5 28.5q0 88 -99 88q-62 0 -91 -27.5t-27 -67.5h-114q-2 76 56 126.5t176 50.5
q58 0 101 -13.5t65 -32t34.5 -45.5t15.5 -46.5t3 -42.5v-266h64v-82h-172zM381 226v18q-18 -13 -86 -21q-32 -4 -46.5 -6.5t-35 -8.5t-29.5 -14t-16 -22t-7 -33q0 -31 19.5 -50t59.5 -19q26 0 48 6t44.5 22t35.5 48.5t13 79.5zM123 602v82h330v-82h-330z" />
    <glyph glyph-name="Abreve" unicode="&#x102;" horiz-adv-x="726" 
d="M207 599v101h225l224 -594h70v-106h-269v96h65l-21 61h-274l-21 -61h57v-96h-263v106h80l187 493h-60zM363 574l-106 -314h210zM128 900h103q4 -38 33.5 -59.5t73.5 -21.5t73.5 21.5t33.5 59.5h103q-13 -68 -66.5 -110.5t-143.5 -42.5t-143.5 42.5t-66.5 110.5z" />
    <glyph glyph-name="abreve" unicode="&#x103;" horiz-adv-x="585" 
d="M393 0v63q-59 -75 -169 -75q-50 0 -87 11.5t-55.5 27.5t-29 38.5t-13 37.5t-2.5 32q0 37 14.5 65.5t36 43.5t37.5 22.5t29 10.5q17 5 36 8t43 6l39 5l49 7l28 4t17 6.5t12.5 16t2.5 28.5q0 88 -99 88q-62 0 -91 -27.5t-27 -67.5h-114q-2 76 56 126.5t176 50.5
q58 0 101 -13.5t65 -32t34.5 -45.5t15.5 -46.5t3 -42.5v-266h64v-82h-172zM381 226v18q-18 -13 -86 -21q-32 -4 -46.5 -6.5t-35 -8.5t-29.5 -14t-16 -22t-7 -33q0 -31 19.5 -50t59.5 -19q26 0 48 6t44.5 22t35.5 48.5t13 79.5zM383 700h102q-8 -55 -54.5 -99t-142.5 -44
t-142.5 44t-54.5 99h102q4 -34 30 -53.5t65 -19.5t65 19.5t30 53.5z" />
    <glyph glyph-name="Aogonek" unicode="&#x104;" horiz-adv-x="726" 
d="M597 0h-140v96h65l-21 61h-274l-21 -61h57v-96h-263v106h80l187 493h-60v101h225l224 -594h70v-106h-21q-43 -14 -66.5 -48.5t-23.5 -81.5q0 -30 15 -47.5t41 -17.5q27 0 40.5 18t12.5 44h86q-1 -13 -4.5 -25.5t-13.5 -32t-25.5 -34t-44.5 -25t-66 -10.5q-70 0 -104 37
t-34 89q0 39 20 76.5t59 57.5zM363 574l-106 -314h210z" />
    <glyph glyph-name="aogonek" unicode="&#x105;" horiz-adv-x="585" 
d="M393 0v63q-59 -75 -169 -75q-50 0 -87 11.5t-55.5 27.5t-29 38.5t-13 37.5t-2.5 32q0 37 14.5 65.5t36 43.5t37.5 22.5t29 10.5q17 5 36 8t43 6l39 5l49 7l28 4t17 6.5t12.5 16t2.5 28.5q0 88 -99 88q-62 0 -91 -27.5t-27 -67.5h-114q-2 76 56 126.5t176 50.5
q58 0 101 -13.5t65 -32t34.5 -45.5t15.5 -46.5t3 -42.5v-266h64v-82h-20q-39 -13 -61 -45t-22 -75q0 -27 13.5 -43.5t37.5 -16.5q25 0 37.5 17t11.5 40h80q-1 -11 -4 -23t-13 -30t-24.5 -31t-41 -23t-60.5 -10q-64 0 -95.5 34.5t-31.5 81.5q0 37 18 71t55 53h-52zM381 226
v18q-18 -13 -86 -21q-32 -4 -46.5 -6.5t-35 -8.5t-29.5 -14t-16 -22t-7 -33q0 -31 19.5 -50t59.5 -19q26 0 48 6t44.5 22t35.5 48.5t13 79.5z" />
    <glyph glyph-name="Cacute" unicode="&#x106;" horiz-adv-x="733" 
d="M569 700h106v-225h-106q-7 55 -51 97.5t-133 42.5q-56 0 -97 -21.5t-63.5 -60.5t-32.5 -85.5t-10 -104.5q0 -121 59.5 -189.5t156.5 -68.5q81 0 123.5 45.5t46.5 108.5h127q-4 -36 -13 -68.5t-30.5 -69t-53.5 -62.5t-85 -43t-121 -17q-19 0 -37 1t-55 8.5t-67.5 20
t-67 39.5t-61.5 63.5t-42 95t-17 131.5q0 104 26.5 180.5t74 119.5t104.5 63t126 20q126 0 193 -80v59zM393 900h136l-118 -140h-96z" />
    <glyph glyph-name="cacute" unicode="&#x107;" horiz-adv-x="578" 
d="M519 339h-84q-4 43 -37.5 75t-91.5 32q-135 0 -135 -193q0 -56 13 -96t34.5 -59.5t43.5 -27.5t46 -8q59 0 86 38.5t30 85.5h114q-3 -25 -10 -50t-24.5 -54t-42.5 -51t-67.5 -36.5t-95.5 -14.5q-126 0 -190.5 74t-64.5 199q0 62 13 110.5t36 77t47.5 47.5t55.5 27t51 10.5
t42 2.5q99 0 149 -61v41h82v-169zM303 700h130l-110 -132h-90z" />
    <glyph glyph-name="Ccircumflex" unicode="&#x108;" horiz-adv-x="733" 
d="M569 700h106v-225h-106q-7 55 -51 97.5t-133 42.5q-56 0 -97 -21.5t-63.5 -60.5t-32.5 -85.5t-10 -104.5q0 -121 59.5 -189.5t156.5 -68.5q81 0 123.5 45.5t46.5 108.5h127q-4 -36 -13 -68.5t-30.5 -69t-53.5 -62.5t-85 -43t-121 -17q-19 0 -37 1t-55 8.5t-67.5 20
t-67 39.5t-61.5 63.5t-42 95t-17 131.5q0 104 26.5 180.5t74 119.5t104.5 63t126 20q126 0 193 -80v59zM370 854l-100 -94h-120l134 140h172l134 -140h-120z" />
    <glyph glyph-name="ccircumflex" unicode="&#x109;" horiz-adv-x="578" 
d="M519 339h-84q-4 43 -37.5 75t-91.5 32q-135 0 -135 -193q0 -56 13 -96t34.5 -59.5t43.5 -27.5t46 -8q59 0 86 38.5t30 85.5h114q-3 -25 -10 -50t-24.5 -54t-42.5 -51t-67.5 -36.5t-95.5 -14.5q-126 0 -190.5 74t-64.5 199q0 62 13 110.5t36 77t47.5 47.5t55.5 27t51 10.5
t42 2.5q99 0 149 -61v41h82v-169zM287 657l-90 -89h-110l120 132h160l120 -132h-110z" />
    <glyph glyph-name="Cdotaccent" unicode="&#x10a;" horiz-adv-x="733" 
d="M569 700h106v-225h-106q-7 55 -51 97.5t-133 42.5q-56 0 -97 -21.5t-63.5 -60.5t-32.5 -85.5t-10 -104.5q0 -121 59.5 -189.5t156.5 -68.5q81 0 123.5 45.5t46.5 108.5h127q-4 -36 -13 -68.5t-30.5 -69t-53.5 -62.5t-85 -43t-121 -17q-19 0 -37 1t-55 8.5t-67.5 20
t-67 39.5t-61.5 63.5t-42 95t-17 131.5q0 104 26.5 180.5t74 119.5t104.5 63t126 20q126 0 193 -80v59zM306 772v100h128v-100h-128z" />
    <glyph glyph-name="cdotaccent" unicode="&#x10b;" horiz-adv-x="578" 
d="M519 339h-84q-4 43 -37.5 75t-91.5 32q-135 0 -135 -193q0 -56 13 -96t34.5 -59.5t43.5 -27.5t46 -8q59 0 86 38.5t30 85.5h114q-3 -25 -10 -50t-24.5 -54t-42.5 -51t-67.5 -36.5t-95.5 -14.5q-126 0 -190.5 74t-64.5 199q0 62 13 110.5t36 77t47.5 47.5t55.5 27t51 10.5
t42 2.5q99 0 149 -61v41h82v-169zM229 594v106h120v-106h-120z" />
    <glyph glyph-name="Ccaron" unicode="&#x10c;" horiz-adv-x="733" 
d="M569 700h106v-225h-106q-7 55 -51 97.5t-133 42.5q-56 0 -97 -21.5t-63.5 -60.5t-32.5 -85.5t-10 -104.5q0 -121 59.5 -189.5t156.5 -68.5q81 0 123.5 45.5t46.5 108.5h127q-4 -36 -13 -68.5t-30.5 -69t-53.5 -62.5t-85 -43t-121 -17q-19 0 -37 1t-55 8.5t-67.5 20
t-67 39.5t-61.5 63.5t-42 95t-17 131.5q0 104 26.5 180.5t74 119.5t104.5 63t126 20q126 0 193 -80v59zM376 806l100 94h120l-134 -140h-172l-134 140h120z" />
    <glyph glyph-name="ccaron" unicode="&#x10d;" horiz-adv-x="578" 
d="M519 339h-84q-4 43 -37.5 75t-91.5 32q-135 0 -135 -193q0 -56 13 -96t34.5 -59.5t43.5 -27.5t46 -8q59 0 86 38.5t30 85.5h114q-3 -25 -10 -50t-24.5 -54t-42.5 -51t-67.5 -36.5t-95.5 -14.5q-126 0 -190.5 74t-64.5 199q0 62 13 110.5t36 77t47.5 47.5t55.5 27t51 10.5
t42 2.5q99 0 149 -61v41h82v-169zM287 611l90 89h110l-120 -132h-160l-120 132h110z" />
    <glyph glyph-name="Dcaron" unicode="&#x10e;" horiz-adv-x="785" 
d="M55 594v106h343q82 0 145.5 -23t100 -57.5t59.5 -83t30.5 -92.5t7.5 -92q0 -89 -26 -156t-64 -103t-91 -58.5t-96 -28.5t-91 -6h-318v106h69v488h-69zM252 594v-488h115q26 0 49 2.5t60.5 16.5t63 38t45 72.5t19.5 114.5q0 60 -15.5 106t-38.5 71.5t-54 41t-56.5 20.5
t-52.5 5h-135zM369 806l100 94h120l-134 -140h-172l-134 140h120z" />
    <glyph glyph-name="dcaron" unicode="&#x10f;" horiz-adv-x="777" 
d="M628 82v-82h-174v50h-2q-55 -70 -164 -70q-47 0 -89 15t-78 46t-57 85t-21 125q0 76 23.5 136.5t79.5 100.5t138 40q12 0 26 -1.5t42.5 -7t53 -22t38.5 -41.5v162h-64v82h184v-618h64zM171 250q0 -60 16 -100.5t41 -58t45.5 -23.5t40.5 -6q64 0 101.5 53t37.5 138
q0 58 -14 99t-37 60t-44.5 26.5t-44.5 7.5q-61 0 -101.5 -47.5t-40.5 -148.5zM635 700h132v-139q0 -78 -38.5 -113.5t-93.5 -40.5v69q30 2 48.5 23.5t18.5 54.5v11h-67v135z" />
    <glyph glyph-name="Dcroat" unicode="&#x110;" horiz-adv-x="785" 
d="M55 594v106h343q82 0 145.5 -23t100 -57.5t59.5 -83t30.5 -92.5t7.5 -92q0 -89 -26 -156t-64 -103t-91 -58.5t-96 -28.5t-91 -6h-318v106h69v225h-94v82h94v181h-69zM252 594v-181h198v-82h-198v-225h115q26 0 49 2.5t60.5 16.5t63 38t45 72.5t19.5 114.5q0 60 -15.5 106
t-38.5 71.5t-54 41t-56.5 20.5t-52.5 5h-135z" />
    <glyph glyph-name="dslash" unicode="&#x111;" horiz-adv-x="668" 
d="M628 82v-82h-174v50h-2q-55 -70 -164 -70q-47 0 -89 13.5t-78 42.5t-57 81.5t-21 123.5q0 76 23.5 136.5t79.5 100.5t138 40q12 0 26 -1.5t42.5 -7t53 -22t38.5 -41.5v100h-180v54h180v28h-64v72h184v-100h80v-54h-80v-464h64zM171 240q0 -56 15 -94.5t39.5 -55t45 -22.5
t43.5 -6q59 0 99 49.5t40 131.5q0 58 -14 99t-37 60t-44.5 26.5t-44.5 7.5q-61 0 -101.5 -47.5t-40.5 -148.5z" />
    <glyph glyph-name="Emacron" unicode="&#x112;" horiz-adv-x="690" 
d="M55 594v106h594v-225h-106v119h-291v-182h245v-106h-245v-200h302v136h106v-242h-605v106h69v488h-69zM193 760v80h330v-80h-330z" />
    <glyph glyph-name="emacron" unicode="&#x113;" horiz-adv-x="594" 
d="M429 147h114q-6 -29 -18.5 -54.5t-38 -53t-73.5 -43.5t-112 -16q-24 0 -47.5 2.5t-64.5 17.5t-70.5 40.5t-52.5 79t-23 125.5q0 133 65.5 208t193.5 75q237 0 248 -276q0 -6 0.5 -15t0.5 -14h-380q0 -27 7 -53t22 -51.5t44 -41t67 -15.5q43 0 77.5 22.5t40.5 62.5z
M171 305h253q0 21 -4.5 42t-16.5 45t-37.5 39t-62.5 15q-65 0 -99.5 -43t-32.5 -98zM132 602v82h330v-82h-330z" />
    <glyph glyph-name="Edotaccent" unicode="&#x116;" horiz-adv-x="690" 
d="M55 594v106h594v-225h-106v119h-291v-182h245v-106h-245v-200h302v136h106v-242h-605v106h69v488h-69zM294 772v100h128v-100h-128z" />
    <glyph glyph-name="edotaccent" unicode="&#x117;" horiz-adv-x="594" 
d="M429 147h114q-6 -29 -18.5 -54.5t-38 -53t-73.5 -43.5t-112 -16q-24 0 -47.5 2.5t-64.5 17.5t-70.5 40.5t-52.5 79t-23 125.5q0 133 65.5 208t193.5 75q237 0 248 -276q0 -6 0.5 -15t0.5 -14h-380q0 -27 7 -53t22 -51.5t44 -41t67 -15.5q43 0 77.5 22.5t40.5 62.5z
M171 305h253q0 21 -4.5 42t-16.5 45t-37.5 39t-62.5 15q-65 0 -99.5 -43t-32.5 -98zM237 594v106h120v-106h-120z" />
    <glyph glyph-name="Eogonek" unicode="&#x118;" horiz-adv-x="690" 
d="M398 0h-343v106h69v488h-69v106h594v-225h-106v119h-291v-182h245v-106h-245v-200h302v136h106v-242h-154q-43 -14 -66.5 -48.5t-23.5 -81.5q0 -30 15 -47.5t41 -17.5q27 0 40.5 18t12.5 44h86q-1 -13 -4.5 -25.5t-13.5 -32t-25.5 -34t-44.5 -25t-66 -10.5q-70 0 -104 37
t-34 89q0 39 20 76.5t59 57.5z" />
    <glyph glyph-name="eogonek" unicode="&#x119;" horiz-adv-x="594" 
d="M429 147h114q-7 -44 -35.5 -84.5t-85.5 -62.5h1q-39 -13 -61 -45t-22 -75q0 -27 13.5 -43.5t37.5 -16.5q25 0 37.5 17t11.5 40h80q-1 -11 -4 -23t-13 -30t-24.5 -31t-41 -23t-60.5 -10q-64 0 -95.5 34.5t-31.5 81.5q0 64 44 104q-24 0 -49.5 3.5t-64 19.5t-67 42.5
t-49.5 78.5t-21 121q0 133 65.5 208t193.5 75q237 0 248 -276q0 -6 0.5 -15t0.5 -14h-380q0 -27 7 -53t22 -51.5t44 -41t67 -15.5q43 0 77.5 22.5t40.5 62.5zM171 305h253q0 21 -4.5 42t-16.5 45t-37.5 39t-62.5 15q-65 0 -99.5 -43t-32.5 -98z" />
    <glyph glyph-name="Ecaron" unicode="&#x11a;" horiz-adv-x="690" 
d="M55 594v106h594v-225h-106v119h-291v-182h245v-106h-245v-200h302v136h106v-242h-605v106h69v488h-69zM358 806l100 94h120l-134 -140h-172l-134 140h120z" />
    <glyph glyph-name="ecaron" unicode="&#x11b;" horiz-adv-x="594" 
d="M429 147h114q-6 -29 -18.5 -54.5t-38 -53t-73.5 -43.5t-112 -16q-24 0 -47.5 2.5t-64.5 17.5t-70.5 40.5t-52.5 79t-23 125.5q0 133 65.5 208t193.5 75q237 0 248 -276q0 -6 0.5 -15t0.5 -14h-380q0 -27 7 -53t22 -51.5t44 -41t67 -15.5q43 0 77.5 22.5t40.5 62.5z
M171 305h253q0 21 -4.5 42t-16.5 45t-37.5 39t-62.5 15q-65 0 -99.5 -43t-32.5 -98zM297 611l90 89h110l-120 -132h-160l-120 132h110z" />
    <glyph glyph-name="Gcircumflex" unicode="&#x11c;" horiz-adv-x="793" 
d="M412 269v106h365v-106h-79v-269h-92v95h-2q-60 -116 -220 -116q-65 0 -122.5 18.5t-107.5 58.5t-79.5 113t-29.5 172q0 94 23 165t57 111t81.5 64.5t87.5 32t84 7.5q61 0 111.5 -23t81.5 -61v63h106v-225h-106q-8 52 -52 96t-130 44q-51 0 -89.5 -18.5t-60.5 -46
t-35.5 -65.5t-17.5 -71.5t-4 -70.5q0 -74 21.5 -127.5t56 -80t69 -38.5t69.5 -12q27 0 55 7.5t58.5 25.5t50.5 57t21 94h-171zM366 854l-100 -94h-120l134 140h172l134 -140h-120z" />
    <glyph glyph-name="gcircumflex" unicode="&#x11d;" horiz-adv-x="672" 
d="M458 508h174v-82h-64v-403q0 -105 -67.5 -160.5t-189.5 -55.5q-201 0 -222 144h110q7 -32 41.5 -46t75.5 -14q44 0 72.5 13t40.5 36t15.5 42t3.5 43v39q-14 -25 -38.5 -41.5t-53 -22t-42.5 -7t-26 -1.5q-82 0 -138 38t-79.5 96t-23.5 131q0 71 21 125t57 85t78 46t89 15
q107 0 164 -70h2v50zM175 256q0 -47 11 -82.5t26.5 -53.5t37 -29.5t37 -14t31.5 -2.5q57 0 98 47.5t41 137.5q0 97 -40 142t-100 45q-67 0 -104.5 -50t-37.5 -140zM320 657l-90 -89h-110l120 132h160l120 -132h-110z" />
    <glyph glyph-name="Gbreve" unicode="&#x11e;" horiz-adv-x="793" 
d="M412 269v106h365v-106h-79v-269h-92v95h-2q-60 -116 -220 -116q-65 0 -122.5 18.5t-107.5 58.5t-79.5 113t-29.5 172q0 94 23 165t57 111t81.5 64.5t87.5 32t84 7.5q61 0 111.5 -23t81.5 -61v63h106v-225h-106q-8 52 -52 96t-130 44q-51 0 -89.5 -18.5t-60.5 -46
t-35.5 -65.5t-17.5 -71.5t-4 -70.5q0 -74 21.5 -127.5t56 -80t69 -38.5t69.5 -12q27 0 55 7.5t58.5 25.5t50.5 57t21 94h-171zM163 900h103q4 -38 33.5 -59.5t73.5 -21.5t73.5 21.5t33.5 59.5h103q-13 -68 -66.5 -110.5t-143.5 -42.5t-143.5 42.5t-66.5 110.5z" />
    <glyph glyph-name="gbreve" unicode="&#x11f;" horiz-adv-x="672" 
d="M458 508h174v-82h-64v-403q0 -105 -67.5 -160.5t-189.5 -55.5q-201 0 -222 144h110q7 -32 41.5 -46t75.5 -14q44 0 72.5 13t40.5 36t15.5 42t3.5 43v39q-14 -25 -38.5 -41.5t-53 -22t-42.5 -7t-26 -1.5q-82 0 -138 38t-79.5 96t-23.5 131q0 71 21 125t57 85t78 46t89 15
q107 0 164 -70h2v50zM175 256q0 -47 11 -82.5t26.5 -53.5t37 -29.5t37 -14t31.5 -2.5q57 0 98 47.5t41 137.5q0 97 -40 142t-100 45q-67 0 -104.5 -50t-37.5 -140zM392 700h102q-8 -55 -54.5 -99t-142.5 -44t-142.5 44t-54.5 99h102q4 -34 30 -53.5t65 -19.5t65 19.5
t30 53.5z" />
    <glyph glyph-name="Gdotaccent" unicode="&#x120;" horiz-adv-x="793" 
d="M412 269v106h365v-106h-79v-269h-92v95h-2q-60 -116 -220 -116q-65 0 -122.5 18.5t-107.5 58.5t-79.5 113t-29.5 172q0 94 23 165t57 111t81.5 64.5t87.5 32t84 7.5q61 0 111.5 -23t81.5 -61v63h106v-225h-106q-8 52 -52 96t-130 44q-51 0 -89.5 -18.5t-60.5 -46
t-35.5 -65.5t-17.5 -71.5t-4 -70.5q0 -74 21.5 -127.5t56 -80t69 -38.5t69.5 -12q27 0 55 7.5t58.5 25.5t50.5 57t21 94h-171zM324 772v100h128v-100h-128z" />
    <glyph glyph-name="gdotaccent" unicode="&#x121;" horiz-adv-x="672" 
d="M458 508h174v-82h-64v-403q0 -105 -67.5 -160.5t-189.5 -55.5q-201 0 -222 144h110q7 -32 41.5 -46t75.5 -14q44 0 72.5 13t40.5 36t15.5 42t3.5 43v39q-14 -25 -38.5 -41.5t-53 -22t-42.5 -7t-26 -1.5q-82 0 -138 38t-79.5 96t-23.5 131q0 71 21 125t57 85t78 46t89 15
q107 0 164 -70h2v50zM175 256q0 -47 11 -82.5t26.5 -53.5t37 -29.5t37 -14t31.5 -2.5q57 0 98 47.5t41 137.5q0 97 -40 142t-100 45q-67 0 -104.5 -50t-37.5 -140zM276 594v106h120v-106h-120z" />
    <glyph glyph-name="Gcommaaccent" unicode="&#x122;" horiz-adv-x="793" 
d="M412 269v106h365v-106h-79v-269h-92v95h-2q-60 -116 -220 -116q-65 0 -122.5 18.5t-107.5 58.5t-79.5 113t-29.5 172q0 94 23 165t57 111t81.5 64.5t87.5 32t84 7.5q61 0 111.5 -23t81.5 -61v63h106v-225h-106q-8 52 -52 96t-130 44q-51 0 -89.5 -18.5t-60.5 -46
t-35.5 -65.5t-17.5 -71.5t-4 -70.5q0 -74 21.5 -127.5t56 -80t69 -38.5t69.5 -12q27 0 55 7.5t58.5 25.5t50.5 57t21 94h-171zM316 -60h140v-105q0 -31 -12 -54t-28 -34.5t-38 -18.5t-35.5 -8.5t-26.5 -1.5v68q29 -1 50 9t21 30v9h-71v106z" />
    <glyph glyph-name="gcommaaccent" unicode="&#x123;" horiz-adv-x="672" 
d="M458 508h174v-82h-64v-403q0 -105 -67.5 -160.5t-189.5 -55.5q-201 0 -222 144h110q7 -32 41.5 -46t75.5 -14q44 0 72.5 13t40.5 36t15.5 42t3.5 43v39q-14 -25 -38.5 -41.5t-53 -22t-42.5 -7t-26 -1.5q-82 0 -138 38t-79.5 96t-23.5 131q0 71 21 125t57 85t78 46t89 15
q107 0 164 -70h2v50zM175 256q0 -47 11 -82.5t26.5 -53.5t37 -29.5t37 -14t31.5 -2.5q57 0 98 47.5t41 137.5q0 97 -40 142t-100 45q-67 0 -104.5 -50t-37.5 -140zM372 559h-132v99q0 36 16 60.5t40.5 34t42 13t33.5 3.5v-64q-27 1 -47 -8.5t-20 -28.5v-9h67v-100z" />
    <glyph glyph-name="Hcircumflex" unicode="&#x124;" horiz-adv-x="819" 
d="M498 0v106h69v208h-315v-208h69v-106h-266v106h69v488h-69v106h266v-106h-69v-174h315v174h-69v106h266v-106h-69v-488h69v-106h-266zM408 854l-100 -94h-120l134 140h172l134 -140h-120z" />
    <glyph glyph-name="hcircumflex" unicode="&#x125;" horiz-adv-x="670" 
d="M382 0v82h64v220q0 25 -0.5 39.5t-5.5 37t-14.5 35t-28.5 22.5t-46 10q-13 0 -26 -2.5t-32.5 -12t-33.5 -26t-24.5 -48t-10.5 -73.5v-202h64v-82h-248v82h64v536h-64v82h184v-259q25 42 72 64.5t95 22.5q49 0 84.5 -17t52 -38t26 -51.5t11 -46.5t1.5 -35v-258h64v-82
h-248zM155 865l-90 -89h-110l120 132h160l120 -132h-110z" />
    <glyph glyph-name="Hbar" unicode="&#x126;" horiz-adv-x="819" 
d="M498 0v106h69v208h-315v-208h69v-106h-266v106h69v372h-69v68h69v48h-69v106h266v-106h-69v-48h315v48h-69v106h266v-106h-69v-48h69v-68h-69v-372h69v-106h-266zM252 420h315v58h-315v-58z" />
    <glyph glyph-name="hbar" unicode="&#x127;" horiz-adv-x="670" 
d="M382 0v82h64v180q0 25 -0.5 39.5t-5.5 37t-14.5 35t-28.5 22.5t-46 10q-13 0 -26 -2.5t-32.5 -12t-33.5 -26t-24.5 -48t-10.5 -73.5v-162h64v-82h-248v82h64v445h-80v58h80v43h-64v72h184v-115h205v-58h-205v-126q25 42 72 64.5t95 22.5q49 0 84.5 -17t52 -38t26 -51.5
t11 -46.5t1.5 -35v-218h64v-82h-248z" />
    <glyph glyph-name="Imacron" unicode="&#x12a;" horiz-adv-x="376" 
d="M55 594v106h266v-106h-69v-488h69v-106h-266v106h69v488h-69zM24 760v80h330v-80h-330z" />
    <glyph glyph-name="imacron" unicode="&#x12b;" horiz-adv-x="328" 
d="M40 426v82h184v-426h64v-82h-248v82h64v344h-64zM-16 602v82h330v-82h-330z" />
    <glyph glyph-name="Iogonek" unicode="&#x12e;" horiz-adv-x="376" 
d="M145 0h-90v106h69v488h-69v106h266v-106h-69v-488h69v-106h-68q-43 -14 -66.5 -48.5t-23.5 -81.5q0 -30 15 -47.5t41 -17.5q27 0 40.5 18t12.5 44h86q-1 -13 -4.5 -25.5t-13.5 -32t-25.5 -34t-44.5 -25t-66 -10.5q-70 0 -104 37t-34 89q0 39 20 76.5t59 57.5z" />
    <glyph glyph-name="iogonek" unicode="&#x12f;" horiz-adv-x="328" 
d="M119 0h-79v82h64v344h-64v82h184v-426h64v-82h-69q-39 -13 -61 -45t-22 -75q0 -27 13.5 -43.5t37.5 -16.5q25 0 37.5 17t11.5 40h80q-1 -11 -4 -23t-13 -30t-24.5 -31t-41 -23t-60.5 -10q-64 0 -95.5 34.5t-31.5 81.5q0 37 18 71t55 53zM104 594v106h120v-106h-120z" />
    <glyph glyph-name="Idot" unicode="&#x130;" horiz-adv-x="376" 
d="M55 594v106h266v-106h-69v-488h69v-106h-266v106h69v488h-69zM124 772v100h128v-100h-128z" />
    <glyph glyph-name="dotlessi" unicode="&#x131;" horiz-adv-x="328" 
d="M40 426v82h184v-426h64v-82h-248v82h64v344h-64z" />
    <glyph glyph-name="Jcircumflex" unicode="&#x134;" horiz-adv-x="580" 
d="M271 594v106h274v-106h-69v-346q0 -43 -3 -74t-16 -70.5t-36 -64.5t-67 -42.5t-105 -17.5q-67 0 -114 20t-71 54.5t-34 71t-10 79.5v39h128v-29q0 -129 102 -129q48 0 73 27.5t25 119.5v362h-77zM405 854l-100 -94h-120l134 140h172l134 -140h-120z" />
    <glyph glyph-name="jcircumflex" unicode="&#x135;" horiz-adv-x="278" 
d="M132 657l-90 -89h-110l120 132h160l120 -132h-110zM34 426v82h184v-535q0 -79 -28 -120.5t-115 -41.5q-41 0 -68 4v82q50 1 70.5 18.5t20.5 64.5v446h-64z" />
    <glyph glyph-name="Kcommaaccent" unicode="&#x136;" horiz-adv-x="684" 
d="M272 348l186 246h-51v106h262v-106h-68l-192 -237l210 -251h60v-106h-269v106h55zM252 594v-488h69v-106h-266v106h69v488h-69v106h266v-106h-69zM292 -60h140v-105q0 -31 -12 -54t-28 -34.5t-38 -18.5t-35.5 -8.5t-26.5 -1.5v68q29 -1 50 9t21 30v9h-71v106z" />
    <glyph glyph-name="kcommaaccent" unicode="&#x137;" horiz-adv-x="578" 
d="M40 618v82h184v-618h60v-82h-244v82h64v536h-64zM239 257l146 169h-39v82h214v-82h-49l-151 -158l162 -186h56v-82h-138zM248 -60h132v-99q0 -36 -16 -60.5t-40.5 -34t-42 -13t-33.5 -3.5v64q27 -1 47 8.5t20 28.5v9h-67v100z" />
    <glyph glyph-name="Lacute" unicode="&#x139;" horiz-adv-x="616" 
d="M55 594v106h266v-106h-69v-488h238v158h106v-264h-541v106h69v488h-69zM220 900h136l-118 -140h-96z" />
    <glyph glyph-name="lacute" unicode="&#x13a;" horiz-adv-x="328" 
d="M40 618v82h184v-618h64v-82h-248v82h64v536h-64zM190 884h130l-110 -132h-90z" />
    <glyph glyph-name="Lcommaaccent" unicode="&#x13b;" horiz-adv-x="616" 
d="M55 594v106h266v-106h-69v-488h238v158h106v-264h-541v106h69v488h-69zM249 -60h140v-105q0 -31 -12 -54t-28 -34.5t-38 -18.5t-35.5 -8.5t-26.5 -1.5v68q29 -1 50 9t21 30v9h-71v106z" />
    <glyph glyph-name="lcommaaccent" unicode="&#x13c;" horiz-adv-x="328" 
d="M40 618v82h184v-618h64v-82h-248v82h64v536h-64zM92 -60h132v-99q0 -36 -16 -60.5t-40.5 -34t-42 -13t-33.5 -3.5v64q27 -1 47 8.5t20 28.5v9h-67v100z" />
    <glyph glyph-name="Lcaron" unicode="&#x13d;" horiz-adv-x="616" 
d="M55 594v106h266v-106h-69v-488h238v158h106v-264h-541v106h69v488h-69zM393 700h132v-139q0 -78 -38.5 -113.5t-93.5 -40.5v69q30 2 48.5 23.5t18.5 54.5v11h-67v135z" />
    <glyph glyph-name="lcaron" unicode="&#x13e;" horiz-adv-x="437" 
d="M40 618v82h184v-618h64v-82h-248v82h64v536h-64zM295 700h132v-139q0 -78 -38.5 -113.5t-93.5 -40.5v69q30 2 48.5 23.5t18.5 54.5v11h-67v135z" />
    <glyph glyph-name="Ldot" unicode="&#x13f;" horiz-adv-x="616" 
d="M55 594v106h266v-106h-69v-488h238v158h106v-264h-541v106h69v488h-69zM431 327v125h122v-125h-122z" />
    <glyph glyph-name="ldot" unicode="&#x140;" horiz-adv-x="465" 
d="M40 618v82h184v-618h64v-82h-248v82h64v536h-64zM339 335v117h114v-117h-114z" />
    <glyph glyph-name="Lslash" unicode="&#x141;" horiz-adv-x="616" 
d="M55 594v106h266v-106h-69v-145l143 139v-110l-143 -139v-233h238v158h106v-264h-541v106h69v108l-122 -118v110l122 118v270h-69z" />
    <glyph glyph-name="lslash" unicode="&#x142;" horiz-adv-x="328" 
d="M40 618v82h184v-250l119 78v-92l-119 -78v-276h64v-82h-248v82h64v197l-121 -79v92l121 79v247h-64z" />
    <glyph glyph-name="Nacute" unicode="&#x143;" horiz-adv-x="848" 
d="M527 594v106h266v-106h-69v-594h-136l-336 497v-391h69v-106h-266v106h69v488h-69v106h205l336 -497v391h-69zM421 900h136l-118 -140h-96z" />
    <glyph glyph-name="nacute" unicode="&#x144;" horiz-adv-x="670" 
d="M382 0v82h64v220q0 25 -0.5 39.5t-5.5 37t-14.5 35t-28.5 22.5t-46 10q-13 0 -26 -2.5t-32.5 -12t-33.5 -26t-24.5 -48t-10.5 -73.5v-202h64v-82h-248v82h64v344h-64v82h184v-67q25 42 72 64.5t95 22.5q49 0 84.5 -17t52 -38t26 -51.5t11 -46.5t1.5 -35v-258h64v-82h-248
zM351 700h130l-110 -132h-90z" />
    <glyph glyph-name="Ncommaaccent" unicode="&#x145;" horiz-adv-x="848" 
d="M527 594v106h266v-106h-69v-594h-136l-336 497v-391h69v-106h-266v106h69v488h-69v106h205l336 -497v391h-69zM354 -60h140v-105q0 -31 -12 -54t-28 -34.5t-38 -18.5t-35.5 -8.5t-26.5 -1.5v68q29 -1 50 9t21 30v9h-71v106z" />
    <glyph glyph-name="ncommaaccent" unicode="&#x146;" horiz-adv-x="670" 
d="M382 0v82h64v220q0 25 -0.5 39.5t-5.5 37t-14.5 35t-28.5 22.5t-46 10q-13 0 -26 -2.5t-32.5 -12t-33.5 -26t-24.5 -48t-10.5 -73.5v-202h64v-82h-248v82h64v344h-64v82h184v-67q25 42 72 64.5t95 22.5q49 0 84.5 -17t52 -38t26 -51.5t11 -46.5t1.5 -35v-258h64v-82h-248
zM269 -60h132v-99q0 -36 -16 -60.5t-40.5 -34t-42 -13t-33.5 -3.5v64q27 -1 47 8.5t20 28.5v9h-67v100z" />
    <glyph glyph-name="Ncaron" unicode="&#x147;" horiz-adv-x="848" 
d="M527 594v106h266v-106h-69v-594h-136l-336 497v-391h69v-106h-266v106h69v488h-69v106h205l336 -497v391h-69zM424 806l100 94h120l-134 -140h-172l-134 140h120z" />
    <glyph glyph-name="ncaron" unicode="&#x148;" horiz-adv-x="670" 
d="M382 0v82h64v220q0 25 -0.5 39.5t-5.5 37t-14.5 35t-28.5 22.5t-46 10q-13 0 -26 -2.5t-32.5 -12t-33.5 -26t-24.5 -48t-10.5 -73.5v-202h64v-82h-248v82h64v344h-64v82h184v-67q25 42 72 64.5t95 22.5q49 0 84.5 -17t52 -38t26 -51.5t11 -46.5t1.5 -35v-258h64v-82h-248
zM335 611l90 89h110l-120 -132h-160l-120 132h110z" />
    <glyph glyph-name="Omacron" unicode="&#x14c;" horiz-adv-x="776" 
d="M45 350q0 74 16.5 134.5t40.5 98t59.5 65.5t65.5 41.5t67 21t55.5 9t38.5 1.5t38.5 -1.5t55.5 -9t67 -21t65.5 -41.5t59.5 -65.5t40.5 -98t16.5 -134.5t-16.5 -134.5t-40.5 -98t-59.5 -65.5t-65.5 -41.5t-67 -21t-55.5 -9t-38.5 -1.5t-38.5 1.5t-55.5 9t-67 21
t-65.5 41.5t-59.5 65.5t-40.5 98t-16.5 134.5zM182 350q0 -46 8.5 -88t29.5 -84t64 -67.5t104 -25.5t104 25.5t64 67.5t29.5 84t8.5 88t-8.5 88t-29.5 84t-64 67.5t-104 25.5t-104 -25.5t-64 -67.5t-29.5 -84t-8.5 -88zM223 760v80h330v-80h-330z" />
    <glyph glyph-name="omacron" unicode="&#x14d;" horiz-adv-x="610" 
d="M43 254q0 33 6 66t24 72t46 68t76 48.5t110 19.5t110 -19.5t76 -48.5t46 -68t24 -72t6 -66t-6 -66t-24 -72t-46 -68t-76 -48.5t-110 -19.5t-110 19.5t-76 48.5t-46 67.5t-24 72t-6 66.5zM171 254q0 -61 14 -102.5t37.5 -59.5t42.5 -24t40 -6t40 6t42.5 24t37.5 59.5
t14 102.5t-14 102.5t-37.5 59.5t-42.5 24t-40 6t-40 -6t-42.5 -24t-37.5 -59.5t-14 -102.5zM140 602v82h330v-82h-330z" />
    <glyph glyph-name="Ohungarumlaut" unicode="&#x150;" horiz-adv-x="776" 
d="M45 350q0 74 16.5 134.5t40.5 98t59.5 65.5t65.5 41.5t67 21t55.5 9t38.5 1.5t38.5 -1.5t55.5 -9t67 -21t65.5 -41.5t59.5 -65.5t40.5 -98t16.5 -134.5t-16.5 -134.5t-40.5 -98t-59.5 -65.5t-65.5 -41.5t-67 -21t-55.5 -9t-38.5 -1.5t-38.5 1.5t-55.5 9t-67 21
t-65.5 41.5t-59.5 65.5t-40.5 98t-16.5 134.5zM182 350q0 -46 8.5 -88t29.5 -84t64 -67.5t104 -25.5t104 25.5t64 67.5t29.5 84t8.5 88t-8.5 88t-29.5 84t-64 67.5t-104 25.5t-104 -25.5t-64 -67.5t-29.5 -84t-8.5 -88zM325 900h130l-118 -140h-90zM497 900h130l-118 -140
h-90z" />
    <glyph glyph-name="ohungarumlaut" unicode="&#x151;" horiz-adv-x="610" 
d="M43 254q0 33 6 66t24 72t46 68t76 48.5t110 19.5t110 -19.5t76 -48.5t46 -68t24 -72t6 -66t-6 -66t-24 -72t-46 -68t-76 -48.5t-110 -19.5t-110 19.5t-76 48.5t-46 67.5t-24 72t-6 66.5zM171 254q0 -61 14 -102.5t37.5 -59.5t42.5 -24t40 -6t40 6t42.5 24t37.5 59.5
t14 102.5t-14 102.5t-37.5 59.5t-42.5 24t-40 6t-40 -6t-42.5 -24t-37.5 -59.5t-14 -102.5zM222 700h120l-110 -132h-80zM392 700h120l-110 -132h-80z" />
    <glyph glyph-name="OE" unicode="&#x152;" horiz-adv-x="1123" 
d="M557 700h525v-225h-106v119h-291v-182h245v-106h-245v-200h302v136h106v-242h-536q-80 -21 -169 -21q-20 0 -38.5 1.5t-55.5 9t-67 21t-65.5 41.5t-59.5 65.5t-40.5 98t-16.5 134.5t16.5 134.5t40.5 98t59.5 65.5t65.5 41.5t67 21t55.5 9t38.5 1.5q98 0 169 -21zM388 85
q105 0 169 42v456q-76 32 -169 32q-61 0 -104 -25.5t-64 -67.5t-29.5 -84t-8.5 -88t8.5 -88t29.5 -84t64 -67.5t104 -25.5z" />
    <glyph glyph-name="oe" unicode="&#x153;" horiz-adv-x="982" 
d="M817 147h114q-6 -29 -18.5 -54.5t-38 -53t-73.5 -43.5t-112 -16q-134 0 -193 74q-71 -74 -191 -74q-62 0 -110 19.5t-76 48.5t-46 67.5t-24 72t-6 66.5t6 66t24 72t46 68t76 48.5t110 19.5q120 0 191 -74q74 74 194 74q122 0 185.5 -72.5t63.5 -203.5v-29h-380
q0 -27 7 -53t22 -51.5t44 -41t67 -15.5q43 0 77.5 22.5t40.5 62.5zM171 254q0 -61 14 -102.5t37.5 -59.5t42.5 -24t40 -6t40 6t42.5 24t37.5 59.5t14 102.5t-14 102.5t-37.5 59.5t-42.5 24t-40 6t-40 -6t-42.5 -24t-37.5 -59.5t-14 -102.5zM559 305h253q0 21 -4.5 42
t-16.5 45t-37.5 39t-62.5 15q-65 0 -99.5 -43t-32.5 -98z" />
    <glyph glyph-name="Racute" unicode="&#x154;" horiz-adv-x="760" 
d="M540 0l-141 278h-147v-172h69v-106h-266v106h69v488h-69v106h373q30 0 60.5 -4t68.5 -17t66 -34t47.5 -58.5t19.5 -87.5q0 -71 -35.5 -127.5t-120.5 -78.5l92 -187h84v-106h-170zM252 594v-210h157q60 0 104.5 24t44.5 81q0 32 -15 54.5t-39.5 32.5t-46 14t-45.5 4h-160z
M390 900h136l-118 -140h-96z" />
    <glyph glyph-name="racute" unicode="&#x155;" horiz-adv-x="434" 
d="M40 426v82h184v-93h2q24 57 72.5 80t101.5 23h20v-78q-184 3 -195 -161q-1 -17 -1 -52v-145h64v-82h-248v82h64v344h-64zM259 700h130l-110 -132h-90z" />
    <glyph glyph-name="Rcommaaccent" unicode="&#x156;" horiz-adv-x="760" 
d="M540 0l-141 278h-147v-172h69v-106h-266v106h69v488h-69v106h373q30 0 60.5 -4t68.5 -17t66 -34t47.5 -58.5t19.5 -87.5q0 -71 -35.5 -127.5t-120.5 -78.5l92 -187h84v-106h-170zM252 594v-210h157q60 0 104.5 24t44.5 81q0 32 -15 54.5t-39.5 32.5t-46 14t-45.5 4h-160z
M323 -60h140v-105q0 -31 -12 -54t-28 -34.5t-38 -18.5t-35.5 -8.5t-26.5 -1.5v68q29 -1 50 9t21 30v9h-71v106z" />
    <glyph glyph-name="rcommaaccent" unicode="&#x157;" horiz-adv-x="434" 
d="M40 426v82h184v-93h2q24 57 72.5 80t101.5 23h20v-78q-184 3 -195 -161q-1 -17 -1 -52v-145h64v-82h-248v82h64v344h-64zM102 -60h132v-99q0 -36 -16 -60.5t-40.5 -34t-42 -13t-33.5 -3.5v64q27 -1 47 8.5t20 28.5v9h-67v100z" />
    <glyph glyph-name="Rcaron" unicode="&#x158;" horiz-adv-x="760" 
d="M540 0l-141 278h-147v-172h69v-106h-266v106h69v488h-69v106h373q30 0 60.5 -4t68.5 -17t66 -34t47.5 -58.5t19.5 -87.5q0 -71 -35.5 -127.5t-120.5 -78.5l92 -187h84v-106h-170zM252 594v-210h157q60 0 104.5 24t44.5 81q0 32 -15 54.5t-39.5 32.5t-46 14t-45.5 4h-160z
M373 806l100 94h120l-134 -140h-172l-134 140h120z" />
    <glyph glyph-name="rcaron" unicode="&#x159;" horiz-adv-x="434" 
d="M40 426v82h184v-93h2q24 57 72.5 80t101.5 23h20v-78q-184 3 -195 -161q-1 -17 -1 -52v-145h64v-82h-248v82h64v344h-64zM241 611l90 89h110l-120 -132h-160l-120 132h110z" />
    <glyph glyph-name="Sacute" unicode="&#x15a;" horiz-adv-x="684" 
d="M501 700h106v-195h-106q-5 33 -23.5 57t-44 34.5t-46 14.5t-38.5 4q-135 0 -135 -91q0 -26 12.5 -44t38 -29t47.5 -16.5t58 -11.5q69 -12 112 -25t82 -37t57 -63t18 -95q0 -224 -279 -224q-60 0 -113.5 20t-81.5 52v-51h-106v229h106q1 -23 10.5 -45.5t29.5 -46t58.5 -38
t90.5 -14.5q148 0 148 105q0 30 -12.5 51t-35.5 32t-38.5 16t-39.5 9q-53 9 -82 17q-49 10 -84 23t-67.5 35.5t-49 59.5t-16.5 88q0 46 14.5 82t40 56.5t51.5 34t59 19t51.5 7t39.5 1.5q49 0 97 -18t71 -45v42zM349 900h136l-118 -140h-96z" />
    <glyph glyph-name="sacute" unicode="&#x15b;" horiz-adv-x="550" 
d="M486 365h-86q-9 32 -40 56.5t-72 24.5q-95 0 -95 -63q0 -50 60 -67q17 -5 71 -14l40.5 -8t40.5 -10.5t41 -18t31.5 -26.5t24.5 -39.5t8 -53.5q0 -166 -207 -166q-113 0 -158 54v-34h-87v186h87q0 -54 39 -89t90 -35q50 0 80 16t30 63q0 33 -21 49.5t-73 25.5l-55 9
q-86 16 -126 51.5t-40 104.5q0 71 61 115q47 32 132 32q97 0 138 -52v32h86v-143zM272 700h130l-110 -132h-90z" />
    <glyph glyph-name="Scircumflex" unicode="&#x15c;" horiz-adv-x="684" 
d="M501 700h106v-195h-106q-5 33 -23.5 57t-44 34.5t-46 14.5t-38.5 4q-135 0 -135 -91q0 -26 12.5 -44t38 -29t47.5 -16.5t58 -11.5q69 -12 112 -25t82 -37t57 -63t18 -95q0 -224 -279 -224q-60 0 -113.5 20t-81.5 52v-51h-106v229h106q1 -23 10.5 -45.5t29.5 -46t58.5 -38
t90.5 -14.5q148 0 148 105q0 30 -12.5 51t-35.5 32t-38.5 16t-39.5 9q-53 9 -82 17q-49 10 -84 23t-67.5 35.5t-49 59.5t-16.5 88q0 46 14.5 82t40 56.5t51.5 34t59 19t51.5 7t39.5 1.5q49 0 97 -18t71 -45v42zM342 854l-100 -94h-120l134 140h172l134 -140h-120z" />
    <glyph glyph-name="scircumflex" unicode="&#x15d;" horiz-adv-x="550" 
d="M486 365h-86q-9 32 -40 56.5t-72 24.5q-95 0 -95 -63q0 -50 60 -67q17 -5 71 -14l40.5 -8t40.5 -10.5t41 -18t31.5 -26.5t24.5 -39.5t8 -53.5q0 -166 -207 -166q-113 0 -158 54v-34h-87v186h87q0 -54 39 -89t90 -35q50 0 80 16t30 63q0 33 -21 49.5t-73 25.5l-55 9
q-86 16 -126 51.5t-40 104.5q0 71 61 115q47 32 132 32q97 0 138 -52v32h86v-143zM276 657l-90 -89h-110l120 132h160l120 -132h-110z" />
    <glyph glyph-name="Scedilla" unicode="&#x15e;" horiz-adv-x="684" 
d="M501 700h106v-195h-106q-5 33 -23.5 57t-44 34.5t-46 14.5t-38.5 4q-135 0 -135 -91q0 -26 12.5 -44t38 -29t47.5 -16.5t58 -11.5q69 -12 112 -25t82 -37t57 -63t18 -95q0 -224 -279 -224q-60 0 -113.5 20t-81.5 52v-51h-106v229h106q1 -23 10.5 -45.5t29.5 -46t58.5 -38
t90.5 -14.5q148 0 148 105q0 30 -12.5 51t-35.5 32t-38.5 16t-39.5 9q-53 9 -82 17q-49 10 -84 23t-67.5 35.5t-49 59.5t-16.5 88q0 46 14.5 82t40 56.5t51.5 34t59 19t51.5 7t39.5 1.5q49 0 97 -18t71 -45v42zM239 -232l19 61q28 -9 58 -9q53 0 53 34q0 28 -52 28h-43
l18 60h46q121 0 121 -90q0 -92 -141 -92q-39 0 -79 8z" />
    <glyph glyph-name="scedilla" unicode="&#x15f;" horiz-adv-x="550" 
d="M486 365h-86q-9 32 -40 56.5t-72 24.5q-95 0 -95 -63q0 -50 60 -67q17 -5 71 -14l40.5 -8t40.5 -10.5t41 -18t31.5 -26.5t24.5 -39.5t8 -53.5q0 -166 -207 -166q-113 0 -158 54v-34h-87v186h87q0 -54 39 -89t90 -35q50 0 80 16t30 63q0 33 -21 49.5t-73 25.5l-55 9
q-86 16 -126 51.5t-40 104.5q0 71 61 115q47 32 132 32q97 0 138 -52v32h86v-143zM160 -232l19 61q28 -9 58 -9q53 0 53 34q0 28 -52 28h-43l18 60h46q121 0 121 -90q0 -92 -141 -92q-39 0 -79 8z" />
    <glyph glyph-name="Scaron" unicode="&#x160;" horiz-adv-x="684" 
d="M501 700h106v-195h-106q-5 33 -23.5 57t-44 34.5t-46 14.5t-38.5 4q-135 0 -135 -91q0 -26 12.5 -44t38 -29t47.5 -16.5t58 -11.5q69 -12 112 -25t82 -37t57 -63t18 -95q0 -224 -279 -224q-60 0 -113.5 20t-81.5 52v-51h-106v229h106q1 -23 10.5 -45.5t29.5 -46t58.5 -38
t90.5 -14.5q148 0 148 105q0 30 -12.5 51t-35.5 32t-38.5 16t-39.5 9q-53 9 -82 17q-49 10 -84 23t-67.5 35.5t-49 59.5t-16.5 88q0 46 14.5 82t40 56.5t51.5 34t59 19t51.5 7t39.5 1.5q49 0 97 -18t71 -45v42zM342 806l100 94h120l-134 -140h-172l-134 140h120z" />
    <glyph glyph-name="scaron" unicode="&#x161;" horiz-adv-x="550" 
d="M486 365h-86q-9 32 -40 56.5t-72 24.5q-95 0 -95 -63q0 -50 60 -67q17 -5 71 -14l40.5 -8t40.5 -10.5t41 -18t31.5 -26.5t24.5 -39.5t8 -53.5q0 -166 -207 -166q-113 0 -158 54v-34h-87v186h87q0 -54 39 -89t90 -35q50 0 80 16t30 63q0 33 -21 49.5t-73 25.5l-55 9
q-86 16 -126 51.5t-40 104.5q0 71 61 115q47 32 132 32q97 0 138 -52v32h86v-143zM276 611l90 89h110l-120 -132h-160l-120 132h110z" />
    <glyph glyph-name="Tcedilla" unicode="&#x162;" horiz-adv-x="690" 
d="M212 0v106h69v488h-160v-150h-106v256h660v-256h-106v150h-160v-488h69v-106h-266zM227 -251l21 68q31 -10 64 -10q59 0 59 37q0 31 -54 31h-3h-48l20 67h51q134 0 134 -100q0 -102 -156 -102q-44 0 -88 9z" />
    <glyph glyph-name="tcedilla" unicode="&#x163;" horiz-adv-x="342" 
d="M14 508h82v152h120v-152h106v-82h-106v-287q0 -23 2 -33.5t15.5 -20t41.5 -9.5q27 0 47 6v-82q-45 -12 -98 -12q-44 0 -72.5 11.5t-39 31.5t-13.5 34.5t-3 33.5v327h-82v82zM90 -232l19 61q28 -9 58 -9q53 0 53 34q0 28 -52 28h-43l18 60h46q121 0 121 -90
q0 -92 -141 -92q-39 0 -79 8z" />
    <glyph glyph-name="Tcaron" unicode="&#x164;" horiz-adv-x="690" 
d="M212 0v106h69v488h-160v-150h-106v256h660v-256h-106v150h-160v-488h69v-106h-266zM345 806l100 94h120l-134 -140h-172l-134 140h120z" />
    <glyph glyph-name="tcaron" unicode="&#x165;" horiz-adv-x="494" 
d="M14 508h82v152h120v-152h106v-82h-106v-287q0 -23 2 -33.5t15.5 -20t41.5 -9.5q27 0 47 6v-82q-45 -12 -98 -12q-44 0 -72.5 11.5t-39 31.5t-13.5 34.5t-3 33.5v327h-82v82zM362 700h132v-139q0 -78 -38.5 -113.5t-93.5 -40.5v69q30 2 48.5 23.5t18.5 54.5v11h-67v135z
" />
    <glyph glyph-name="Umacron" unicode="&#x16a;" horiz-adv-x="786" 
d="M485 594v106h266v-106h-69v-325q0 -29 -2 -52t-8.5 -54.5t-18.5 -55.5t-33.5 -49t-51.5 -41.5t-74.5 -27t-100.5 -10.5t-100.5 10.5t-74.5 27t-51.5 41.5t-33.5 49t-18.5 55.5t-8.5 54.5t-2 52v325h-69v106h266v-106h-69v-305q0 -107 36.5 -155.5t124.5 -48.5t124.5 48.5
t36.5 155.5v305h-69zM228 760v80h330v-80h-330z" />
    <glyph glyph-name="umacron" unicode="&#x16b;" horiz-adv-x="670" 
d="M630 82v-82h-184v67h-2q-23 -43 -70 -65t-99 -22q-40 0 -71 10.5t-48.5 30t-29 38.5t-16 43.5t-5.5 37.5t-1 28v258h-64v82h184v-302q0 -23 1 -38t6 -37t14.5 -35.5t28.5 -23.5t45 -10q35 0 61 15t38 34t19 46t8 40t1 27v202h-64v82h184v-426h64zM150 602v82h330v-82
h-330z" />
    <glyph glyph-name="Ubreve" unicode="&#x16c;" horiz-adv-x="786" 
d="M485 594v106h266v-106h-69v-325q0 -29 -2 -52t-8.5 -54.5t-18.5 -55.5t-33.5 -49t-51.5 -41.5t-74.5 -27t-100.5 -10.5t-100.5 10.5t-74.5 27t-51.5 41.5t-33.5 49t-18.5 55.5t-8.5 54.5t-2 52v325h-69v106h266v-106h-69v-305q0 -107 36.5 -155.5t124.5 -48.5t124.5 48.5
t36.5 155.5v305h-69zM183 900h103q4 -38 33.5 -59.5t73.5 -21.5t73.5 21.5t33.5 59.5h103q-13 -68 -66.5 -110.5t-143.5 -42.5t-143.5 42.5t-66.5 110.5z" />
    <glyph glyph-name="ubreve" unicode="&#x16d;" horiz-adv-x="670" 
d="M630 82v-82h-184v67h-2q-23 -43 -70 -65t-99 -22q-40 0 -71 10.5t-48.5 30t-29 38.5t-16 43.5t-5.5 37.5t-1 28v258h-64v82h184v-302q0 -23 1 -38t6 -37t14.5 -35.5t28.5 -23.5t45 -10q35 0 61 15t38 34t19 46t8 40t1 27v202h-64v82h184v-426h64zM410 700h102
q-8 -55 -54.5 -99t-142.5 -44t-142.5 44t-54.5 99h102q4 -34 30 -53.5t65 -19.5t65 19.5t30 53.5z" />
    <glyph glyph-name="Uring" unicode="&#x16e;" horiz-adv-x="786" 
d="M485 594v106h266v-106h-69v-325q0 -29 -2 -52t-8.5 -54.5t-18.5 -55.5t-33.5 -49t-51.5 -41.5t-74.5 -27t-100.5 -10.5t-100.5 10.5t-74.5 27t-51.5 41.5t-33.5 49t-18.5 55.5t-8.5 54.5t-2 52v325h-69v106h266v-106h-69v-305q0 -107 36.5 -155.5t124.5 -48.5t124.5 48.5
t36.5 155.5v305h-69zM293 820q0 42 29 71t71 29q41 0 70.5 -29.5t29.5 -70.5q0 -42 -29 -71t-71 -29q-43 0 -71.5 28.5t-28.5 71.5zM349 820q0 -18 13 -31t31 -13t31 13t13 31t-13 31t-31 13t-31 -13t-13 -31z" />
    <glyph glyph-name="uring" unicode="&#x16f;" horiz-adv-x="670" 
d="M630 82v-82h-184v67h-2q-23 -43 -70 -65t-99 -22q-40 0 -71 10.5t-48.5 30t-29 38.5t-16 43.5t-5.5 37.5t-1 28v258h-64v82h184v-302q0 -23 1 -38t6 -37t14.5 -35.5t28.5 -23.5t45 -10q35 0 61 15t38 34t19 46t8 40t1 27v202h-64v82h184v-426h64zM221 634q0 38 28 66
t66 28t66 -28t28 -66t-28 -66t-66 -28t-66 28t-28 66zM271 634q0 -18 13 -31t31 -13t31 13t13 31t-13 31t-31 13t-31 -13t-13 -31z" />
    <glyph glyph-name="Uhungarumlaut" unicode="&#x170;" horiz-adv-x="786" 
d="M485 594v106h266v-106h-69v-325q0 -29 -2 -52t-8.5 -54.5t-18.5 -55.5t-33.5 -49t-51.5 -41.5t-74.5 -27t-100.5 -10.5t-100.5 10.5t-74.5 27t-51.5 41.5t-33.5 49t-18.5 55.5t-8.5 54.5t-2 52v325h-69v106h266v-106h-69v-305q0 -107 36.5 -155.5t124.5 -48.5t124.5 48.5
t36.5 155.5v305h-69zM327 900h130l-118 -140h-90zM499 900h130l-118 -140h-90z" />
    <glyph glyph-name="uhungarumlaut" unicode="&#x171;" horiz-adv-x="670" 
d="M630 82v-82h-184v67h-2q-23 -43 -70 -65t-99 -22q-40 0 -71 10.5t-48.5 30t-29 38.5t-16 43.5t-5.5 37.5t-1 28v258h-64v82h184v-302q0 -23 1 -38t6 -37t14.5 -35.5t28.5 -23.5t45 -10q35 0 61 15t38 34t19 46t8 40t1 27v202h-64v82h184v-426h64zM247 700h120l-110 -132
h-80zM417 700h120l-110 -132h-80z" />
    <glyph glyph-name="Uogonek" unicode="&#x172;" horiz-adv-x="786" 
d="M485 594v106h266v-106h-69v-325q0 -40 -3.5 -71.5t-18.5 -72.5t-41.5 -69.5t-76 -50t-117.5 -25.5q-51 -37 -51 -110q0 -30 15 -47.5t41 -17.5q27 0 40.5 18t12.5 44h86q-1 -13 -4.5 -25.5t-13.5 -32t-25.5 -34t-44.5 -25t-66 -10.5q-70 0 -104 37t-34 89q0 75 53 117
q-60 8 -103.5 31t-66.5 50.5t-36.5 67t-16.5 69.5t-3 68v325h-69v106h266v-106h-69v-305q0 -107 36.5 -155.5t124.5 -48.5t124.5 48.5t36.5 155.5v305h-69z" />
    <glyph glyph-name="uogonek" unicode="&#x173;" horiz-adv-x="670" 
d="M475 0h-29v67h-2q-23 -43 -70 -65t-99 -22q-40 0 -71 10.5t-48.5 30t-29 38.5t-16 43.5t-5.5 37.5t-1 28v258h-64v82h184v-302q0 -23 1 -38t6 -37t14.5 -35.5t28.5 -23.5t45 -10q35 0 61 15t38 34t19 46t8 40t1 27v202h-64v82h184v-426h64v-82h-55q-39 -13 -61 -45
t-22 -75q0 -27 13.5 -43.5t37.5 -16.5q25 0 37.5 17t11.5 40h80q-1 -11 -4 -23t-13 -30t-24.5 -31t-41 -23t-60.5 -10q-64 0 -95.5 34.5t-31.5 81.5q0 37 18 71t55 53z" />
    <glyph glyph-name="Ydieresis" unicode="&#x178;" horiz-adv-x="643" 
d="M0 594v106h269v-106h-56l112 -201l111 201h-56v106h263v-106h-65l-192 -315v-173h69v-106h-266v106h69v173l-193 315h-65zM139 772v96h128v-96h-128zM377 772v96h128v-96h-128z" />
    <glyph glyph-name="Zacute" unicode="&#x179;" horiz-adv-x="635" 
d="M492 246h106v-246h-561v114l378 480h-253v-119h-106v225h520v-98l-378 -496h294v140zM314 900h136l-118 -140h-96z" />
    <glyph glyph-name="zacute" unicode="&#x17a;" horiz-adv-x="509" 
d="M476 0h-443v82l281 344h-181v-87h-82v169h403v-82l-281 -344h221v100h82v-182zM258 700h130l-110 -132h-90z" />
    <glyph glyph-name="Zdotaccent" unicode="&#x17b;" horiz-adv-x="635" 
d="M492 246h106v-246h-561v114l378 480h-253v-119h-106v225h520v-98l-378 -496h294v140zM253 772v100h128v-100h-128z" />
    <glyph glyph-name="zdotaccent" unicode="&#x17c;" horiz-adv-x="509" 
d="M476 0h-443v82l281 344h-181v-87h-82v169h403v-82l-281 -344h221v100h82v-182zM192 594v106h120v-106h-120z" />
    <glyph glyph-name="uni018F" unicode="&#x18f;" horiz-adv-x="775" 
d="M590 254h-404q3 -30 14.5 -57t33.5 -53.5t61.5 -42.5t92.5 -16q85 0 138.5 48t63.5 121zM376 615q-80 0 -131.5 -32.5t-72.5 -87.5h-106v205h106v-59q81 80 212 80q55 0 102 -11t80.5 -27.5t60 -42.5t43.5 -50.5t29 -56.5t18 -55.5t9 -52.5t3.5 -43t0.5 -31
q0 -75 -17 -136t-42 -99t-61.5 -66t-67 -41t-67 -20.5t-53.5 -8.5t-34 -1q-91 0 -160.5 33.5t-109 90t-57.5 123.5t-15 141h547q1 29 -2.5 58.5t-17 65t-36.5 62t-64.5 44.5t-96.5 18z" />
    <glyph glyph-name="florin" unicode="&#x192;" 
d="M492 508l-17 -82h-110l-93 -446q-16 -79 -34 -107q-39 -62 -139 -62q-11 0 -71 4l19 87h18q44 2 59 18.5t26 63.5l93 442h-93l18 82h92l11 54q6 29 14.5 49.5t27.5 43t54 34t86 11.5q37 0 79 -7l-16 -78q-21 7 -53 7q-56 0 -70 -61l-11 -53h110z" />
    <glyph glyph-name="uni01DD" unicode="&#x1dd;" horiz-adv-x="589" 
d="M418 203h-253q0 -21 4.5 -42t16.5 -45t37.5 -39t62.5 -15q39 0 67 15t41 39t18.5 45.5t5.5 41.5zM282 446q-96 0 -143 -85h-97v147h82v-47q62 67 172 67q66 0 115 -22.5t74 -53t39.5 -71t18 -67t3.5 -51.5q0 -133 -66 -208t-195 -75q-29 0 -55 3.5t-64.5 21.5t-65.5 48
t-45.5 90t-16.5 142h380q0 37 -11 71t-43.5 62t-81.5 28z" />
    <glyph glyph-name="Scommaaccent" unicode="&#x218;" horiz-adv-x="684" 
d="M501 700h106v-195h-106q-5 33 -23.5 57t-44 34.5t-46 14.5t-38.5 4q-135 0 -135 -91q0 -26 12.5 -44t38 -29t47.5 -16.5t58 -11.5q69 -12 112 -25t82 -37t57 -63t18 -95q0 -224 -279 -224q-60 0 -113.5 20t-81.5 52v-51h-106v229h106q1 -23 10.5 -45.5t29.5 -46t58.5 -38
t90.5 -14.5q148 0 148 105q0 30 -12.5 51t-35.5 32t-38.5 16t-39.5 9q-53 9 -82 17q-49 10 -84 23t-67.5 35.5t-49 59.5t-16.5 88q0 46 14.5 82t40 56.5t51.5 34t59 19t51.5 7t39.5 1.5q49 0 97 -18t71 -45v42zM282 -60h140v-105q0 -31 -12 -54t-28 -34.5t-38 -18.5
t-35.5 -8.5t-26.5 -1.5v68q29 -1 50 9t21 30v9h-71v106z" />
    <glyph glyph-name="scommaaccent" unicode="&#x219;" horiz-adv-x="550" 
d="M486 365h-86q-9 32 -40 56.5t-72 24.5q-95 0 -95 -63q0 -50 60 -67q17 -5 71 -14l40.5 -8t40.5 -10.5t41 -18t31.5 -26.5t24.5 -39.5t8 -53.5q0 -166 -207 -166q-113 0 -158 54v-34h-87v186h87q0 -54 39 -89t90 -35q50 0 80 16t30 63q0 33 -21 49.5t-73 25.5l-55 9
q-86 16 -126 51.5t-40 104.5q0 71 61 115q47 32 132 32q97 0 138 -52v32h86v-143zM210 -60h132v-99q0 -36 -16 -60.5t-40.5 -34t-42 -13t-33.5 -3.5v64q27 -1 47 8.5t20 28.5v9h-67v100z" />
    <glyph glyph-name="Tcommaaccent" unicode="&#x21a;" horiz-adv-x="690" 
d="M212 0v106h69v488h-160v-150h-106v256h660v-256h-106v150h-160v-488h69v-106h-266zM275 -60h140v-105q0 -31 -12 -54t-28 -34.5t-38 -18.5t-35.5 -8.5t-26.5 -1.5v68q29 -1 50 9t21 30v9h-71v106z" />
    <glyph glyph-name="tcommaaccent" unicode="&#x21b;" horiz-adv-x="342" 
d="M14 508h82v152h120v-152h106v-82h-106v-287q0 -23 2 -33.5t15.5 -20t41.5 -9.5q27 0 47 6v-82q-45 -12 -98 -12q-44 0 -72.5 11.5t-39 31.5t-13.5 34.5t-3 33.5v327h-82v82zM151 -60h132v-99q0 -36 -16 -60.5t-40.5 -34t-42 -13t-33.5 -3.5v64q27 -1 47 8.5t20 28.5v9
h-67v100z" />
    <glyph glyph-name="uni0259" unicode="&#x259;" horiz-adv-x="589" 
d="M418 203h-253q0 -21 4.5 -42t16.5 -45t37.5 -39t62.5 -15q39 0 67 15t41 39t18.5 45.5t5.5 41.5zM282 446q-96 0 -143 -85h-97v147h82v-47q62 67 172 67q66 0 115 -22.5t74 -53t39.5 -71t18 -67t3.5 -51.5q0 -133 -66 -208t-195 -75q-29 0 -55 3.5t-64.5 21.5t-65.5 48
t-45.5 90t-16.5 142h380q0 37 -11 71t-43.5 62t-81.5 28z" />
    <glyph glyph-name="afii57929" unicode="&#x2bc;" horiz-adv-x="232" 
d="M50 700h132v-139q0 -78 -38.5 -113.5t-93.5 -40.5v69q30 2 48.5 23.5t18.5 54.5v11h-67v135z" />
    <glyph glyph-name="circumflex" unicode="&#x2c6;" horiz-adv-x="500" 
d="M250 657l-90 -89h-110l120 132h160l120 -132h-110z" />
    <glyph glyph-name="caron" unicode="&#x2c7;" horiz-adv-x="500" 
d="M250 611l90 89h110l-120 -132h-160l-120 132h110z" />
    <glyph glyph-name="breve" unicode="&#x2d8;" horiz-adv-x="494" 
d="M342 700h102q-8 -55 -54.5 -99t-142.5 -44t-142.5 44t-54.5 99h102q4 -34 30 -53.5t65 -19.5t65 19.5t30 53.5z" />
    <glyph glyph-name="dotaccent" unicode="&#x2d9;" horiz-adv-x="220" 
d="M50 594v106h120v-106h-120z" />
    <glyph glyph-name="ring" unicode="&#x2da;" horiz-adv-x="288" 
d="M50 634q0 38 28 66t66 28t66 -28t28 -66t-28 -66t-66 -28t-66 28t-28 66zM100 634q0 -18 13 -31t31 -13t31 13t13 31t-13 31t-31 13t-31 -13t-13 -31z" />
    <glyph glyph-name="ogonek" unicode="&#x2db;" horiz-adv-x="370" 
d="M123 0h100q-39 -13 -61 -45t-22 -75q0 -27 13.5 -43.5t37.5 -16.5q25 0 37.5 17t11.5 40h80q-1 -11 -4 -23t-13 -30t-24.5 -31t-41 -23t-60.5 -10q-64 0 -95.5 34.5t-31.5 81.5q0 37 18 71t55 53z" />
    <glyph glyph-name="tilde" unicode="&#x2dc;" horiz-adv-x="484" 
d="M360 700h74q-8 -47 -41.5 -74.5t-76.5 -27.5q-33 0 -77 22q-48 22 -69 22q-39 0 -46 -36h-74q6 42 38 72t80 30q35 0 77 -20q7 -3 18.5 -9t17 -8.5t14.5 -4.5t19 -2q39 0 46 36z" />
    <glyph glyph-name="hungarumlaut" unicode="&#x2dd;" horiz-adv-x="460" 
d="M120 700h120l-110 -132h-80zM290 700h120l-110 -132h-80z" />
    <glyph glyph-name="gravecomb" unicode="&#x300;" horiz-adv-x="2" 
d="M-316 700l70 -132h-90l-110 132h130z" />
    <glyph glyph-name="acutecomb" unicode="&#x301;" horiz-adv-x="2" 
d="M-277 700h130l-110 -132h-90z" />
    <glyph glyph-name="uni0394" unicode="&#x394;" horiz-adv-x="676" 
d="M336 564l-154 -458h308zM10 0l264 700h128l264 -700h-656z" />
    <glyph glyph-name="uni0394" unicode="&#x2206;" horiz-adv-x="676" 
d="M336 564l-154 -458h308zM10 0l264 700h128l264 -700h-656z" />
    <glyph glyph-name="uni03A9" unicode="&#x3a9;" horiz-adv-x="824" 
d="M698 196h96v-196h-327v213q62 14 104 60.5t42 133.5q0 21 -3 42.5t-15.5 53t-32.5 55t-59 40.5t-91 17t-91 -17t-59 -40.5t-32.5 -55t-15.5 -53t-3 -42.5q0 -87 42 -133.5t104 -60.5v-213h-327v196h96v-100h125v51q-76 20 -126.5 86t-50.5 171q0 64 16 115.5t39.5 84
t58.5 56t64 35t66 18t55 7.5t39 1t39 -1t55 -7.5t66 -18t64 -35t58.5 -56t39.5 -84t16 -115.5q0 -105 -50.5 -171t-126.5 -86v-51h125v100z" />
    <glyph glyph-name="uni03A9" unicode="&#x2126;" horiz-adv-x="824" 
d="M698 196h96v-196h-327v213q62 14 104 60.5t42 133.5q0 21 -3 42.5t-15.5 53t-32.5 55t-59 40.5t-91 17t-91 -17t-59 -40.5t-32.5 -55t-15.5 -53t-3 -42.5q0 -87 42 -133.5t104 -60.5v-213h-327v196h96v-100h125v51q-76 20 -126.5 86t-50.5 171q0 64 16 115.5t39.5 84
t58.5 56t64 35t66 18t55 7.5t39 1t39 -1t55 -7.5t66 -18t64 -35t58.5 -56t39.5 -84t16 -115.5q0 -105 -50.5 -171t-126.5 -86v-51h125v100z" />
    <glyph glyph-name="pi" unicode="&#x3c0;" horiz-adv-x="633" 
d="M61 0v82h64v344h-13q-46 0 -77 -20v82q36 20 95 20h463v-82h-64v-426h-120v426h-164v-426h-184z" />
    <glyph glyph-name="afii10023" unicode="&#x401;" horiz-adv-x="690" 
d="M55 594v106h594v-225h-106v119h-291v-182h245v-106h-245v-200h302v136h106v-242h-605v106h69v488h-69zM175 772v96h128v-96h-128zM413 772v96h128v-96h-128z" />
    <glyph glyph-name="afii10051" unicode="&#x402;" horiz-adv-x="839" 
d="M212 0v106h69v488h-160v-150h-106v256h660v-226h-106v120h-160v-196q56 7 131 7q26 0 44 -1t46.5 -5t49 -11.5t44 -23t38 -36.5t24.5 -54t10 -75q0 -22 -3.5 -44.5t-17 -54.5t-36 -55.5t-65 -40.5t-98.5 -17q-37 0 -69 13v106q29 -13 58 -13q94 0 94 102q0 29 -8.5 49.5
t-20 31t-32 16t-35 6.5t-37.5 1q-55 0 -117 -7v-186h46v-106h-243z" />
    <glyph glyph-name="afii10052" unicode="&#x403;" horiz-adv-x="604" 
d="M55 594v106h534v-256h-106v150h-231v-488h69v-106h-266v106h69v488h-69zM344 900h136l-118 -140h-96z" />
    <glyph glyph-name="afii10053" unicode="&#x404;" horiz-adv-x="733" 
d="M569 700h106v-225h-106q-7 55 -51 97.5t-133 42.5q-176 0 -199 -203h303v-106h-306q10 -104 68.5 -162.5t146.5 -58.5q81 0 123.5 45.5t46.5 108.5h127q-4 -36 -13 -68.5t-30.5 -69t-53.5 -62.5t-85 -43t-121 -17q-19 0 -37 1t-55 8.5t-67.5 20t-67 39.5t-61.5 63.5
t-42 95t-17 131.5q0 104 26.5 180.5t74 119.5t104.5 63t126 20q126 0 193 -80v59z" />
    <glyph glyph-name="afii10054" unicode="&#x405;" horiz-adv-x="684" 
d="M501 700h106v-195h-106q-5 33 -23.5 57t-44 34.5t-46 14.5t-38.5 4q-135 0 -135 -91q0 -26 12.5 -44t38 -29t47.5 -16.5t58 -11.5q69 -12 112 -25t82 -37t57 -63t18 -95q0 -224 -279 -224q-60 0 -113.5 20t-81.5 52v-51h-106v229h106q1 -23 10.5 -45.5t29.5 -46t58.5 -38
t90.5 -14.5q148 0 148 105q0 30 -12.5 51t-35.5 32t-38.5 16t-39.5 9q-53 9 -82 17q-49 10 -84 23t-67.5 35.5t-49 59.5t-16.5 88q0 46 14.5 82t40 56.5t51.5 34t59 19t51.5 7t39.5 1.5q49 0 97 -18t71 -45v42z" />
    <glyph glyph-name="afii10055" unicode="&#x406;" horiz-adv-x="376" 
d="M55 594v106h266v-106h-69v-488h69v-106h-266v106h69v488h-69z" />
    <glyph glyph-name="afii10056" unicode="&#x407;" horiz-adv-x="376" 
d="M38 772v88h120v-88h-120zM218 772v88h120v-88h-120zM55 594v106h266v-106h-69v-488h69v-106h-266v106h69v488h-69z" />
    <glyph glyph-name="afii10057" unicode="&#x408;" horiz-adv-x="580" 
d="M271 594v106h274v-106h-69v-346q0 -43 -3 -74t-16 -70.5t-36 -64.5t-67 -42.5t-105 -17.5q-67 0 -114 20t-71 54.5t-34 71t-10 79.5v39h128v-29q0 -129 102 -129q48 0 73 27.5t25 119.5v362h-77z" />
    <glyph glyph-name="afii10058" unicode="&#x409;" horiz-adv-x="1099" 
d="M449 0v106h69v488h-216v-172q0 -51 -3.5 -96t-13.5 -101t-31 -97.5t-52.5 -76t-82 -48.5t-114.5 -3v106q37 -7 65.5 5t46.5 40t30 61t17.5 77t7.5 79.5t2 76.5v149h-69v106h611v-106h-69v-164h166q259 0 259 -213q0 -36 -14 -71.5t-42.5 -69.5t-82.5 -55t-125 -21h-359z
M647 324v-218h142q151 0 151 111q0 107 -148 107h-145z" />
    <glyph glyph-name="afii10059" unicode="&#x40a;" horiz-adv-x="1147" 
d="M498 594v106h266v-106h-69v-164h166q259 0 259 -213q0 -36 -14 -71.5t-42.5 -69.5t-82.5 -55t-125 -21h-358v106h69v218h-315v-218h69v-106h-266v106h69v488h-69v106h266v-106h-69v-164h315v164h-69zM695 324v-218h142q151 0 151 111q0 107 -148 107h-145z" />
    <glyph glyph-name="afii10060" unicode="&#x40b;" horiz-adv-x="885" 
d="M675 700v-226h-106v120h-160v-190q78 8 128 8q123 0 191 -45t68 -155v-106h69v-106h-197v185q0 59 -30 90t-117 31q-48 0 -112 -8v-192h69v-106h-266v106h69v488h-160v-150h-106v256h660z" />
    <glyph glyph-name="afii10061" unicode="&#x40c;" horiz-adv-x="684" 
d="M272 348l186 246h-51v106h262v-106h-68l-192 -237l210 -251h60v-106h-269v106h55zM252 594v-488h69v-106h-266v106h69v488h-69v106h266v-106h-69zM400 900h136l-118 -140h-96z" />
    <glyph glyph-name="afii10062" unicode="&#x40e;" horiz-adv-x="658" 
d="M5 594v106h266v-106h-54l135 -272l100 272h-65v106h266v-106h-69l-257 -594h-176v106h104l28 78l-218 410h-60zM119 900h103q4 -38 33.5 -59.5t73.5 -21.5t73.5 21.5t33.5 59.5h103q-13 -68 -66.5 -110.5t-143.5 -42.5t-143.5 42.5t-66.5 110.5z" />
    <glyph glyph-name="afii10145" unicode="&#x40f;" horiz-adv-x="811" 
d="M490 594v106h266v-106h-69v-488h69v-106h-292v-185h-120v185h-289v106h69v488h-69v106h266v-106h-69v-488h307v488h-69z" />
    <glyph glyph-name="afii10017" unicode="&#x410;" horiz-adv-x="726" 
d="M207 599v101h225l224 -594h70v-106h-269v96h65l-21 61h-274l-21 -61h57v-96h-263v106h80l187 493h-60zM363 574l-106 -314h210z" />
    <glyph glyph-name="afii10018" unicode="&#x411;" horiz-adv-x="731" 
d="M55 594v106h590v-225h-106v119h-287v-172h188q30 0 56 -2.5t64 -14.5t65 -33t46.5 -61.5t19.5 -96.5q0 -57 -23 -99t-53.5 -63.5t-70 -34t-63 -15t-42.5 -2.5h-384v106h69v488h-69zM252 316v-210h160q147 0 147 109q0 101 -144 101h-163z" />
    <glyph glyph-name="afii10019" unicode="&#x412;" horiz-adv-x="736" 
d="M55 594v106h394q64 0 109 -16.5t67.5 -44t32 -56t9.5 -60.5q0 -58 -32.5 -99.5t-83.5 -50.5v-2q25 -4 47.5 -14.5t46 -29.5t37.5 -53t14 -78q0 -196 -261 -196h-380v106h69v488h-69zM252 310v-204h175q65 0 101 22.5t36 81.5q0 33 -12.5 54.5t-35.5 30.5t-42 12t-44 3
h-178zM252 594v-178h169q114 0 114 83q0 95 -117 95h-166z" />
    <glyph glyph-name="afii10020" unicode="&#x413;" horiz-adv-x="604" 
d="M55 594v106h534v-256h-106v150h-231v-488h69v-106h-266v106h69v488h-69z" />
    <glyph glyph-name="afii10021" unicode="&#x414;" horiz-adv-x="793" 
d="M657 106h96l-6 -264h-112v158h-507v-158h-112l-6 264h60q121 155 121 443v45h-79v106h614v-106h-69v-488zM529 594h-210v-84q0 -126 -20 -218.5t-77 -185.5h307v488z" />
    <glyph glyph-name="afii10022" unicode="&#x415;" horiz-adv-x="690" 
d="M55 594v106h594v-225h-106v119h-291v-182h245v-106h-245v-200h302v136h106v-242h-605v106h69v488h-69z" />
    <glyph glyph-name="afii10024" unicode="&#x416;" horiz-adv-x="1017" 
d="M446 96v507h-59v97h243v-97h-59v-507h59v-96h-243v96h59zM591 358l177 241h-52v101h255v-106h-64l-179 -227l206 -261h78v-106h-156zM249 599l177 -241l-265 -358h-156v106h78l206 261l-179 227h-64v106h255v-101h-52z" />
    <glyph glyph-name="afii10025" unicode="&#x417;" horiz-adv-x="679" 
d="M79 700h106v-57q65 78 188 78q238 0 238 -195q0 -64 -35.5 -107t-81.5 -50v-2q62 -9 103.5 -54.5t41.5 -123.5q0 -28 -6.5 -54t-26 -55.5t-50.5 -50.5t-86 -35.5t-127 -14.5q-287 0 -298 260h127q0 -25 7 -49t25 -49t55.5 -40.5t91.5 -15.5q73 0 114.5 30.5t41.5 86.5
q0 110 -138 110h-96v106h83q16 0 32.5 2.5t39 11t37 30t14.5 52.5q0 101 -141 101q-60 0 -101 -33t-52 -76h-106v194z" />
    <glyph glyph-name="afii10026" unicode="&#x418;" horiz-adv-x="834" 
d="M55 594v106h264v-106h-67v-406l333 512h194v-106h-69v-488h69v-106h-264v106h67v406l-333 -512h-194v106h69v488h-69z" />
    <glyph glyph-name="afii10027" unicode="&#x419;" horiz-adv-x="834" 
d="M55 594v106h264v-106h-67v-406l333 512h194v-106h-69v-488h69v-106h-264v106h67v406l-333 -512h-194v106h69v488h-69zM207 900h103q4 -38 33.5 -59.5t73.5 -21.5t73.5 21.5t33.5 59.5h103q-13 -68 -66.5 -110.5t-143.5 -42.5t-143.5 42.5t-66.5 110.5z" />
    <glyph glyph-name="afii10028" unicode="&#x41a;" horiz-adv-x="684" 
d="M272 348l186 246h-51v106h262v-106h-68l-192 -237l210 -251h60v-106h-269v106h55zM252 594v-488h69v-106h-266v106h69v488h-69v106h266v-106h-69z" />
    <glyph glyph-name="afii10029" unicode="&#x41b;" horiz-adv-x="770" 
d="M449 0v106h69v488h-216v-172q0 -51 -3.5 -96t-13.5 -101t-31 -97.5t-52.5 -76t-82 -48.5t-114.5 -3v106q37 -7 65.5 5t46.5 40t30 61t17.5 77t7.5 79.5t2 76.5v149h-69v106h610v-106h-69v-488h69v-106h-266z" />
    <glyph glyph-name="afii10030" unicode="&#x41c;" horiz-adv-x="1040" 
d="M724 0v106h64v421l2 27h-2l-220 -554h-96l-220 554h-2l2 -27v-421h64v-106h-261v106h69v488h-69v106h262l205 -531l205 531h258v-106h-69v-488h69v-106h-261z" />
    <glyph glyph-name="afii10031" unicode="&#x41d;" horiz-adv-x="819" 
d="M498 0v106h69v208h-315v-208h69v-106h-266v106h69v488h-69v106h266v-106h-69v-174h315v174h-69v106h266v-106h-69v-488h69v-106h-266z" />
    <glyph glyph-name="afii10032" unicode="&#x41e;" horiz-adv-x="776" 
d="M45 350q0 74 16.5 134.5t40.5 98t59.5 65.5t65.5 41.5t67 21t55.5 9t38.5 1.5t38.5 -1.5t55.5 -9t67 -21t65.5 -41.5t59.5 -65.5t40.5 -98t16.5 -134.5t-16.5 -134.5t-40.5 -98t-59.5 -65.5t-65.5 -41.5t-67 -21t-55.5 -9t-38.5 -1.5t-38.5 1.5t-55.5 9t-67 21
t-65.5 41.5t-59.5 65.5t-40.5 98t-16.5 134.5zM182 350q0 -46 8.5 -88t29.5 -84t64 -67.5t104 -25.5t104 25.5t64 67.5t29.5 84t8.5 88t-8.5 88t-29.5 84t-64 67.5t-104 25.5t-104 -25.5t-64 -67.5t-29.5 -84t-8.5 -88z" />
    <glyph glyph-name="afii10033" unicode="&#x41f;" horiz-adv-x="811" 
d="M490 0v106h69v488h-307v-488h69v-106h-266v106h69v488h-69v106h701v-106h-69v-488h69v-106h-266z" />
    <glyph glyph-name="afii10034" unicode="&#x420;" horiz-adv-x="702" 
d="M55 594v106h341q38 0 72 -4.5t73.5 -18.5t67.5 -37t47 -64t19 -95q0 -97 -69.5 -160t-210.5 -63h-143v-152h69v-106h-266v106h69v488h-69zM252 594v-230h142q25 0 48.5 5t47.5 16.5t38.5 35.5t14.5 58q0 37 -15.5 61.5t-41 35t-47 14.5t-44.5 4h-143z" />
    <glyph glyph-name="afii10035" unicode="&#x421;" horiz-adv-x="733" 
d="M569 700h106v-225h-106q-7 55 -51 97.5t-133 42.5q-56 0 -97 -21.5t-63.5 -60.5t-32.5 -85.5t-10 -104.5q0 -121 59.5 -189.5t156.5 -68.5q81 0 123.5 45.5t46.5 108.5h127q-4 -36 -13 -68.5t-30.5 -69t-53.5 -62.5t-85 -43t-121 -17q-19 0 -37 1t-55 8.5t-67.5 20
t-67 39.5t-61.5 63.5t-42 95t-17 131.5q0 104 26.5 180.5t74 119.5t104.5 63t126 20q126 0 193 -80v59z" />
    <glyph glyph-name="afii10036" unicode="&#x422;" horiz-adv-x="690" 
d="M212 0v106h69v488h-160v-150h-106v256h660v-256h-106v150h-160v-488h69v-106h-266z" />
    <glyph glyph-name="afii10037" unicode="&#x423;" horiz-adv-x="658" 
d="M5 594v106h266v-106h-54l135 -272l100 272h-65v106h266v-106h-69l-257 -594h-176v106h104l28 78l-218 410h-60z" />
    <glyph glyph-name="afii10038" unicode="&#x424;" horiz-adv-x="926" 
d="M330 659v96h266v-96h-69v-43h27q76 0 135.5 -16t95 -41t59 -59.5t32 -67.5t8.5 -68q0 -50 -15 -91t-38 -66.5t-56 -44.5t-62 -28t-64.5 -14.5t-54.5 -6.5t-40 -1h-27v-46h69v-96h-266v96h69v46h-27q-21 0 -40.5 1t-54.5 6.5t-64 15t-62 28.5t-56 44.5t-38 66t-15 90.5
q0 35 8.5 68t32 67.5t59 59.5t95 41t135.5 16h27v43h-69zM527 209h9q66 0 110 12.5t65 36t28.5 48t7.5 58.5q0 33 -7.5 57.5t-28.5 48.5t-65 36.5t-110 12.5h-9v-310zM399 209v310h-9q-66 0 -110 -12.5t-65 -36.5t-28.5 -48.5t-7.5 -57.5t7.5 -57.5t28.5 -48.5t65 -36.5
t110 -12.5h9z" />
    <glyph glyph-name="afii10039" unicode="&#x425;" horiz-adv-x="697" 
d="M32 594v106h272v-106h-53l102 -150l106 150h-47v106h257v-106h-62l-177 -236l196 -252h61v-106h-267v106h43l-120 169l-120 -169h46v-106h-259v106h62l198 252l-177 236h-61z" />
    <glyph glyph-name="afii10040" unicode="&#x426;" horiz-adv-x="828" 
d="M55 594v106h266v-106h-69v-488h312v488h-69v106h266v-106h-69v-488h96l-6 -264h-112v158h-615v106h69v488h-69z" />
    <glyph glyph-name="afii10041" unicode="&#x427;" horiz-adv-x="738" 
d="M417 0v106h69v190q-78 -8 -143 -8q-123 0 -191 45t-68 155v106h-69v106h266v-106h-69v-79q0 -59 30 -90t117 -31q63 0 127 8v192h-69v106h266v-106h-69v-488h69v-106h-266z" />
    <glyph glyph-name="afii10042" unicode="&#x428;" horiz-adv-x="1128" 
d="M55 594v106h262v-106h-65v-488h248v488h-65v106h258v-106h-65v-488h248v488h-65v106h262v-106h-69v-488h69v-106h-1018v106h69v488h-69z" />
    <glyph glyph-name="afii10043" unicode="&#x429;" horiz-adv-x="1140" 
d="M811 594v106h262v-106h-69v-488h96l-6 -264h-112v158h-927v106h69v488h-69v106h262v-106h-65v-488h248v488h-65v106h258v-106h-65v-488h248v488h-65z" />
    <glyph glyph-name="afii10044" unicode="&#x42a;" horiz-adv-x="827" 
d="M121 594v-150h-106v256h429v-106h-69v-164h166q259 0 259 -214q0 -38 -13 -73.5t-41 -68.5t-82 -53.5t-126 -20.5h-360v106h69v488h-126zM375 324v-218h142q151 0 151 111q0 107 -148 107h-145z" />
    <glyph glyph-name="afii10045" unicode="&#x42b;" horiz-adv-x="1024" 
d="M703 594v106h266v-106h-69v-488h69v-106h-253v106h56v488h-69zM55 594v106h266v-106h-69v-164h161q259 0 259 -213q0 -36 -13 -71.5t-41.5 -69.5t-83 -55t-126.5 -21h-353v106h69v488h-69zM252 324v-218h137q151 0 151 111q0 107 -148 107h-140z" />
    <glyph glyph-name="afii10046" unicode="&#x42c;" horiz-adv-x="704" 
d="M55 594v106h266v-106h-69v-164h166q259 0 259 -213q0 -36 -14 -71.5t-42.5 -69.5t-82.5 -55t-125 -21h-358v106h69v488h-69zM252 324v-218h142q151 0 151 111q0 107 -148 107h-145z" />
    <glyph glyph-name="afii10047" unicode="&#x42d;" horiz-adv-x="748" 
d="M65 700h106v-59q80 80 209 80q76 0 134 -21t93.5 -56t57.5 -86t30 -103.5t8 -116.5q0 -175 -95 -267t-256 -92q-66 0 -119.5 17.5t-86.5 44t-56 62.5t-32.5 69t-12.5 67h127q4 -63 52 -108.5t134 -45.5q56 0 97.5 21.5t63.5 56.5t33 70.5t13 72.5h-306v106h306
q-2 37 -12 70t-30.5 64.5t-60 50t-92.5 18.5q-80 0 -133.5 -39.5t-65.5 -100.5h-106v225z" />
    <glyph glyph-name="afii10048" unicode="&#x42e;" horiz-adv-x="1079" 
d="M55 594v106h266v-106h-69v-174h104q4 40 15 78.5t36 80t61 72t94 50.5t131 20q20 0 38.5 -1.5t55 -9t66.5 -21t65.5 -41.5t59.5 -65.5t40 -98t16 -134.5t-16 -134.5t-40 -98t-59.5 -65.5t-65.5 -41.5t-66.5 -21t-55 -9t-38.5 -1.5q-76 0 -136 21.5t-96 54.5t-60.5 79
t-34.5 89.5t-13 90.5h-101v-208h69v-106h-266v106h69v488h-69zM693 85q50 0 87.5 17.5t59 44t35 64t18 70.5t4.5 69t-4.5 69t-18 70.5t-35 64t-59 44t-87.5 17.5t-87.5 -17.5t-59 -44t-35 -64t-18 -70.5t-4.5 -69t4.5 -69t18 -70.5t35 -64t59 -44t87.5 -17.5z" />
    <glyph glyph-name="afii10049" unicode="&#x42f;" horiz-adv-x="755" 
d="M434 0v106h69v155h-121l-169 -261h-170v106h84l122 169q-22 3 -42.5 8.5t-48 20.5t-47.5 36t-34 57t-14 82q0 57 21.5 99t51.5 65t72.5 36.5t75.5 17t69 3.5h347v-106h-69v-488h69v-106h-266zM503 594h-155q-153 0 -153 -114q0 -35 16.5 -59.5t44 -35t51.5 -14.5t50 -4
h146v227z" />
    <glyph glyph-name="afii10065" unicode="&#x430;" horiz-adv-x="585" 
d="M393 0v63q-59 -75 -169 -75q-50 0 -87 11.5t-55.5 27.5t-29 38.5t-13 37.5t-2.5 32q0 37 14.5 65.5t36 43.5t37.5 22.5t29 10.5q17 5 36 8t43 6l39 5l49 7l28 4t17 6.5t12.5 16t2.5 28.5q0 88 -99 88q-62 0 -91 -27.5t-27 -67.5h-114q-2 76 56 126.5t176 50.5
q58 0 101 -13.5t65 -32t34.5 -45.5t15.5 -46.5t3 -42.5v-266h64v-82h-172zM381 226v18q-18 -13 -86 -21q-32 -4 -46.5 -6.5t-35 -8.5t-29.5 -14t-16 -22t-7 -33q0 -31 19.5 -50t59.5 -19q26 0 48 6t44.5 22t35.5 48.5t13 79.5z" />
    <glyph glyph-name="afii10066" unicode="&#x431;" horiz-adv-x="634" 
d="M468 739h98q-2 -33 -16.5 -57.5t-31.5 -38t-46.5 -22.5t-48 -12t-50.5 -6q-28 -3 -43.5 -5.5t-45 -9.5t-47 -15.5t-39.5 -25.5t-34 -38t-20 -53t-6 -72h2q23 64 80 100t126 36q106 0 175.5 -72.5t69.5 -197.5q0 -53 -15.5 -100t-46.5 -85.5t-84 -61.5t-121 -23
q-54 0 -97.5 14t-71 34.5t-47.5 51.5t-29.5 57t-14.5 59t-6 49.5t-1 36.5q0 184 38 279q31 71 95 100.5t190 42.5q79 7 88 35zM185 250q0 -60 14.5 -100.5t39 -58t44 -23.5t41.5 -6t41.5 6t44 23.5t39 58t14.5 100.5t-14.5 100.5t-39 58t-44 23.5t-41.5 6t-41.5 -6
t-44 -23.5t-39 -58t-14.5 -100.5z" />
    <glyph glyph-name="afii10067" unicode="&#x432;" horiz-adv-x="601" 
d="M40 426v82h327q81 0 128.5 -32t47.5 -91q0 -52 -30 -81.5t-68 -36.5v-2q53 -11 84.5 -39.5t31.5 -86.5q0 -69 -53.5 -104t-132.5 -35h-335v82h64v344h-64zM224 222v-140h114q99 0 99 67q0 73 -103 73h-110zM224 426v-122h103q51 0 72 19t21 45q0 58 -80 58h-116z" />
    <glyph glyph-name="afii10068" unicode="&#x433;" horiz-adv-x="485" 
d="M40 426v82h440v-200h-82v118h-174v-344h64v-82h-248v82h64v344h-64z" />
    <glyph glyph-name="afii10069" unicode="&#x434;" horiz-adv-x="637" 
d="M87 426v82h511v-82h-64v-344h88l-10 -214h-100v132h-397v-132h-100l-10 214h70q81 112 81 337v7h-69zM268 426v-62q0 -165 -66 -282h212v344h-146z" />
    <glyph glyph-name="afii10070" unicode="&#x435;" horiz-adv-x="594" 
d="M429 147h114q-6 -29 -18.5 -54.5t-38 -53t-73.5 -43.5t-112 -16q-24 0 -47.5 2.5t-64.5 17.5t-70.5 40.5t-52.5 79t-23 125.5q0 133 65.5 208t193.5 75q237 0 248 -276q0 -6 0.5 -15t0.5 -14h-380q0 -27 7 -53t22 -51.5t44 -41t67 -15.5q43 0 77.5 22.5t40.5 62.5z
M171 305h253q0 21 -4.5 42t-16.5 45t-37.5 39t-62.5 15q-65 0 -99.5 -43t-32.5 -98z" />
    <glyph glyph-name="afii10072" unicode="&#x436;" horiz-adv-x="786" 
d="M333 82v347h-53v79h222v-79h-49v-347h59v-82h-238v82h59zM468 256l122 173h-36v79h214v-82h-55l-130 -157l132 -187h64v-82h-144zM196 429l122 -173l-167 -256h-144v82h64l132 187l-130 157h-55v82h214v-79h-36z" />
    <glyph glyph-name="afii10073" unicode="&#x437;" horiz-adv-x="547" 
d="M32 159h114q0 -37 26.5 -67t93.5 -30q66 0 91.5 25t25.5 58q0 71 -101 71h-68v82h55q49 0 69.5 21t20.5 51q0 76 -89 76q-31 0 -62.5 -20t-50.5 -57h-93v139h82v-40q50 60 145 60q105 0 149.5 -40t44.5 -104q0 -44 -24 -78.5t-62 -40.5v-2q55 -11 81.5 -42t26.5 -72
q0 -32 -10.5 -59t-35 -53.5t-75 -41.5t-121.5 -15q-57 0 -100.5 13t-67.5 31.5t-39 44.5t-20 46.5t-6 43.5z" />
    <glyph glyph-name="afii10074" unicode="&#x438;" horiz-adv-x="676" 
d="M40 82h64v344h-64v82h248v-82h-64v-284l216 366h196v-82h-64v-344h64v-82h-248v82h64v284l-216 -366h-196v82z" />
    <glyph glyph-name="afii10075" unicode="&#x439;" horiz-adv-x="676" 
d="M40 82h64v344h-64v82h248v-82h-64v-284l216 366h196v-82h-64v-344h64v-82h-248v82h64v284l-216 -366h-196v82zM431 700h102q-8 -55 -54.5 -99t-142.5 -44t-142.5 44t-54.5 99h102q4 -34 30 -53.5t65 -19.5t65 19.5t30 53.5z" />
    <glyph glyph-name="afii10076" unicode="&#x43a;" horiz-adv-x="574" 
d="M224 426v-344h60v-82h-244v82h64v344h-64v82h244v-82h-60zM239 255l147 171h-40v82h217v-82h-48l-153 -161l156 -183h56v-82h-136z" />
    <glyph glyph-name="afii10077" unicode="&#x43b;" horiz-adv-x="621" 
d="M333 0v82h64v344h-144v-77q0 -65 -3 -109.5t-17 -99.5t-38.5 -86.5t-71.5 -48.5t-113 -5v82q24 -4 43 0t32.5 16.5t23.5 26.5t15.5 39l9.5 43.5t5 51l1.5 50t0.5 51.5v66h-64v82h504v-82h-64v-344h64v-82h-248z" />
    <glyph glyph-name="afii10078" unicode="&#x43c;" horiz-adv-x="842" 
d="M802 82v-82h-243v82h59v266l2 27h-2l-154 -375h-86l-154 375h-2l2 -27v-266h59v-82h-243v82h64v344h-64v82h233l153 -393l153 393h223v-82h-64v-344h64z" />
    <glyph glyph-name="afii10079" unicode="&#x43d;" horiz-adv-x="672" 
d="M388 0v82h60v144h-224v-144h60v-82h-244v82h64v344h-64v82h244v-82h-60v-118h224v118h-60v82h244v-82h-64v-344h64v-82h-244z" />
    <glyph glyph-name="afii10080" unicode="&#x43e;" horiz-adv-x="610" 
d="M43 254q0 33 6 66t24 72t46 68t76 48.5t110 19.5t110 -19.5t76 -48.5t46 -68t24 -72t6 -66t-6 -66t-24 -72t-46 -68t-76 -48.5t-110 -19.5t-110 19.5t-76 48.5t-46 67.5t-24 72t-6 66.5zM171 254q0 -61 14 -102.5t37.5 -59.5t42.5 -24t40 -6t40 6t42.5 24t37.5 59.5
t14 102.5t-14 102.5t-37.5 59.5t-42.5 24t-40 6t-40 -6t-42.5 -24t-37.5 -59.5t-14 -102.5z" />
    <glyph glyph-name="afii10081" unicode="&#x43f;" horiz-adv-x="673" 
d="M385 0v82h64v344h-225v-344h64v-82h-248v82h64v344h-64v82h593v-82h-64v-344h64v-82h-248z" />
    <glyph glyph-name="afii10082" unicode="&#x440;" horiz-adv-x="668" 
d="M40 426v82h174v-50h2q56 70 164 70q46 0 87.5 -15t78 -46t58 -85t21.5 -125q0 -36 -5.5 -70.5t-22 -73t-42 -67t-70 -47.5t-101.5 -19q-12 0 -26 1.5t-42.5 7t-53 22t-38.5 41.5v-155h64v-82h-248v82h64v529h-64zM215 253q0 -88 35 -139.5t100 -51.5q24 0 46 7t46.5 25
t39.5 58.5t15 97.5q0 101 -40.5 148.5t-101.5 47.5q-23 0 -44.5 -7.5t-44.5 -26.5t-37 -60t-14 -99z" />
    <glyph glyph-name="afii10083" unicode="&#x441;" horiz-adv-x="578" 
d="M519 339h-84q-4 43 -37.5 75t-91.5 32q-135 0 -135 -193q0 -56 13 -96t34.5 -59.5t43.5 -27.5t46 -8q59 0 86 38.5t30 85.5h114q-3 -25 -10 -50t-24.5 -54t-42.5 -51t-67.5 -36.5t-95.5 -14.5q-126 0 -190.5 74t-64.5 199q0 62 13 110.5t36 77t47.5 47.5t55.5 27t51 10.5
t42 2.5q99 0 149 -61v41h82v-169z" />
    <glyph glyph-name="afii10084" unicode="&#x442;" horiz-adv-x="542" 
d="M147 0v82h64v344h-124v-118h-82v200h532v-200h-82v118h-124v-344h64v-82h-248z" />
    <glyph glyph-name="afii10085" unicode="&#x443;" horiz-adv-x="567" 
d="M-5 426v82h243v-82h-52l118 -296l94 296h-52v82h226v-82h-61l-216 -611h-171v82h92l35 94l-201 435h-55z" />
    <glyph glyph-name="afii10086" unicode="&#x444;" horiz-adv-x="846" 
d="M299 618v82h184v-180q40 1 79.5 -4t84.5 -22t78.5 -45.5t55.5 -78.5t22 -116q0 -259 -320 -266v-91h64v-82h-248v82h64v91q-49 1 -89.5 7t-85 23.5t-75 45.5t-50.5 76.5t-20 113.5q0 66 22 116t55.5 78.5t78.5 45.5t84.5 22t79.5 4v98h-64zM483 438v-369q85 0 138.5 42.5
t53.5 142.5q0 184 -192 184zM363 69v369q-192 0 -192 -184q0 -100 53.5 -142.5t138.5 -42.5z" />
    <glyph glyph-name="afii10087" unicode="&#x445;" horiz-adv-x="558" 
d="M322 0v82h37l-77 107l-85 -107h37v-82h-227v82h64l144 183l-131 161h-58v82h230v-82h-40l66 -89l71 89h-38v82h222v-82h-58l-131 -161l144 -183h59v-82h-229z" />
    <glyph glyph-name="afii10088" unicode="&#x446;" horiz-adv-x="672" 
d="M40 426v82h248v-82h-64v-344h225v344h-64v82h248v-82h-64v-344h88l-10 -214h-100v132h-507v82h64v344h-64z" />
    <glyph glyph-name="afii10089" unicode="&#x447;" horiz-adv-x="604" 
d="M316 0v82h64v123q-45 -5 -114 -5q-62 0 -102.5 13t-58.5 38.5t-24.5 50.5t-6.5 60v64h-64v82h248v-82h-64v-55q0 -22 2.5 -35t12.5 -27t32.5 -20.5t58.5 -6.5q41 0 80 4v140h-64v82h248v-82h-64v-344h64v-82h-248z" />
    <glyph glyph-name="afii10090" unicode="&#x448;" horiz-adv-x="954" 
d="M40 426v82h243v-82h-59v-344h193v344h-59v82h238v-82h-59v-344h193v344h-59v82h243v-82h-64v-344h64v-82h-874v82h64v344h-64z" />
    <glyph glyph-name="afii10091" unicode="&#x449;" horiz-adv-x="953" 
d="M671 426v82h243v-82h-64v-344h88l-10 -214h-100v132h-788v82h64v344h-64v82h243v-82h-59v-344h193v344h-59v82h238v-82h-59v-344h193v344h-59z" />
    <glyph glyph-name="afii10092" unicode="&#x44a;" horiz-adv-x="654" 
d="M116 0v82h64v344h-93v-118h-82v200h359v-82h-64v-114h113q31 0 54 -1.5t56 -10.5t53.5 -24t36 -45.5t15.5 -72.5q0 -38 -14.5 -67.5t-36.5 -46t-51 -27t-53 -14t-47 -3.5h-310zM300 230v-148h112q37 0 64.5 19.5t27.5 56.5q0 72 -92 72h-112z" />
    <glyph glyph-name="afii10093" unicode="&#x44b;" horiz-adv-x="838" 
d="M550 426v82h248v-82h-64v-344h60v-82h-180v426h-64zM40 426v82h248v-82h-64v-114h109q31 0 54 -1.5t56 -10.5t53.5 -24t36 -45.5t15.5 -72.5q0 -38 -14.5 -67.5t-36.5 -46t-51 -27t-53 -14t-47 -3.5h-306v82h64v344h-64zM224 230v-148h108q37 0 64.5 19.5t27.5 56.5
q0 72 -92 72h-108z" />
    <glyph glyph-name="afii10094" unicode="&#x44c;" horiz-adv-x="588" 
d="M50 426v82h248v-82h-64v-114h113q31 0 54 -1.5t56 -10.5t53.5 -24t36 -45.5t15.5 -72.5q0 -38 -14.5 -67.5t-36.5 -46t-51 -27t-53 -14t-47 -3.5h-310v82h64v344h-64zM234 230v-148h112q37 0 64.5 19.5t27.5 56.5q0 72 -92 72h-112z" />
    <glyph glyph-name="afii10095" unicode="&#x44d;" horiz-adv-x="588" 
d="M220 220v82h197q-2 59 -40 101.5t-103 42.5q-53 0 -92 -31.5t-48 -75.5h-87v169h82v-46q62 66 172 66q26 0 50.5 -3t62.5 -19t64.5 -43.5t46.5 -81.5t20 -128q0 -15 -1 -29t-6.5 -43.5t-15 -53.5t-29.5 -52.5t-47.5 -48t-71 -33t-97.5 -13.5q-117 0 -175 57t-65 135h114
q2 -46 35 -78t89 -32q49 0 82.5 28t45.5 61.5t14 68.5h-197z" />
    <glyph glyph-name="afii10096" unicode="&#x44e;" horiz-adv-x="863" 
d="M40 426v82h244v-79h-60v-120h84q6 92 73.5 155.5t179.5 63.5q62 0 109.5 -19.5t75 -48.5t45 -68t23.5 -72t6 -66t-6 -66t-23.5 -72t-45 -68t-75 -48.5t-109.5 -19.5q-85 0 -144.5 38t-84.5 91.5t-27 117.5h-81v-148h60v-79h-244v82h64v344h-64zM430 254
q0 -61 13.5 -102.5t36.5 -59.5t41.5 -24t39.5 -6t39.5 6t41.5 24t36.5 59.5t13.5 102.5t-13.5 102.5t-36.5 59.5t-41.5 24t-39.5 6t-39.5 -6t-41.5 -24t-36.5 -59.5t-13.5 -102.5z" />
    <glyph glyph-name="afii10097" unicode="&#x44f;" horiz-adv-x="609" 
d="M321 0v82h64v107h-78l-133 -189h-138v82h67l85 110q-19 2 -39.5 9.5t-45 23t-40 46t-15.5 70.5q0 46 17.5 79.5t40 50t53.5 25.5t47.5 10.5t33.5 1.5h329v-82h-64v-344h64v-82h-248zM385 426h-96q-117 0 -117 -80q0 -75 117 -75h96v155z" />
    <glyph glyph-name="afii10071" unicode="&#x451;" horiz-adv-x="594" 
d="M429 147h114q-6 -29 -18.5 -54.5t-38 -53t-73.5 -43.5t-112 -16q-24 0 -47.5 2.5t-64.5 17.5t-70.5 40.5t-52.5 79t-23 125.5q0 133 65.5 208t193.5 75q237 0 248 -276q0 -6 0.5 -15t0.5 -14h-380q0 -27 7 -53t22 -51.5t44 -41t67 -15.5q43 0 77.5 22.5t40.5 62.5z
M171 305h253q0 21 -4.5 42t-16.5 45t-37.5 39t-62.5 15q-65 0 -99.5 -43t-32.5 -98zM144 594v106h116v-106h-116zM334 594v106h116v-106h-116z" />
    <glyph glyph-name="afii10099" unicode="&#x452;" horiz-adv-x="624" 
d="M24 570h80v58h-64v72h184v-130h205v-58h-205v-134q25 42 72 64.5t95 22.5q111 0 152 -63.5t41 -210.5q0 -102 -10 -167.5t-37 -115t-76 -71.5t-125 -22v87h14q82 0 100 118q6 41 6 175q0 44 -1.5 69t-7 51t-16.5 39t-31 21t-49 8q-16 0 -33.5 -5.5t-40 -19.5t-37.5 -47
t-16 -80v-149h64v-82h-248v82h64v430h-80v58z" />
    <glyph glyph-name="afii10100" unicode="&#x453;" horiz-adv-x="485" 
d="M40 426v82h440v-200h-82v118h-174v-344h64v-82h-248v82h64v344h-64zM285 700h130l-110 -132h-90z" />
    <glyph glyph-name="afii10101" unicode="&#x454;" horiz-adv-x="578" 
d="M519 339h-84q-4 43 -37.5 75t-91.5 32q-119 0 -133 -144h195v-82h-196q4 -47 18 -79.5t35 -49t41 -23t42 -6.5q59 0 86 38.5t30 85.5h114q-3 -25 -10 -50t-24.5 -54t-42.5 -51t-67.5 -36.5t-95.5 -14.5q-126 0 -190.5 74t-64.5 199q0 62 13 110.5t36 77t47.5 47.5
t55.5 27t51 10.5t42 2.5q99 0 149 -61v41h82v-169z" />
    <glyph glyph-name="afii10102" unicode="&#x455;" horiz-adv-x="550" 
d="M486 365h-86q-9 32 -40 56.5t-72 24.5q-95 0 -95 -63q0 -50 60 -67q17 -5 71 -14l40.5 -8t40.5 -10.5t41 -18t31.5 -26.5t24.5 -39.5t8 -53.5q0 -166 -207 -166q-113 0 -158 54v-34h-87v186h87q0 -54 39 -89t90 -35q50 0 80 16t30 63q0 33 -21 49.5t-73 25.5l-55 9
q-86 16 -126 51.5t-40 104.5q0 71 61 115q47 32 132 32q97 0 138 -52v32h86v-143z" />
    <glyph glyph-name="afii10103" unicode="&#x456;" horiz-adv-x="328" 
d="M40 426v82h184v-426h64v-82h-248v82h64v344h-64zM104 594v106h120v-106h-120z" />
    <glyph glyph-name="afii10104" unicode="&#x457;" horiz-adv-x="328" 
d="M10 594v106h110v-106h-110zM170 594v106h110v-106h-110zM40 426v82h184v-426h64v-82h-248v82h64v344h-64z" />
    <glyph glyph-name="afii10105" unicode="&#x458;" horiz-adv-x="278" 
d="M34 426v82h184v-535q0 -79 -28 -120.5t-115 -41.5q-41 0 -68 4v82q50 1 70.5 18.5t20.5 64.5v446h-64zM98 594v106h120v-106h-120z" />
    <glyph glyph-name="afii10106" unicode="&#x459;" horiz-adv-x="871" 
d="M253 426v-77q0 -65 -3 -109.5t-17 -99.5t-38.5 -86.5t-71.5 -48.5t-113 -5v82q24 -4 43 0t32.5 16.5t23.5 26.5t15.5 39l9.5 43.5t5 51l1.5 50t0.5 51.5v66h-64v82h504v-82h-64v-114h113q31 0 54 -1.5t56 -10.5t53.5 -24t36 -45.5t15.5 -72.5q0 -38 -14.5 -67.5
t-36.5 -46t-51 -27t-53 -14t-47 -3.5h-310v82h64v344h-144zM517 230v-148h112q37 0 64.5 19.5t27.5 56.5q0 72 -92 72h-112z" />
    <glyph glyph-name="afii10107" unicode="&#x45a;" horiz-adv-x="922" 
d="M388 0v82h60v148h-224v-148h60v-82h-244v82h64v344h-64v82h244v-82h-60v-114h224v114h-64v82h248v-82h-64v-114h113q31 0 54 -1.5t56 -10.5t53.5 -24t36 -45.5t15.5 -72.5q0 -38 -14.5 -67.5t-36.5 -46t-51 -27t-53 -14t-47 -3.5h-306zM568 230v-148h112q37 0 64.5 19.5
t27.5 56.5q0 72 -92 72h-112z" />
    <glyph glyph-name="afii10108" unicode="&#x45b;" horiz-adv-x="655" 
d="M615 0h-184v237q0 23 -0.5 33t-2.5 31.5t-7.5 32.5t-15 24t-25.5 19t-38 6q-12 0 -24.5 -2.5t-30.5 -12t-31 -26t-22.5 -48t-9.5 -73.5v-139h64v-82h-248v82h64v430h-80v58h80v58h-64v72h184v-130h205v-58h-205v-134q57 87 159 87q168 0 168 -188v-195h64v-82z" />
    <glyph glyph-name="afii10109" unicode="&#x45c;" horiz-adv-x="574" 
d="M224 426v-344h60v-82h-244v82h64v344h-64v82h244v-82h-60zM239 255l147 171h-40v82h217v-82h-48l-153 -161l156 -183h56v-82h-136zM333 700h130l-110 -132h-90z" />
    <glyph glyph-name="afii10110" unicode="&#x45e;" horiz-adv-x="567" 
d="M-5 426v82h243v-82h-52l118 -296l94 296h-52v82h226v-82h-61l-216 -611h-171v82h92l35 94l-201 435h-55zM385 700h102q-8 -55 -54.5 -99t-142.5 -44t-142.5 44t-54.5 99h102q4 -34 30 -53.5t65 -19.5t65 19.5t30 53.5z" />
    <glyph glyph-name="afii10193" unicode="&#x45f;" horiz-adv-x="673" 
d="M385 426v82h248v-82h-64v-344h64v-82h-244v-185h-106v185h-243v82h64v344h-64v82h248v-82h-64v-344h225v344h-64z" />
    <glyph glyph-name="afii10146" unicode="&#x462;" horiz-adv-x="827" 
d="M543 504h-168v-110h166q20 0 38.5 -1t45.5 -6t50 -13t47 -22.5t40.5 -34.5t27 -50.5t10.5 -67.5q0 -34 -14 -67t-43.5 -63.5t-83.5 -49.5t-125 -19h-356v106h69v398h-126v-150h-106v226h232v44h-69v76h266v-76h-69v-44h274v-150h-106v74zM375 298v-202h140q153 0 153 104
q0 27 -11 46.5t-25.5 29.5t-38.5 15t-38.5 6t-36.5 1h-143z" />
    <glyph glyph-name="afii10194" unicode="&#x463;" horiz-adv-x="654" 
d="M116 618v82h184v-192h207v-146h-82v64h-125v-114h113q31 0 54 -1.5t56 -10.5t53.5 -24t36 -45.5t15.5 -72.5q0 -38 -14.5 -67.5t-36.5 -46t-51 -27t-53 -14t-47 -3.5h-310v82h64v344h-93v-118h-82v200h175v110h-64zM300 230v-148h112q37 0 64.5 19.5t27.5 56.5
q0 72 -92 72h-112z" />
    <glyph glyph-name="afii10147" unicode="&#x472;" horiz-adv-x="776" 
d="M45 350q0 74 16.5 134.5t40.5 98t59.5 65.5t65.5 41.5t67 21t55.5 9t38.5 1.5t38.5 -1.5t55.5 -9t67 -21t65.5 -41.5t59.5 -65.5t40.5 -98t16.5 -134.5t-16.5 -134.5t-40.5 -98t-59.5 -65.5t-65.5 -41.5t-67 -21t-55.5 -9t-38.5 -1.5t-38.5 1.5t-55.5 9t-67 21
t-65.5 41.5t-59.5 65.5t-40.5 98t-16.5 134.5zM185 400h406q-3 38 -13.5 71.5t-32 68t-62 55t-95.5 20.5t-95.5 -20.5t-62 -55t-32 -68t-13.5 -71.5zM590 294h-404q2 -27 8 -53t21 -55t36.5 -50.5t57 -36t79.5 -14.5t79.5 14.5t57 36t36.5 50.5t21 55t8 53z" />
    <glyph glyph-name="afii10195" unicode="&#x473;" horiz-adv-x="610" 
d="M43 254q0 33 6 66t24 72t46 68t76 48.5t110 19.5t110 -19.5t76 -48.5t46 -68t24 -72t6 -66t-6 -66t-24 -72t-46 -68t-76 -48.5t-110 -19.5t-110 19.5t-76 48.5t-46 67.5t-24 72t-6 66.5zM172 298h266q-11 83 -49 115.5t-84 32.5t-84 -32.5t-49 -115.5zM438 216h-266
q1 -16 4.5 -33t13 -40t23 -40t38 -29t54.5 -12t54.5 12t38 29t23 40t13 40t4.5 33z" />
    <glyph glyph-name="afii10148" unicode="&#x474;" horiz-adv-x="699" 
d="M352 131l100 380q8 31 11.5 43t13.5 39.5t18.5 39.5t24 30.5t33.5 27t44 15t58 6.5q45 0 91 -12v-106q-32 12 -68 12q-46 0 -68.5 -22.5t-40.5 -84.5l-147 -499h-148l-208 594h-66v106h271v-106h-64z" />
    <glyph glyph-name="afii10196" unicode="&#x475;" horiz-adv-x="578" 
d="M360 0h-140l-156 426h-69v82h250v-82h-54l100 -308l60 230q9 34 13.5 49t18.5 42t30.5 39.5t46.5 23t70 10.5q35 0 63 -4v-82q-21 4 -43 4q-16 0 -27 -2.5t-24.5 -11t-24 -28.5t-19.5 -52z" />
    <glyph glyph-name="afii10050" unicode="&#x490;" horiz-adv-x="585" 
d="M55 594v106h409v158h106v-264h-318v-488h69v-106h-266v106h69v488h-69z" />
    <glyph glyph-name="afii10098" unicode="&#x491;" horiz-adv-x="451" 
d="M40 426v82h324v132h82v-214h-222v-344h64v-82h-248v82h64v344h-64z" />
    <glyph glyph-name="uni1E9E" unicode="&#x1e9e;" horiz-adv-x="731" 
d="M643 600l-180 -201q109 0 168.5 -57t59.5 -158q0 -21 -4.5 -43.5t-19.5 -51t-39 -50.5t-67.5 -37t-100.5 -15q-82 0 -121 13v106q41 -13 110 -13q49 0 77 25.5t28 72.5q0 36 -15.5 61t-41 36.5t-49.5 16.5t-50 5h-61v90l159 187q-40 28 -95 28q-83 0 -116 -51t-33 -161
v-403h-197v106h69v314q0 42 3.5 75.5t20.5 78.5t45.5 74.5t84.5 51t133 21.5q87 0 147 -36t85 -85z" />
    <glyph glyph-name="uni2010" unicode="&#x2010;" horiz-adv-x="420" 
d="M70 216v106h280v-106h-280z" />
    <glyph glyph-name="uni2011" unicode="&#x2011;" horiz-adv-x="420" 
d="M70 216v106h280v-106h-280z" />
    <glyph glyph-name="figuredash" unicode="&#x2012;" horiz-adv-x="640" 
d="M70 413h500v-106h-500v106z" />
    <glyph glyph-name="endash" unicode="&#x2013;" horiz-adv-x="640" 
d="M70 322h500v-106h-500v106z" />
    <glyph glyph-name="emdash" unicode="&#x2014;" horiz-adv-x="1020" 
d="M70 216v106h880v-106h-880z" />
    <glyph glyph-name="afii00208" unicode="&#x2015;" horiz-adv-x="1020" 
d="M70 216v106h880v-106h-880z" />
    <glyph glyph-name="quoteleft" unicode="&#x2018;" horiz-adv-x="344" 
d="M238 429h-132v139q0 78 38.5 113.5t93.5 40.5v-69q-30 -2 -48.5 -23.5t-18.5 -54.5v-11h67v-135z" />
    <glyph glyph-name="quoteright" unicode="&#x2019;" horiz-adv-x="344" 
d="M106 700h132v-139q0 -78 -38.5 -113.5t-93.5 -40.5v69q30 2 48.5 23.5t18.5 54.5v11h-67v135z" />
    <glyph glyph-name="quotesinglbase" unicode="&#x201a;" horiz-adv-x="344" 
d="M106 135h132v-139q0 -78 -38.5 -113.5t-93.5 -40.5v69q30 2 48.5 23.5t18.5 54.5v11h-67v135z" />
    <glyph glyph-name="quotedblleft" unicode="&#x201c;" horiz-adv-x="480" 
d="M403 429h-132v139q0 78 38.5 113.5t93.5 40.5v-69q-30 -2 -48.5 -23.5t-18.5 -54.5v-11h67v-135zM209 429h-132v139q0 78 38.5 113.5t93.5 40.5v-69q-30 -2 -48.5 -23.5t-18.5 -54.5v-11h67v-135z" />
    <glyph glyph-name="quotedblright" unicode="&#x201d;" horiz-adv-x="480" 
d="M77 700h132v-139q0 -78 -38.5 -113.5t-93.5 -40.5v69q30 2 48.5 23.5t18.5 54.5v11h-67v135zM271 700h132v-139q0 -78 -38.5 -113.5t-93.5 -40.5v69q30 2 48.5 23.5t18.5 54.5v11h-67v135z" />
    <glyph glyph-name="quotedblbase" unicode="&#x201e;" horiz-adv-x="480" 
d="M77 135h132v-139q0 -78 -38.5 -113.5t-93.5 -40.5v69q30 2 48.5 23.5t18.5 54.5v11h-67v135zM271 135h132v-139q0 -78 -38.5 -113.5t-93.5 -40.5v69q30 2 48.5 23.5t18.5 54.5v11h-67v135z" />
    <glyph glyph-name="dagger" unicode="&#x2020;" horiz-adv-x="546" 
d="M97 341h-72v242h72v-75h123v120h-75v72h256v-72h-75v-120h123v75h72v-242h-72v75h-123v-601h-106v601h-123v-75z" />
    <glyph glyph-name="daggerdbl" unicode="&#x2021;" horiz-adv-x="546" 
d="M97 351h-72v232h72v-75h123v120h-75v72h256v-72h-75v-120h123v75h72v-232h-72v65h-123v-168h123v65h72v-232h-72v75h-123v-269h75v-72h-256v72h75v269h-123v-75h-72v232h72v-65h123v168h-123v-65z" />
    <glyph glyph-name="bullet" unicode="&#x2022;" 
d="M185 350q0 48 33.5 81.5t81.5 33.5t81.5 -33.5t33.5 -81.5t-33.5 -81.5t-81.5 -33.5t-81.5 33.5t-33.5 81.5z" />
    <glyph glyph-name="ellipsis" unicode="&#x2026;" horiz-adv-x="1032" 
d="M106 0v135h132v-135h-132zM450 0v135h132v-135h-132zM794 0v135h132v-135h-132z" />
    <glyph glyph-name="perthousand" unicode="&#x2030;" horiz-adv-x="1350" 
d="M556 192q0 89 45 144.5t125 55.5t125 -55.5t45 -144.5t-45 -144.5t-125 -55.5t-125 55.5t-45 144.5zM636 192q0 -134 90 -134t90 134t-90 134t-90 -134zM956 192q0 89 45 144.5t125 55.5t125 -55.5t45 -144.5t-45 -144.5t-125 -55.5t-125 55.5t-45 144.5zM1036 192
q0 -134 90 -134t90 134t-90 134t-90 -134zM54 513q0 89 45 144.5t125 55.5t125 -55.5t45 -144.5t-45 -144.5t-125 -55.5t-125 55.5t-45 144.5zM134 513q0 -134 90 -134t90 134t-90 134t-90 -134zM225 0l428 700h72l-428 -700h-72z" />
    <glyph glyph-name="guilsinglleft" unicode="&#x2039;" horiz-adv-x="286" 
d="M116 270l95 -81v-106l-149 132v110l149 132v-106z" />
    <glyph glyph-name="guilsinglright" unicode="&#x203a;" horiz-adv-x="286" 
d="M170 270l-95 81v106l149 -132v-110l-149 -132v106z" />
    <glyph glyph-name="fraction" unicode="&#x2044;" horiz-adv-x="100" 
d="M-200 0l428 700h72l-428 -700h-72z" />
    <glyph glyph-name="Euro" unicode="&#x20ac;" 
d="M406 386h-233q-1 -15 -1 -43v-31h207l-32 -74h-168q13 -77 51 -115t108 -38q46 0 81 30.5t39 83.5h127q-6 -92 -77 -156t-184 -64q-25 0 -47.5 2.5t-63.5 16.5t-71.5 39.5t-59.5 77.5t-40 123h-82l32 74h43v29q0 30 1 45h-76l32 74h53q23 128 93.5 194.5t177.5 66.5
q98 0 153 -70v49h106v-185h-106q-25 100 -127 100q-70 0 -108 -39.5t-53 -115.5h257z" />
    <glyph glyph-name="uni20B4" unicode="&#x20b4;" 
d="M581 376h-568v68h356q55 28 55 86q0 103 -133 103q-73 0 -107 -34q-32 -34 -34 -84h-107v185h101v-32q54 51 169 51q109 0 174 -44.5t65 -136.5q0 -48 -30 -94h59v-68zM13 337h568v-68h-378q-42 -37 -42 -95q0 -108 137 -108q95 0 131 48q28 38 30 91h110v-205h-101v37
q-27 -27 -76.5 -42t-93.5 -15q-133 0 -199 49.5t-66 137.5q0 58 26 102h-46v68z" />
    <glyph glyph-name="uni20B6" unicode="&#x20b6;" 
d="M375 171h-133v-75h69v-96h-266v96h69v75h-87v66h87v41h-87v86h87v230h-69v106h301q279 0 279 -209q0 -95 -69 -154t-211 -59h-103v-41h133v-66zM242 594v-230h102q25 0 48.5 5t47.5 16.5t38.5 35.5t14.5 58q0 37 -15.5 61.5t-41 35t-47 14.5t-44.5 4h-103z" />
    <glyph glyph-name="uni20B6" unicode="&#x20cf;" 
d="M375 171h-133v-75h69v-96h-266v96h69v75h-87v66h87v41h-87v86h87v230h-69v106h301q279 0 279 -209q0 -95 -69 -154t-211 -59h-103v-41h133v-66zM242 594v-230h102q25 0 48.5 5t47.5 16.5t38.5 35.5t14.5 58q0 37 -15.5 61.5t-41 35t-47 14.5t-44.5 4h-103z" />
    <glyph glyph-name="uni20B6" unicode="&#x20ce;" 
d="M375 171h-133v-75h69v-96h-266v96h69v75h-87v66h87v41h-87v86h87v230h-69v106h301q279 0 279 -209q0 -95 -69 -154t-211 -59h-103v-41h133v-66zM242 594v-230h102q25 0 48.5 5t47.5 16.5t38.5 35.5t14.5 58q0 37 -15.5 61.5t-41 35t-47 14.5t-44.5 4h-103z" />
    <glyph glyph-name="uni20B6" unicode="&#x20cd;" 
d="M375 171h-133v-75h69v-96h-266v96h69v75h-87v66h87v41h-87v86h87v230h-69v106h301q279 0 279 -209q0 -95 -69 -154t-211 -59h-103v-41h133v-66zM242 594v-230h102q25 0 48.5 5t47.5 16.5t38.5 35.5t14.5 58q0 37 -15.5 61.5t-41 35t-47 14.5t-44.5 4h-103z" />
    <glyph glyph-name="uni20B6" unicode="&#x20cc;" 
d="M375 171h-133v-75h69v-96h-266v96h69v75h-87v66h87v41h-87v86h87v230h-69v106h301q279 0 279 -209q0 -95 -69 -154t-211 -59h-103v-41h133v-66zM242 594v-230h102q25 0 48.5 5t47.5 16.5t38.5 35.5t14.5 58q0 37 -15.5 61.5t-41 35t-47 14.5t-44.5 4h-103z" />
    <glyph glyph-name="uni20B6" unicode="&#x20cb;" 
d="M375 171h-133v-75h69v-96h-266v96h69v75h-87v66h87v41h-87v86h87v230h-69v106h301q279 0 279 -209q0 -95 -69 -154t-211 -59h-103v-41h133v-66zM242 594v-230h102q25 0 48.5 5t47.5 16.5t38.5 35.5t14.5 58q0 37 -15.5 61.5t-41 35t-47 14.5t-44.5 4h-103z" />
    <glyph glyph-name="uni20B6" unicode="&#x20ca;" 
d="M375 171h-133v-75h69v-96h-266v96h69v75h-87v66h87v41h-87v86h87v230h-69v106h301q279 0 279 -209q0 -95 -69 -154t-211 -59h-103v-41h133v-66zM242 594v-230h102q25 0 48.5 5t47.5 16.5t38.5 35.5t14.5 58q0 37 -15.5 61.5t-41 35t-47 14.5t-44.5 4h-103z" />
    <glyph glyph-name="uni20B6" unicode="&#x20c9;" 
d="M375 171h-133v-75h69v-96h-266v96h69v75h-87v66h87v41h-87v86h87v230h-69v106h301q279 0 279 -209q0 -95 -69 -154t-211 -59h-103v-41h133v-66zM242 594v-230h102q25 0 48.5 5t47.5 16.5t38.5 35.5t14.5 58q0 37 -15.5 61.5t-41 35t-47 14.5t-44.5 4h-103z" />
    <glyph glyph-name="uni20B6" unicode="&#x20c8;" 
d="M375 171h-133v-75h69v-96h-266v96h69v75h-87v66h87v41h-87v86h87v230h-69v106h301q279 0 279 -209q0 -95 -69 -154t-211 -59h-103v-41h133v-66zM242 594v-230h102q25 0 48.5 5t47.5 16.5t38.5 35.5t14.5 58q0 37 -15.5 61.5t-41 35t-47 14.5t-44.5 4h-103z" />
    <glyph glyph-name="uni20B6" unicode="&#x20c7;" 
d="M375 171h-133v-75h69v-96h-266v96h69v75h-87v66h87v41h-87v86h87v230h-69v106h301q279 0 279 -209q0 -95 -69 -154t-211 -59h-103v-41h133v-66zM242 594v-230h102q25 0 48.5 5t47.5 16.5t38.5 35.5t14.5 58q0 37 -15.5 61.5t-41 35t-47 14.5t-44.5 4h-103z" />
    <glyph glyph-name="uni20B6" unicode="&#x20c6;" 
d="M375 171h-133v-75h69v-96h-266v96h69v75h-87v66h87v41h-87v86h87v230h-69v106h301q279 0 279 -209q0 -95 -69 -154t-211 -59h-103v-41h133v-66zM242 594v-230h102q25 0 48.5 5t47.5 16.5t38.5 35.5t14.5 58q0 37 -15.5 61.5t-41 35t-47 14.5t-44.5 4h-103z" />
    <glyph glyph-name="uni20B6" unicode="&#x20c5;" 
d="M375 171h-133v-75h69v-96h-266v96h69v75h-87v66h87v41h-87v86h87v230h-69v106h301q279 0 279 -209q0 -95 -69 -154t-211 -59h-103v-41h133v-66zM242 594v-230h102q25 0 48.5 5t47.5 16.5t38.5 35.5t14.5 58q0 37 -15.5 61.5t-41 35t-47 14.5t-44.5 4h-103z" />
    <glyph glyph-name="uni20B6" unicode="&#x20c4;" 
d="M375 171h-133v-75h69v-96h-266v96h69v75h-87v66h87v41h-87v86h87v230h-69v106h301q279 0 279 -209q0 -95 -69 -154t-211 -59h-103v-41h133v-66zM242 594v-230h102q25 0 48.5 5t47.5 16.5t38.5 35.5t14.5 58q0 37 -15.5 61.5t-41 35t-47 14.5t-44.5 4h-103z" />
    <glyph glyph-name="uni20B6" unicode="&#x20c3;" 
d="M375 171h-133v-75h69v-96h-266v96h69v75h-87v66h87v41h-87v86h87v230h-69v106h301q279 0 279 -209q0 -95 -69 -154t-211 -59h-103v-41h133v-66zM242 594v-230h102q25 0 48.5 5t47.5 16.5t38.5 35.5t14.5 58q0 37 -15.5 61.5t-41 35t-47 14.5t-44.5 4h-103z" />
    <glyph glyph-name="uni20B6" unicode="&#x20c2;" 
d="M375 171h-133v-75h69v-96h-266v96h69v75h-87v66h87v41h-87v86h87v230h-69v106h301q279 0 279 -209q0 -95 -69 -154t-211 -59h-103v-41h133v-66zM242 594v-230h102q25 0 48.5 5t47.5 16.5t38.5 35.5t14.5 58q0 37 -15.5 61.5t-41 35t-47 14.5t-44.5 4h-103z" />
    <glyph glyph-name="uni20B6" unicode="&#x20c1;" 
d="M375 171h-133v-75h69v-96h-266v96h69v75h-87v66h87v41h-87v86h87v230h-69v106h301q279 0 279 -209q0 -95 -69 -154t-211 -59h-103v-41h133v-66zM242 594v-230h102q25 0 48.5 5t47.5 16.5t38.5 35.5t14.5 58q0 37 -15.5 61.5t-41 35t-47 14.5t-44.5 4h-103z" />
    <glyph glyph-name="uni20B6" unicode="&#x20c0;" 
d="M375 171h-133v-75h69v-96h-266v96h69v75h-87v66h87v41h-87v86h87v230h-69v106h301q279 0 279 -209q0 -95 -69 -154t-211 -59h-103v-41h133v-66zM242 594v-230h102q25 0 48.5 5t47.5 16.5t38.5 35.5t14.5 58q0 37 -15.5 61.5t-41 35t-47 14.5t-44.5 4h-103z" />
    <glyph glyph-name="uni20B6" unicode="&#x20bf;" 
d="M375 171h-133v-75h69v-96h-266v96h69v75h-87v66h87v41h-87v86h87v230h-69v106h301q279 0 279 -209q0 -95 -69 -154t-211 -59h-103v-41h133v-66zM242 594v-230h102q25 0 48.5 5t47.5 16.5t38.5 35.5t14.5 58q0 37 -15.5 61.5t-41 35t-47 14.5t-44.5 4h-103z" />
    <glyph glyph-name="uni20B6" unicode="&#x20be;" 
d="M375 171h-133v-75h69v-96h-266v96h69v75h-87v66h87v41h-87v86h87v230h-69v106h301q279 0 279 -209q0 -95 -69 -154t-211 -59h-103v-41h133v-66zM242 594v-230h102q25 0 48.5 5t47.5 16.5t38.5 35.5t14.5 58q0 37 -15.5 61.5t-41 35t-47 14.5t-44.5 4h-103z" />
    <glyph glyph-name="uni20B6" unicode="&#x20bd;" 
d="M375 171h-133v-75h69v-96h-266v96h69v75h-87v66h87v41h-87v86h87v230h-69v106h301q279 0 279 -209q0 -95 -69 -154t-211 -59h-103v-41h133v-66zM242 594v-230h102q25 0 48.5 5t47.5 16.5t38.5 35.5t14.5 58q0 37 -15.5 61.5t-41 35t-47 14.5t-44.5 4h-103z" />
    <glyph glyph-name="uni20B6" unicode="&#x20bc;" 
d="M375 171h-133v-75h69v-96h-266v96h69v75h-87v66h87v41h-87v86h87v230h-69v106h301q279 0 279 -209q0 -95 -69 -154t-211 -59h-103v-41h133v-66zM242 594v-230h102q25 0 48.5 5t47.5 16.5t38.5 35.5t14.5 58q0 37 -15.5 61.5t-41 35t-47 14.5t-44.5 4h-103z" />
    <glyph glyph-name="uni20B6" unicode="&#x20bb;" 
d="M375 171h-133v-75h69v-96h-266v96h69v75h-87v66h87v41h-87v86h87v230h-69v106h301q279 0 279 -209q0 -95 -69 -154t-211 -59h-103v-41h133v-66zM242 594v-230h102q25 0 48.5 5t47.5 16.5t38.5 35.5t14.5 58q0 37 -15.5 61.5t-41 35t-47 14.5t-44.5 4h-103z" />
    <glyph glyph-name="uni20B6" unicode="&#x20ba;" 
d="M375 171h-133v-75h69v-96h-266v96h69v75h-87v66h87v41h-87v86h87v230h-69v106h301q279 0 279 -209q0 -95 -69 -154t-211 -59h-103v-41h133v-66zM242 594v-230h102q25 0 48.5 5t47.5 16.5t38.5 35.5t14.5 58q0 37 -15.5 61.5t-41 35t-47 14.5t-44.5 4h-103z" />
    <glyph glyph-name="uni20B6" unicode="&#x20b9;" 
d="M375 171h-133v-75h69v-96h-266v96h69v75h-87v66h87v41h-87v86h87v230h-69v106h301q279 0 279 -209q0 -95 -69 -154t-211 -59h-103v-41h133v-66zM242 594v-230h102q25 0 48.5 5t47.5 16.5t38.5 35.5t14.5 58q0 37 -15.5 61.5t-41 35t-47 14.5t-44.5 4h-103z" />
    <glyph glyph-name="uni20B6" unicode="&#x20b7;" 
d="M375 171h-133v-75h69v-96h-266v96h69v75h-87v66h87v41h-87v86h87v230h-69v106h301q279 0 279 -209q0 -95 -69 -154t-211 -59h-103v-41h133v-66zM242 594v-230h102q25 0 48.5 5t47.5 16.5t38.5 35.5t14.5 58q0 37 -15.5 61.5t-41 35t-47 14.5t-44.5 4h-103z" />
    <glyph glyph-name="uni20B8" unicode="&#x20b8;" 
d="M167 0v106h69v348h-142v-140h-106v246h624v-246h-106v140h-142v-348h69v-106h-266zM612 624h-624v76h624v-76z" />
    <glyph glyph-name="afii61352" unicode="&#x2116;" horiz-adv-x="1237" 
d="M840 530q0 87 49 139t127 52t127 -52t49 -139t-49 -139t-127 -52t-127 52t-49 139zM940 530q0 -42 16.5 -76t59.5 -34t59.5 34t16.5 76t-16.5 76t-59.5 34t-59.5 -34t-16.5 -76zM853 172v106h326v-106h-326zM527 594v106h266v-106h-69v-594h-136l-336 497v-391h69v-106
h-266v106h69v488h-69v106h205l336 -497v391h-69z" />
    <glyph glyph-name="trademark" unicode="&#x2122;" horiz-adv-x="1122" 
d="M869 420h34v146l2 45h-2l-103 -261h-70l-103 261h-2l2 -45v-146h40v-70h-198v70h60v210h-60v70h193l93 -231l10 -35h2l10 35l93 231h197v-70h-66v-210h66v-70h-198v70zM136 420h60v210h-71v-66h-70v136h380v-136h-70v66h-71v-210h60v-70h-218v70z" />
    <glyph glyph-name="partialdiff" unicode="&#x2202;" 
d="M233 643l20 90q333 -52 333 -297q0 -29 -2.5 -61t-11 -78t-22.5 -87.5t-40 -85t-60 -74.5t-86.5 -50.5t-115.5 -19.5q-111 0 -162.5 54.5t-51.5 144.5q0 57 18 113.5t53.5 105.5t96 79.5t137.5 30.5q49 0 90.5 -19.5t58.5 -60.5h2q-7 171 -257 215zM254 62q76 0 127 69
t51 174q0 121 -90 121q-82 0 -130 -78t-48 -169q0 -117 90 -117z" />
    <glyph glyph-name="product" unicode="&#x220f;" horiz-adv-x="811" 
d="M490 -185v106h69v673h-307v-673h69v-106h-266v106h69v673h-69v106h701v-106h-69v-673h69v-106h-266z" />
    <glyph glyph-name="summation" unicode="&#x2211;" horiz-adv-x="631" 
d="M74 700h516v-225h-106v119h-244l202 -325l-219 -348h272v136h106v-242h-546v89l239 365l-220 339v92z" />
    <glyph glyph-name="minus" unicode="&#x2212;" 
d="M50 398h500v-86h-500v86z" />
    <glyph glyph-name="uni2215" unicode="&#x2215;" 
d="M50 0l428 700h72l-428 -700h-72z" />
    <glyph glyph-name="radical" unicode="&#x221a;" horiz-adv-x="706" 
d="M263 500l110 -409l121 738h180v-86h-122l-146 -843h-55l-156 514h-132v86h200z" />
    <glyph glyph-name="infinity" unicode="&#x221e;" horiz-adv-x="998" 
d="M450 352q-56 63 -99.5 92t-89.5 29q-57 0 -94 -34t-37 -87q0 -52 34.5 -87.5t97.5 -35.5q48 0 99 32t89 91zM499 299q-113 -143 -250 -143q-84 0 -143.5 54t-59.5 142q0 87 59 140.5t155 53.5q128 0 239 -142q111 142 238 142q96 0 155 -53.5t59 -140.5q0 -88 -59.5 -142
t-143.5 -54q-136 0 -249 143zM547 352q41 -56 89.5 -89.5t93.5 -33.5q64 0 100.5 35.5t36.5 87.5q0 53 -37 87t-94 34q-46 0 -89.5 -29t-99.5 -92z" />
    <glyph glyph-name="integral" unicode="&#x222b;" horiz-adv-x="342" 
d="M-174 -98l22 64q33 -20 63 -20q44 0 65 26t30 85l85 510q29 174 157 174q61 0 111 -23l-22 -62q-28 21 -61 21q-53 0 -73 -25.5t-29 -84.5l-84 -505q-13 -86 -52 -132t-115 -46q-53 0 -97 18z" />
    <glyph glyph-name="approxequal" unicode="&#x2248;" 
d="M89 383l-46 19q49 142 140 142q52 0 90 -23l103 -55q25 -13 50 -13q56 0 85 84l46 -19q-49 -142 -140 -142q-52 0 -90 23l-103 55q-22 13 -52 13t-51 -24t-32 -60zM89 173l-46 19q49 142 140 142q52 0 90 -23l103 -55q25 -13 50 -13q56 0 85 84l46 -19
q-49 -142 -140 -142q-52 0 -90 23l-103 55q-22 13 -52 13t-51 -24t-32 -60z" />
    <glyph glyph-name="notequal" unicode="&#x2260;" 
d="M50 402v86h284l66 114l70 -42l-42 -72h122v-86h-172l-63 -114h235v-86h-285l-66 -114l-70 42l42 72h-121v86h171l63 114h-234z" />
    <glyph glyph-name="lessequal" unicode="&#x2264;" 
d="M122 411l433 -237l-40 -72l-494 278v62l494 278l40 -72zM21 220l40 72l494 -278l-40 -72z" />
    <glyph glyph-name="greaterequal" unicode="&#x2265;" 
d="M478 411l-433 237l40 72l494 -278v-62l-494 -278l-40 72zM579 220l-494 -278l-40 72l494 278z" />
    <glyph glyph-name="lozenge" unicode="&#x25ca;" horiz-adv-x="440" 
d="M306 350l-86 189l-86 -189l86 -189zM390 350l-170 -375l-170 375l170 375z" />
    <glyph glyph-name="uniF400" unicode="&#xf400;" horiz-adv-x="2" 
d="M-277 700h130l-110 -132h-90z" />
    <glyph glyph-name="uniF401" unicode="&#xf401;" horiz-adv-x="2" 
d="M-382 900h136l-118 -140h-96z" />
    <glyph glyph-name="uniF406" unicode="&#xf406;" horiz-adv-x="520" 
d="M50 900h103q4 -38 33.5 -59.5t73.5 -21.5t73.5 21.5t33.5 59.5h103q-13 -68 -66.5 -110.5t-143.5 -42.5t-143.5 42.5t-66.5 110.5z" />
    <glyph glyph-name="uniF407" unicode="&#xf407;" horiz-adv-x="320" 
d="M37 -251l21 68q31 -10 64 -10q59 0 59 37q0 31 -54 31h-3h-48l20 67h51q134 0 134 -100q0 -102 -156 -102q-44 0 -88 9z" />
    <glyph glyph-name="uniF408" unicode="&#xf408;" horiz-adv-x="540" 
d="M270 854l-100 -94h-120l134 140h172l134 -140h-120z" />
    <glyph glyph-name="uniF409" unicode="&#xf409;" horiz-adv-x="232" 
d="M46 -60h140v-105q0 -31 -12 -54t-28 -34.5t-38 -18.5t-35.5 -8.5t-26.5 -1.5v68q29 -1 50 9t21 30v9h-71v106z" />
    <glyph glyph-name="uniF40A" unicode="&#xf40a;" horiz-adv-x="232" 
d="M50 700h132v-139q0 -78 -38.5 -113.5t-93.5 -40.5v69q30 2 48.5 23.5t18.5 54.5v11h-67v135z" />
    <glyph glyph-name="uniF40B" unicode="&#xf40b;" horiz-adv-x="228" 
d="M50 772v100h128v-100h-128z" />
    <glyph glyph-name="uniF40C" unicode="&#xf40c;" horiz-adv-x="300" 
d="M50 820q0 42 29 71t71 29q41 0 70.5 -29.5t29.5 -70.5q0 -42 -29 -71t-71 -29q-43 0 -71.5 28.5t-28.5 71.5zM106 820q0 -18 13 -31t31 -13t31 13t13 31t-13 31t-31 13t-31 -13t-13 -31z" />
    <glyph glyph-name="uniF40D" unicode="&#xf40d;" horiz-adv-x="522" 
d="M392 876h80q-25 -116 -129 -116q-34 0 -85 22q-54 22 -77 22q-46 0 -51 -36h-80q7 48 39 82t90 34q38 0 85 -20l22 -9t18.5 -8t16 -5t20.5 -2q45 0 51 36z" />
    <glyph glyph-name="uniF40E" unicode="&#xf40e;" horiz-adv-x="370" 
d="M126 0h108q-43 -14 -66.5 -48.5t-23.5 -81.5q0 -30 15 -47.5t41 -17.5q27 0 40.5 18t12.5 44h86q-1 -13 -4.5 -25.5t-13.5 -32t-25.5 -34t-44.5 -25t-66 -10.5q-70 0 -104 37t-34 89q0 39 20 76.5t59 57.5z" />
    <glyph glyph-name="uniF410" unicode="&#xf410;" horiz-adv-x="2" 
d="M-452 900l78 -140h-96l-118 140h136z" />
    <glyph glyph-name="dollar.fitted" unicode="&#xf5f5;" horiz-adv-x="575" 
d="M20 205h110q2 -55 30 -93q32 -42 88 -46v250q-42 10 -67 17.5t-56 23t-47.5 35t-28.5 51.5t-12 74q0 100 74 158q57 42 137 44v58h82v-58q67 0 115 -49v30h101v-185h-107q4 45 -33 84q-28 28 -76 34v-217q100 -16 153 -54q41 -29 57 -66.5t16 -92.5q0 -113 -73 -171
q-59 -47 -153 -52v-73h-82v73q-83 0 -127 55v-35h-101v205zM330 300v-234q47 0 72.5 36.5t25.5 85.5q0 40 -25 70.5t-73 41.5zM248 432v201q-83 -13 -83 -106q0 -47 27 -69.5t56 -25.5z" />
    <glyph glyph-name="Euro.fitted" unicode="&#xf5f6;" horiz-adv-x="666" 
d="M462 386h-233q-1 -15 -1 -43v-31h207l-32 -74h-168q13 -77 51 -115t108 -38q46 0 81 30.5t39 83.5h127q-6 -92 -77 -156t-184 -64q-25 0 -47.5 2.5t-63.5 16.5t-71.5 39.5t-59.5 77.5t-40 123h-82l32 74h43v29q0 30 1 45h-76l32 74h53q23 128 93.5 194.5t177.5 66.5
q98 0 153 -70v49h106v-185h-106q-25 100 -127 100q-70 0 -108 -39.5t-53 -115.5h257z" />
    <glyph glyph-name="cent.fitted" unicode="&#xf5f7;" horiz-adv-x="527" 
d="M495 339h-84q-4 37 -29 66.5t-68 37.5v-378q44 11 63.5 46t22.5 75h114q-3 -30 -14 -59t-32 -61t-61 -54.5t-93 -29.5v-74h-67v73q-113 8 -170.5 80.5t-57.5 191.5q0 69 17 120.5t40.5 79.5t57.5 45.5t59 23t54 6.5v66h67v-71q62 -13 99 -56v41h82v-169zM147 253
q0 -161 100 -186v375q-100 -20 -100 -189z" />
    <glyph glyph-name="sterling.fitted" unicode="&#xf5f8;" horiz-adv-x="596" 
d="M465 700h96v-226h-122v16q0 68 -35 108.5t-90 40.5q-64 0 -95 -39t-31 -94q0 -13 1.5 -25t7 -26.5l8.5 -22.5t12 -28.5t13 -28.5h130v-82h-98q3 -11 3 -41q0 -70 -67 -129l2 -4q22 11 65 11q29 0 78 -21.5t80 -21.5q47 0 85 53l61 -84q-72 -77 -149 -77q-48 0 -108 27
t-101 27q-57 0 -113 -38l-59 87q46 30 71 63t29 52.5t4 44.5q0 31 -12 51h-109v82h75q-37 53 -37 125q0 97 59.5 159t187.5 62q115 0 158 -74v53z" />
    <glyph glyph-name="yen.fitted" unicode="&#xf5f9;" horiz-adv-x="657" 
d="M503 222h-110v-39h110v-58h-110v-39h69v-86h-266v86h69v39h-110v58h110v39h-110v58h109l-182 314h-65v106h269v-106h-56l102 -211l101 211h-56v106h263v-106h-65l-182 -314h110v-58z" />
    <glyph glyph-name="florin.fitted" unicode="&#xf5fa;" horiz-adv-x="517" 
d="M473 508l-17 -82h-110l-93 -446q-16 -79 -34 -107q-39 -62 -139 -62q-11 0 -71 4l19 87h18q44 2 59 18.5t26 63.5l93 442h-93l18 82h92l11 54q6 29 14.5 49.5t27.5 43t54 34t86 11.5q37 0 79 -7l-16 -78q-21 7 -53 7q-56 0 -70 -61l-11 -53h110z" />
    <glyph glyph-name="uni20B4.fitted" unicode="&#xf5fb;" horiz-adv-x="621" 
d="M594 376h-568v68h356q55 28 55 86q0 103 -133 103q-73 0 -107 -34q-32 -34 -34 -84h-107v185h101v-32q54 51 169 51q109 0 174 -44.5t65 -136.5q0 -48 -30 -94h59v-68zM26 337h568v-68h-378q-42 -37 -42 -95q0 -108 137 -108q95 0 131 48q28 38 30 91h110v-205h-101v37
q-27 -27 -76 -42t-94 -15q-133 0 -199 49.5t-66 137.5q0 58 26 102h-46v68z" />
    <glyph glyph-name="uni20B6.fitted" unicode="&#xf5fc;" horiz-adv-x="640" 
d="M378 171h-133v-75h69v-96h-266v96h69v75h-87v66h87v41h-87v86h87v230h-69v106h301q279 0 279 -209q0 -95 -69 -154t-211 -59h-103v-41h133v-66zM245 594v-230h102q25 0 48.5 5t47.5 16.5t38.5 35.5t14.5 58q0 37 -15.5 61.5t-41 35t-47 14.5t-44.5 4h-103z" />
    <glyph glyph-name="uni20B8.fitted" unicode="&#xf5fd;" horiz-adv-x="656" 
d="M195 0v106h69v348h-142v-140h-106v246h624v-246h-106v140h-142v-348h69v-106h-266zM640 624h-624v76h624v-76z" />
    <glyph glyph-name="currency.fitted" unicode="&#xf5fe;" horiz-adv-x="739" 
d="M84 327q0 87 50 163l-106 107l72 72l105 -106q74 52 164 52t164 -52l106 106l72 -72l-107 -107q51 -75 51 -163q0 -90 -51 -165l107 -107l-72 -72l-107 107q-75 -51 -163 -51q-91 0 -161 50l-108 -106l-72 72l107 107q-51 75 -51 165zM170 327q0 -82 59 -142t141 -60
q81 0 140 60t59 142t-59 142t-140 60q-82 0 -141 -60t-59 -142z" />
    <glyph glyph-name="numbersign.fitted" unicode="&#xf5ff;" horiz-adv-x="655" 
d="M585 170h-140l-25 -160h-78l25 160h-134l-25 -160h-78l25 160h-142l15 86h140l29 187h-142l15 86h140l26 165h78l-26 -165h134l26 165h78l-26 -165h142l-15 -86h-140l-29 -187h142zM275 443l-29 -187h134l29 187h-134z" />
    <glyph glyph-name="uniF639" unicode="&#xf639;" horiz-adv-x="560" 
d="M281 -21q-63 0 -110.5 25.5t-74.5 63t-43.5 90t-21.5 97.5t-5 95t5 95t21.5 97.5t43.5 90t74.5 63t110.5 25.5t110.5 -25.5t74.5 -63t43.5 -90t21.5 -97.5t5 -95t-5 -95t-21.5 -97.5t-43.5 -90t-74.5 -63t-110.5 -25.5zM281 85q16 0 29 3t32 18t32 41.5t22.5 78.5
t9.5 124t-9.5 124t-22.5 78.5t-32 41.5t-32 18t-29 3t-29 -3t-32 -18t-32 -41.5t-22.5 -78.5t-9.5 -124t9.5 -124t22.5 -78.5t32 -41.5t32 -18t29 -3z" />
    <glyph glyph-name="uniF63A" unicode="&#xf63a;" horiz-adv-x="583" 
d="M557 0h-528q-1 37 6 69.5t15.5 56t29 49t32.5 39t42.5 35.5t41.5 29l47 29q14 9 21 13q36 22 56 35.5t44.5 36.5t35.5 50t11 60q0 15 -3.5 30.5t-15 36t-39 33.5t-68.5 13q-133 0 -133 -131v-17h-123v18q0 48 13 86.5t32 62.5t46.5 41.5t50.5 26t50.5 13.5t40.5 5.5
t26 0.5q113 0 183 -55t70 -164q0 -35 -6.5 -64.5t-23 -55t-30 -42.5t-42.5 -38t-44.5 -31t-50.5 -31l-15 -9q-86 -53 -114 -75.5t-40 -49.5h276v118h106v-224z" />
    <glyph glyph-name="uniF63B" unicode="&#xf63b;" horiz-adv-x="560" 
d="M22 226h123q0 -17 1 -26q2 -22 9 -41t21 -38.5t39.5 -31t59.5 -11.5q24 0 43 5q28 7 47 23t27 36t11 35t3 29q0 105 -122 105h-51v106h27q18 0 31 1t33.5 6.5t34 15t23.5 30t10 48.5q0 39 -22.5 68t-81.5 29q-64 0 -91.5 -33.5t-28.5 -102.5h-123q-1 43 8.5 81.5t34 76.5
t75.5 61t123 23q122 0 179 -54t57 -141q0 -57 -32.5 -99t-87.5 -53v-2q57 -7 95.5 -51.5t38.5 -125.5q0 -102 -69.5 -159t-188.5 -57q-68 0 -118.5 19.5t-76 46t-40.5 64.5t-18 63t-3 54z" />
    <glyph glyph-name="uniF63C" unicode="&#xf63c;" horiz-adv-x="583" 
d="M337 158h-329v101l330 441h127v-441h97v-101h-97v-57h69v-101h-266v101h69v57zM137 259h200v278z" />
    <glyph glyph-name="uniF63D" unicode="&#xf63d;" horiz-adv-x="565" 
d="M510 700v-181h-102v75h-226l-23 -162q52 52 154 52q103 0 165 -65t62 -184q0 -69 -24 -120t-55.5 -76t-75 -40t-69 -17.5t-50.5 -2.5q-216 0 -242 210h123q4 -45 35.5 -78t91.5 -33q24 0 45.5 6.5t43.5 22t34.5 48t12.5 79.5q0 39 -11 68t-25.5 43t-35 22t-33 9.5
t-26.5 1.5q-85 0 -118 -58h-121l48 380h422z" />
    <glyph glyph-name="uniF63E" unicode="&#xf63e;" horiz-adv-x="567" 
d="M539 541h-123q-17 74 -111 74q-144 0 -153 -203h2q46 63 158 63q108 0 170 -63t62 -179q0 -119 -69.5 -186.5t-189.5 -67.5q-57 0 -101 15t-71 42.5t-45.5 59t-27 72t-11.5 73t-3 70.5q0 103 18 180t45 120t66.5 69t74 33.5t75.5 7.5q106 0 164.5 -52t69.5 -128zM156 227
q0 -26 5.5 -48.5t18.5 -45t40 -35.5t65 -13q65 0 97 39.5t32 102.5t-32 102.5t-97 39.5q-72 0 -100.5 -42.5t-28.5 -99.5z" />
    <glyph glyph-name="uniF63F" unicode="&#xf63f;" horiz-adv-x="571" 
d="M103 106h68q28 112 60 189q72 172 199 299h-300v-99h-104v205h530v-88q-125 -129 -196 -299q-44 -102 -62 -207h76v-106h-271v106z" />
    <glyph glyph-name="uniF640" unicode="&#xf640;" horiz-adv-x="539" 
d="M139 375q-93 41 -93 154q0 36 9.5 66.5t32.5 60.5t69.5 47.5t112.5 17.5t112.5 -17.5t69.5 -47.5t32.5 -60.5t9.5 -66.5q0 -113 -93 -154q44 -13 79 -55.5t35 -123.5q0 -54 -17 -94.5t-42.5 -63t-60.5 -36.5t-64.5 -18.5t-60.5 -4.5t-60.5 4.5t-64.5 18.5t-60.5 36.5
t-42.5 63t-17 94.5q0 81 35 123.5t79 55.5zM270 424q56 0 80 29.5t24 67.5q0 13 -3.5 26.5t-13 30t-32 27t-55.5 10.5t-55.5 -10.5t-32 -27t-13 -30t-3.5 -26.5q0 -38 24 -67.5t80 -29.5zM270 85q58 0 86.5 34.5t28.5 82.5q0 45 -26.5 80.5t-88.5 35.5t-88.5 -35.5
t-26.5 -80.5q0 -48 28.5 -82.5t86.5 -34.5z" />
    <glyph glyph-name="uniF641" unicode="&#xf641;" horiz-adv-x="567" 
d="M30 159h123q17 -74 111 -74q144 0 153 203h-2q-46 -63 -158 -63q-108 0 -170 63t-62 179q0 119 69.5 186.5t189.5 67.5q57 0 101 -15t71 -42.5t45.5 -59t27 -72t11.5 -73t3 -70.5q0 -104 -18 -180.5t-44.5 -119.5t-65.5 -69t-74 -33.5t-77 -7.5q-106 0 -164.5 52
t-69.5 128zM413 473q0 57 -28.5 99.5t-100.5 42.5q-65 0 -97 -39.5t-32 -102.5t32 -102.5t97 -39.5q38 0 65 13t40 35.5t18.5 45t5.5 48.5z" />
    <glyph glyph-name="uniF643" unicode="&#xf643;" 
d="M300 -20q-50 0 -90.5 12t-66.5 30.5t-45.5 45.5t-29 51t-15.5 53t-7 46.5t-1 35.5t1 35.5t7 46.5t15.5 53t29 51t45.5 45.5t66.5 30.5t90.5 12t90.5 -12t66.5 -30.5t45.5 -45.5t29 -51t15.5 -53t7 -46.5t1 -35.5t-1 -35.5t-7 -46.5t-15.5 -53t-29 -51t-45.5 -45.5
t-66.5 -30.5t-90.5 -12zM300 76q125 0 125 178t-125 178t-125 -178t125 -178z" />
    <glyph glyph-name="uniF644" unicode="&#xf644;" 
d="M137 402v106h227v-402h99v-106h-326v106h99v296h-99z" />
    <glyph glyph-name="uniF645" unicode="&#xf645;" 
d="M559 0h-517q0 49 18.5 87.5t55 66.5t74 46.5t91.5 38.5q41 14 66 25t50 35t25 52q0 11 -0.5 17.5t-7 20t-18.5 21.5t-37 15t-61 7q-70 0 -106.5 -29t-36.5 -78v-16h-110v15q0 55 22 95t51.5 60.5t69.5 32t64.5 14t48.5 2.5q119 0 185 -45t66 -131q0 -31 -10.5 -57
t-23 -42t-39 -32.5t-41 -23l-46.5 -20.5l-59 -23l-50.5 -19.5t-35.5 -16.5t-33 -22h249v82h96v-178z" />
    <glyph glyph-name="uniF646" unicode="&#xf646;" 
d="M43 34h123q0 -17 1 -26q2 -22 9 -41t21 -38.5t39.5 -31t59.5 -11.5q24 0 43 5q28 7 47 23t27 36t11 35t3 29q0 105 -122 105h-51v106h27q18 0 31 1t33.5 6.5t34 15t23.5 30t10 48.5q0 39 -22.5 68t-81.5 29q-64 0 -91.5 -33.5t-28.5 -102.5h-123q-1 43 8.5 81.5t34 76.5
t75.5 61t123 23q122 0 179 -54t57 -141q0 -57 -32.5 -99t-87.5 -53v-2q57 -7 95.5 -51.5t38.5 -125.5q0 -102 -69.5 -159t-188.5 -57q-68 0 -118.5 19.5t-76 46t-40.5 64.5t-18 63t-3 54z" />
    <glyph glyph-name="uniF647" unicode="&#xf647;" 
d="M352 -34h-329v101l330 441h127v-441h97v-101h-97v-158h-128v158zM152 67h200v278z" />
    <glyph glyph-name="uniF648" unicode="&#xf648;" 
d="M529 509v-181h-102v75h-226l-23 -162q52 52 154 52q103 0 165 -65t62 -184q0 -69 -24 -120t-55.5 -76t-75 -40t-69 -17.5t-50.5 -2.5q-216 0 -242 210h123q4 -45 35.5 -78t91.5 -33q24 0 45.5 6.5t43.5 22t34.5 48t12.5 79.5q0 39 -11 68t-25.5 43t-35 22t-33 9.5
t-26.5 1.5q-85 0 -118 -58h-121l48 380h422z" />
    <glyph glyph-name="uniF649" unicode="&#xf649;" 
d="M555 541h-123q-17 74 -111 74q-144 0 -153 -203h2q46 63 158 63q108 0 170 -63t62 -179q0 -119 -69.5 -186.5t-189.5 -67.5q-57 0 -101 15t-71 42.5t-45.5 59t-27 72t-11.5 73t-3 70.5q0 103 18 180t45 120t66.5 69t74 33.5t75.5 7.5q106 0 164.5 -52t69.5 -128zM172 227
q0 -26 5.5 -48.5t18.5 -45t40 -35.5t65 -13q65 0 97 39.5t32 102.5t-32 102.5t-97 39.5q-72 0 -100.5 -42.5t-28.5 -99.5z" />
    <glyph glyph-name="uniF64A" unicode="&#xf64a;" 
d="M565 508v-88q-125 -129 -196 -299q-35 -79 -50 -146t-24 -167h-134q18 145 82 295q72 167 195 299h-299v-99h-104v205h530z" />
    <glyph glyph-name="uniF64B" unicode="&#xf64b;" 
d="M169 375q-93 41 -93 154q0 36 9.5 66.5t32.5 60.5t69.5 47.5t112.5 17.5t112.5 -17.5t69.5 -47.5t32.5 -60.5t9.5 -66.5q0 -113 -93 -154q44 -13 79 -55.5t35 -123.5q0 -54 -17 -94.5t-42.5 -63t-60.5 -36.5t-64.5 -18.5t-60.5 -4.5t-60.5 4.5t-64.5 18.5t-60.5 36.5
t-42.5 63t-17 94.5q0 81 35 123.5t79 55.5zM300 424q56 0 80 29.5t24 67.5q0 13 -3.5 26.5t-13 30t-32 27t-55.5 10.5t-55.5 -10.5t-32 -27t-13 -30t-3.5 -26.5q0 -38 24 -67.5t80 -29.5zM300 85q58 0 86.5 34.5t28.5 82.5q0 45 -26.5 80.5t-88.5 35.5t-88.5 -35.5
t-26.5 -80.5q0 -48 28.5 -82.5t86.5 -34.5z" />
    <glyph glyph-name="uniF64C" unicode="&#xf64c;" 
d="M46 -33h123q17 -74 111 -74q144 0 153 203h-2q-46 -63 -158 -63q-108 0 -170 63t-62 179q0 119 69.5 186.5t189.5 67.5q57 0 101 -15t71 -42.5t45.5 -59t27 -72t11.5 -73t3 -70.5q0 -104 -18 -180.5t-44.5 -119.5t-65.5 -69t-74 -33.5t-77 -7.5q-106 0 -164.5 52
t-69.5 128zM429 281q0 57 -28.5 99.5t-100.5 42.5q-65 0 -97 -39.5t-32 -102.5t32 -102.5t97 -39.5q38 0 65 13t40 35.5t18.5 45t5.5 48.5z" />
    <glyph glyph-name="uniF6BA" unicode="&#xf6ba;" horiz-adv-x="420" 
d="M70 307v106h280v-106h-280z" />
    <glyph glyph-name="uniF6BB" unicode="&#xf6bb;" horiz-adv-x="640" 
d="M70 413h500v-106h-500v106z" />
    <glyph glyph-name="uniF6BC" unicode="&#xf6bc;" horiz-adv-x="1020" 
d="M70 307v106h880v-106h-880z" />
    <glyph glyph-name="uniF6C3" unicode="&#xf6c3;" horiz-adv-x="232" 
d="M50 -60h132v-99q0 -36 -16 -60.5t-40.5 -34t-42 -13t-33.5 -3.5v64q27 -1 47 8.5t20 28.5v9h-67v100z" />
    <glyph glyph-name="uniF6C9" unicode="&#xf6c9;" horiz-adv-x="350" 
d="M172 900h136l-118 -140h-96z" />
    <glyph glyph-name="uniF6CA" unicode="&#xf6ca;" horiz-adv-x="540" 
d="M270 806l100 94h120l-134 -140h-172l-134 140h120z" />
    <glyph glyph-name="uniF6CB" unicode="&#xf6cb;" horiz-adv-x="466" 
d="M50 772v96h128v-96h-128zM288 772v96h128v-96h-128z" />
    <glyph glyph-name="uniF6CC" unicode="&#xf6cc;" horiz-adv-x="606" 
d="M60 772v88h128v-88h-128zM418 772v88h128v-88h-128zM289 900h136l-118 -140h-96z" />
    <glyph glyph-name="uniF6CE" unicode="&#xf6ce;" horiz-adv-x="350" 
d="M178 900l78 -140h-96l-118 140h136z" />
    <glyph glyph-name="uniF6CF" unicode="&#xf6cf;" horiz-adv-x="480" 
d="M128 900h130l-118 -140h-90zM300 900h130l-118 -140h-90z" />
    <glyph glyph-name="uniF6D0" unicode="&#xf6d0;" horiz-adv-x="430" 
d="M50 760v80h330v-80h-330z" />
    <glyph glyph-name="uniF6D1" unicode="&#xf6d1;" horiz-adv-x="520" 
d="M50 900h103q4 -38 33.5 -59.5t73.5 -21.5t73.5 21.5t33.5 59.5h103q-13 -68 -66.5 -110.5t-143.5 -42.5t-143.5 42.5t-66.5 110.5z" />
    <glyph glyph-name="uniF6D4" unicode="&#xf6d4;" horiz-adv-x="494" 
d="M342 700h102q-8 -55 -54.5 -99t-142.5 -44t-142.5 44t-54.5 99h102q4 -34 30 -53.5t65 -19.5t65 19.5t30 53.5z" />
    <glyph glyph-name="uniF6D7" unicode="&#xf6d7;" horiz-adv-x="576" 
d="M60 584v106h111v-106h-111zM405 584v106h111v-106h-111zM259 700h130l-110 -132h-90z" />
    <glyph glyph-name="uniF6DC" unicode="&#xf6dc;" horiz-adv-x="414" 
d="M32 594v106h247v-594h119v-106h-366v106h119v488h-119z" />
    <glyph glyph-name="uniF6DE" unicode="&#xf6de;" horiz-adv-x="765" 
d="M52 216v106h660v-106h-660z" />
    <glyph glyph-name="uniF730" unicode="&#xf730;" 
d="M300 -20q-50 0 -90.5 12t-66.5 30.5t-45.5 45.5t-29 51t-15.5 53t-7 46.5t-1 35.5t1 35.5t7 46.5t15.5 53t29 51t45.5 45.5t66.5 30.5t90.5 12t90.5 -12t66.5 -30.5t45.5 -45.5t29 -51t15.5 -53t7 -46.5t1 -35.5t-1 -35.5t-7 -46.5t-15.5 -53t-29 -51t-45.5 -45.5
t-66.5 -30.5t-90.5 -12zM300 76q125 0 125 178t-125 178t-125 -178t125 -178z" />
    <glyph glyph-name="uniF731" unicode="&#xf731;" horiz-adv-x="436" 
d="M66 402v106h227v-402h99v-106h-326v106h99v296h-99z" />
    <glyph glyph-name="uniF732" unicode="&#xf732;" horiz-adv-x="595" 
d="M557 0h-517q0 49 18.5 87.5t55 66.5t74 46.5t91.5 38.5q41 14 66 25t50 35t25 52q0 11 -0.5 17.5t-7 20t-18.5 21.5t-37 15t-61 7q-70 0 -106.5 -29t-36.5 -78v-16h-110v15q0 55 22 95t51.5 60.5t69.5 32t64.5 14t48.5 2.5q119 0 185 -45t66 -131q0 -31 -10.5 -57
t-23 -42t-39 -32.5t-41 -23l-46.5 -20.5l-59 -23l-50.5 -19.5t-35.5 -16.5t-33 -22h249v82h96v-178z" />
    <glyph glyph-name="uniF733" unicode="&#xf733;" 
d="M36 34h123q0 -17 1 -26q2 -22 9 -41t21 -38.5t39.5 -31t59.5 -11.5q24 0 43 5q28 7 47 23t27 36t11 35t3 29q0 105 -122 105h-51v106h27q18 0 31 1t33.5 6.5t34 15t23.5 30t10 48.5q0 39 -22.5 68t-81.5 29q-64 0 -91.5 -33.5t-28.5 -102.5h-123q-1 43 8.5 81.5t34 76.5
t75.5 61t123 23q122 0 179 -54t57 -141q0 -57 -32.5 -99t-87.5 -53v-2q57 -7 95.5 -51.5t38.5 -125.5q0 -102 -69.5 -159t-188.5 -57q-68 0 -118.5 19.5t-76 46t-40.5 64.5t-18 63t-3 54z" />
    <glyph glyph-name="uniF734" unicode="&#xf734;" 
d="M352 -34h-329v101l330 441h127v-441h97v-101h-97v-158h-128v158zM152 67h200v278z" />
    <glyph glyph-name="uniF735" unicode="&#xf735;" horiz-adv-x="607" 
d="M542 509v-181h-102v75h-226l-23 -162q52 52 154 52q103 0 165 -65t62 -184q0 -69 -24 -120t-55.5 -76t-75 -40t-69 -17.5t-50.5 -2.5q-216 0 -242 210h123q4 -45 35.5 -78t91.5 -33q24 0 45.5 6.5t43.5 22t34.5 48t12.5 79.5q0 39 -11 68t-25.5 43t-35 22t-33 9.5
t-26.5 1.5q-85 0 -118 -58h-121l48 380h422z" />
    <glyph glyph-name="uniF736" unicode="&#xf736;" 
d="M555 541h-123q-17 74 -111 74q-144 0 -153 -203h2q46 63 158 63q108 0 170 -63t62 -179q0 -119 -69.5 -186.5t-189.5 -67.5q-57 0 -101 15t-71 42.5t-45.5 59t-27 72t-11.5 73t-3 70.5q0 103 18 180t45 120t66.5 69t74 33.5t75.5 7.5q106 0 164.5 -52t69.5 -128zM172 227
q0 -26 5.5 -48.5t18.5 -45t40 -35.5t65 -13q65 0 97 39.5t32 102.5t-32 102.5t-97 39.5q-72 0 -100.5 -42.5t-28.5 -99.5z" />
    <glyph glyph-name="uniF737" unicode="&#xf737;" horiz-adv-x="560" 
d="M556 508v-88q-125 -129 -196 -299q-35 -79 -50 -146t-24 -167h-134q18 145 82 295q72 167 195 299h-299v-99h-104v205h530z" />
    <glyph glyph-name="uniF738" unicode="&#xf738;" 
d="M169 375q-93 41 -93 154q0 36 9.5 66.5t32.5 60.5t69.5 47.5t112.5 17.5t112.5 -17.5t69.5 -47.5t32.5 -60.5t9.5 -66.5q0 -113 -93 -154q44 -13 79 -55.5t35 -123.5q0 -54 -17 -94.5t-42.5 -63t-60.5 -36.5t-64.5 -18.5t-60.5 -4.5t-60.5 4.5t-64.5 18.5t-60.5 36.5
t-42.5 63t-17 94.5q0 81 35 123.5t79 55.5zM300 424q56 0 80 29.5t24 67.5q0 13 -3.5 26.5t-13 30t-32 27t-55.5 10.5t-55.5 -10.5t-32 -27t-13 -30t-3.5 -26.5q0 -38 24 -67.5t80 -29.5zM300 85q58 0 86.5 34.5t28.5 82.5q0 45 -26.5 80.5t-88.5 35.5t-88.5 -35.5
t-26.5 -80.5q0 -48 28.5 -82.5t86.5 -34.5z" />
    <glyph glyph-name="uniF739" unicode="&#xf739;" 
d="M45 -33h123q17 -74 111 -74q144 0 153 203h-2q-46 -63 -158 -63q-108 0 -170 63t-62 179q0 119 69.5 186.5t189.5 67.5q57 0 101 -15t71 -42.5t45.5 -59t27 -72t11.5 -73t3 -70.5q0 -104 -18 -180.5t-44.5 -119.5t-65.5 -69t-74 -33.5t-77 -7.5q-106 0 -164.5 52
t-69.5 128zM428 281q0 57 -28.5 99.5t-100.5 42.5q-65 0 -97 -39.5t-32 -102.5t32 -102.5t97 -39.5q38 0 65 13t40 35.5t18.5 45t5.5 48.5z" />
    <glyph glyph-name="NULL" horiz-adv-x="0" 
 />
    <glyph glyph-name="CR" horiz-adv-x="233" 
 />
    <glyph glyph-name="afii10099.alt01" horiz-adv-x="624" 
d="M24 508h80v120h-64v72h184v-192h205v-58h-205v-134q25 42 72 64.5t95 22.5q108 0 150.5 -64.5t42.5 -209.5q0 -158 -54 -236t-194 -78v87h14q34 0 55.5 16.5t32.5 50t14.5 71t3.5 93.5q0 103 -20 145.5t-85 42.5q-16 0 -33.5 -5.5t-40 -19.5t-37.5 -47t-16 -80v-87h64
v-82h-248v82h64v368h-80v58z" />
    <glyph glyph-name="afii10108.alt01" horiz-adv-x="655" 
d="M615 0h-184v175q0 23 -0.5 33t-2.5 31.5t-7.5 32.5t-15 24t-25.5 19t-38 6q-12 0 -24.5 -2.5t-30.5 -12t-31 -26t-22.5 -48t-9.5 -73.5v-77h64v-82h-248v82h64v368h-80v58h80v120h-64v72h184v-192h205v-58h-205v-134q57 87 159 87q168 0 168 -188v-133h64v-82z" />
    </font>
</defs>
</svg>
